<svg width="1401" height="737" viewBox="0 0 1401 737" fill="none" xmlns="http://www.w3.org/2000/svg">
<path d="M1300.62 76.9834H0.621094V736.983H1400.62V176.983C1400.62 121.755 1355.85 76.9834 1300.62 76.9834Z" fill="#0F264C"/>
<mask id="mask0_702_297" style="mask-type:alpha" maskUnits="userSpaceOnUse" x="0" y="76" width="1401" height="661">
<path d="M1300.62 76.9834H0.621094V736.983H1400.62V176.983C1400.62 121.755 1355.85 76.9834 1300.62 76.9834Z" fill="#0F264C"/>
</mask>
<g mask="url(#mask0_702_297)">
<path opacity="0.2" d="M-225.379 393.592C-176.378 329.871 -46.5904 205.614 80.548 218.358C239.471 234.288 -62.4828 532.983 80.548 532.983C223.579 532.983 291.121 166.584 394.421 166.584C497.721 166.584 279.202 437.401 394.421 453.331C509.64 469.262 604.994 71.0017 732.133 67.0191C859.271 63.0365 601.021 393.592 807.621 393.592" stroke="url(#paint0_linear_702_297)" stroke-width="2"/>
</g>
<path d="M389.693 73.966C387.761 65.117 384.572 56.749 380.321 49.0542C379.741 47.9962 379.065 46.842 378.388 45.7839C373.46 37.6082 367.373 30.2982 360.32 23.95C359.45 23.0843 358.484 22.3148 357.518 21.5454C349.981 15.2934 341.382 10.1956 332.106 6.54055C330.946 6.05963 329.787 5.6749 328.627 5.29016C319.351 2.01988 309.303 0.192369 298.964 0C298.384 0 297.708 0 297.128 0C296.548 0 295.872 0 295.292 0C284.857 0.192369 274.905 2.01988 265.629 5.29016C264.47 5.6749 263.31 6.15581 262.151 6.54055C252.875 10.1956 244.275 15.2934 236.739 21.5454C235.772 22.3148 234.806 23.1805 233.937 23.95C226.883 30.2982 220.699 37.6082 215.868 45.7839C215.192 46.842 214.612 47.9962 213.936 49.0542C209.684 56.749 206.496 65.117 204.563 73.966C204.273 75.2164 204.08 76.4669 203.79 77.7173C202.824 83.1036 202.341 88.5861 202.341 94.1648H391.819C391.819 88.5861 391.336 83.0074 390.37 77.7173C390.176 76.4669 389.983 75.2164 389.693 73.966Z" fill="#0F264C"/>
<defs>
<linearGradient id="paint0_linear_702_297" x1="291.121" y1="177.302" x2="291.121" y2="635.694" gradientUnits="userSpaceOnUse">
<stop stop-color="#F37753"/>
<stop offset="1" stop-color="white" stop-opacity="0"/>
</linearGradient>
</defs>
</svg>
