<svg width="128" height="94" viewBox="0 0 128 94" fill="none" xmlns="http://www.w3.org/2000/svg">
<path d="M125.325 73.6026C123.427 64.8615 120.297 56.5955 116.123 48.9946C115.554 47.9494 114.889 46.8093 114.225 45.7642C109.387 37.6882 103.411 30.4673 96.4854 24.1965C95.6316 23.3414 94.683 22.5813 93.7343 21.8212C86.3347 15.6454 77.8916 10.6098 68.7844 6.99936C67.646 6.5243 66.5077 6.14427 65.3693 5.76422C56.2621 2.53382 46.396 0.728598 36.2453 0.538574C35.6761 0.538574 35.012 0.538574 34.4428 0.538574C33.8736 0.538574 33.2096 0.538574 32.6404 0.538574C22.3948 0.728598 12.6236 2.53382 3.51638 5.76422C2.37798 6.14427 1.2396 6.61931 0.101208 6.99936C-9.00596 10.6098 -17.4491 15.6454 -24.8487 21.8212C-25.7973 22.5813 -26.746 23.4364 -27.5998 24.1965C-34.525 30.4673 -40.5965 37.6882 -45.3398 45.7642C-46.0039 46.8093 -46.5731 47.9494 -47.2371 48.9946C-51.4113 56.5955 -54.5418 64.8615 -56.4392 73.6026C-56.7237 74.8378 -56.9135 76.0729 -57.1981 77.3081C-58.1468 82.6287 -58.6211 88.0444 -58.6211 93.5551H127.412C127.412 88.0444 126.938 82.5337 125.989 77.3081C125.799 76.0729 125.609 74.8378 125.325 73.6026Z" fill="#FCDDD4"/>
</svg>
