<svg width="170" height="41" viewBox="0 0 170 41" fill="none" xmlns="http://www.w3.org/2000/svg">
<path d="M64.5507 33.5345V33.2759L65.6211 33.0172C66.3347 32.8621 66.6915 32.431 66.6915 31.7241V16.9828H64.4723C63.8284 16.9828 63.3671 17.1552 63.0886 17.5C62.8101 17.8276 62.5143 18.2845 62.201 18.8707L61.2611 20.681H61L61.1305 16.4655H76.1948L76.2992 20.681H76.0381L75.0983 18.8707C74.8024 18.2845 74.5152 17.8276 74.2367 17.5C73.9582 17.1552 73.497 16.9828 72.853 16.9828H70.6338V31.7241C70.6338 32.431 70.9906 32.8621 71.7042 33.0172L72.7747 33.2759V33.5345H64.5507Z" fill="white"/>
<path d="M77.4206 33.5345V33.2759L77.9689 33.0948C78.317 32.9741 78.5433 32.819 78.6477 32.6293C78.7521 32.4224 78.8044 32.1379 78.8044 31.7759V18.25C78.8044 17.9052 78.7521 17.6379 78.6477 17.4483C78.5607 17.2414 78.3518 17.0776 78.0211 16.9569L77.4206 16.7241V16.4655H84.8875C86.9413 16.4655 88.5165 16.8534 89.613 17.6293C90.7095 18.3879 91.2578 19.4483 91.2578 20.8103C91.2578 21.569 90.9706 22.3276 90.3963 23.0862C89.8219 23.8448 88.9168 24.431 87.681 24.8448L91.31 31.9828C91.4667 32.2759 91.6407 32.5172 91.8322 32.7069C92.041 32.8793 92.3108 33.0345 92.6415 33.1724L92.9809 33.3017V33.5345H88.3076L84.4437 25.3879H82.6683V31.7759C82.6683 32.1034 82.7205 32.3707 82.825 32.5776C82.9294 32.7845 83.147 32.9397 83.4777 33.0431L84.1043 33.2759V33.5345H77.4206ZM82.6683 24.8707H83.9215C85.1747 24.8707 86.0797 24.5431 86.6367 23.8879C87.1937 23.2155 87.4722 22.2241 87.4722 20.9138C87.4722 19.5862 87.2111 18.6034 86.6889 17.9655C86.1668 17.3103 85.2878 16.9828 84.052 16.9828H82.6683V24.8707Z" fill="white"/>
<path d="M93.704 33.5345V33.2759L94.3567 33.0431C94.7048 32.9052 94.9746 32.7414 95.166 32.5517C95.3575 32.3448 95.5141 32.0603 95.636 31.6983L101.014 16.4138H103.233L108.533 31.8017C108.673 32.181 108.829 32.4741 109.003 32.681C109.177 32.8707 109.447 33.0345 109.813 33.1724L110.126 33.2759V33.5345H103.494V33.2759L103.886 33.1466C104.252 33.0086 104.469 32.819 104.539 32.5776C104.626 32.319 104.617 32.0172 104.513 31.6724L103.286 27.9483H97.4896L96.2365 31.5948C96.1146 31.9741 96.0711 32.2759 96.1059 32.5C96.1581 32.7241 96.367 32.9052 96.7325 33.0431L97.3069 33.2759V33.5345H93.704ZM97.6724 27.431H103.129L100.492 19.3879L97.6724 27.431Z" fill="white"/>
<path d="M110.948 33.5345V33.2759L111.418 33.1207C111.766 33 112.001 32.8362 112.123 32.6293C112.245 32.4224 112.305 32.1466 112.305 31.8017C112.323 30.7672 112.332 29.7241 112.332 28.6724C112.332 27.6207 112.332 26.569 112.332 25.5172V24.4828C112.332 23.4483 112.332 22.4138 112.332 21.3793C112.332 20.3276 112.323 19.2845 112.305 18.25C112.305 17.9052 112.253 17.6293 112.149 17.4224C112.062 17.2155 111.853 17.0517 111.522 16.931L110.948 16.7241V16.4655H123.584L123.767 20.7586H123.506L122.018 18.0431C121.844 17.7155 121.643 17.4569 121.417 17.2672C121.191 17.0776 120.878 16.9828 120.477 16.9828H116.274C116.256 18.2069 116.248 19.4569 116.248 20.7328C116.248 22.0086 116.248 23.2759 116.248 24.5345H118.963C119.363 24.5345 119.659 24.4483 119.851 24.2759C120.042 24.1034 120.225 23.8534 120.399 23.5259L120.947 22.5431H121.208V27.069H120.947L120.373 26.0862C120.199 25.7759 120.016 25.5259 119.825 25.3362C119.65 25.1466 119.363 25.0517 118.963 25.0517H116.248C116.248 26.2586 116.248 27.4138 116.248 28.5172C116.248 29.6034 116.256 30.6724 116.274 31.7241C116.274 32.3966 116.605 32.8362 117.266 33.0431L118.049 33.2759V33.5345H110.948Z" fill="white"/>
<path d="M124.818 33.5345V33.2759L125.34 33.069C125.688 32.9483 125.914 32.7845 126.019 32.5776C126.14 32.3707 126.201 32.0948 126.201 31.75V18.25C126.201 17.9052 126.149 17.6293 126.045 17.4224C125.94 17.2155 125.705 17.0517 125.34 16.931L124.818 16.7241V16.4655H131.527V16.7241L131.005 16.931C130.657 17.0517 130.422 17.2155 130.3 17.4224C130.196 17.6293 130.144 17.9052 130.144 18.25V31.75C130.144 32.0948 130.196 32.3707 130.3 32.5776C130.422 32.7672 130.657 32.931 131.005 33.069L131.527 33.2759V33.5345H124.818Z" fill="white"/>
<path d="M141.218 34C139.53 34 137.998 33.6638 136.623 32.9914C135.266 32.3017 134.186 31.2845 133.386 29.9397C132.585 28.5948 132.185 26.9483 132.185 25C132.185 23.5172 132.428 22.2155 132.916 21.0948C133.403 19.9741 134.065 19.0345 134.9 18.2759C135.753 17.5172 136.728 16.9483 137.824 16.569C138.938 16.1897 140.113 16 141.349 16C142.341 16 143.255 16.1121 144.09 16.3362C144.925 16.5603 145.709 16.8707 146.44 17.2672L146.544 20.4483H146.283L144.978 18.3793C144.804 18.0517 144.612 17.7586 144.403 17.5C144.194 17.2241 143.933 17.0172 143.62 16.8793C143.359 16.7586 143.098 16.6724 142.837 16.6207C142.593 16.5517 142.28 16.5172 141.897 16.5172C140.887 16.5172 139.965 16.7845 139.129 17.319C138.311 17.8534 137.65 18.7414 137.145 19.9828C136.658 21.2069 136.414 22.8879 136.414 25.0259C136.414 27.1466 136.649 28.8276 137.119 30.069C137.589 31.2931 138.224 32.1724 139.025 32.7069C139.843 33.2241 140.757 33.4828 141.766 33.4828C142.323 33.4828 142.767 33.4483 143.098 33.3793C143.429 33.2931 143.759 33.1724 144.09 33.0172C144.421 32.8793 144.673 32.681 144.847 32.4224C145.021 32.1466 145.178 31.8534 145.317 31.5431L146.466 29.0086H146.727L146.649 32.7069C145.918 33.0862 145.099 33.3966 144.194 33.6379C143.289 33.8793 142.297 34 141.218 34Z" fill="white"/>
<path d="M155.987 34C154.925 34 153.898 33.8103 152.906 33.431C151.931 33.0517 151.052 32.4914 150.269 31.75C149.503 30.9914 148.894 30.0517 148.442 28.931C147.989 27.8103 147.763 26.5 147.763 25C147.763 23.5172 147.989 22.2155 148.442 21.0948C148.894 19.9741 149.512 19.0431 150.295 18.3017C151.079 17.5431 151.957 16.9741 152.932 16.5948C153.924 16.1983 154.942 16 155.987 16C157.049 16 158.067 16.1897 159.041 16.569C160.034 16.931 160.912 17.4914 161.678 18.25C162.462 18.9914 163.079 19.931 163.532 21.069C163.985 22.1897 164.211 23.5 164.211 25C164.211 26.4655 163.985 27.7672 163.532 28.9052C163.079 30.0259 162.462 30.9655 161.678 31.7241C160.912 32.4655 160.034 33.0345 159.041 33.431C158.067 33.8103 157.049 34 155.987 34ZM155.987 33.4569C156.944 33.4569 157.719 33.2069 158.31 32.7069C158.902 32.1897 159.329 31.319 159.59 30.0948C159.868 28.8534 160.007 27.1552 160.007 25C160.007 22.8276 159.868 21.1293 159.59 19.9052C159.329 18.6638 158.902 17.7931 158.31 17.2931C157.719 16.7759 156.944 16.5172 155.987 16.5172C155.047 16.5172 154.281 16.7759 153.689 17.2931C153.098 17.7931 152.662 18.6638 152.384 19.9052C152.123 21.1293 151.992 22.8276 151.992 25C151.992 27.1552 152.123 28.8534 152.384 30.0948C152.662 31.319 153.098 32.1897 153.689 32.7069C154.281 33.2069 155.047 33.4569 155.987 33.4569Z" fill="white"/>
<path d="M167.755 33.9224C167.128 33.9224 166.597 33.7069 166.162 33.2759C165.727 32.8448 165.509 32.3276 165.509 31.7241C165.509 31.1207 165.727 30.5948 166.162 30.1466C166.597 29.6983 167.128 29.4741 167.755 29.4741C168.381 29.4741 168.912 29.6983 169.347 30.1466C169.782 30.5948 170 31.1207 170 31.7241C170 32.3276 169.782 32.8448 169.347 33.2759C168.912 33.7069 168.381 33.9224 167.755 33.9224Z" fill="white"/>
<path opacity="0.4" d="M-5.96046e-07 14L13 14L13 1.39194e-06L-5.96046e-07 14Z" fill="white"/>
<path d="M38 14H13V41L38 14Z" fill="white"/>
</svg>
