<svg width="430" height="209" viewBox="0 0 430 209" fill="none" xmlns="http://www.w3.org/2000/svg">
<path d="M122.627 173.478C122.627 192.983 133.857 208.742 147.669 208.742H172.71C186.522 208.742 197.623 192.854 197.623 173.478C197.623 153.973 186.393 138.214 172.581 138.214C172.323 138.214 172.194 138.214 171.936 138.214H147.669C133.728 138.214 122.627 154.102 122.627 173.478Z" fill="#402B2B"/>
<path d="M318.828 173.09C318.828 192.595 330.058 208.354 343.87 208.354H368.912C382.723 208.354 393.824 192.466 393.824 173.09C393.824 153.585 382.594 137.826 368.782 137.826C368.524 137.826 368.395 137.826 368.137 137.826H343.87C329.929 137.826 318.828 153.585 318.828 173.09Z" fill="#F48767"/>
<path d="M0 121.034L7.61577 103.983H30.4631L30.7212 168.569L0.129089 168.699L0 121.034Z" fill="black"/>
<path d="M120.949 170.12L221.761 169.861L210.144 163.015L133.857 163.144L120.949 170.12Z" fill="#402B2B"/>
<path d="M25.8164 112.638L25.9455 177.353L107.783 177.224L133.857 163.145L210.144 163.015L233.637 176.966L400.151 176.578C402.862 176.578 405.056 174.382 405.056 171.67L404.927 111.863L25.8164 112.638Z" fill="#F36F49"/>
<path d="M204.208 127.363L334.837 127.105L334.579 8.65453C334.579 3.87517 330.707 0 325.802 0L203.82 0.25836L204.208 127.363Z" fill="#F48767"/>
<path d="M0.516947 127.88L204.078 127.493L203.819 0.387695L8.90721 0.775195C4.13121 0.775195 0.258789 4.65034 0.258789 9.55887L0.516947 127.88Z" fill="#F06A5B"/>
<path d="M302.307 173.09C302.307 192.595 291.206 208.354 277.394 208.354H252.482V196.47C243.317 196.47 235.83 186.007 235.83 173.09C235.83 160.173 243.188 149.71 252.352 149.71V137.826H277.265C291.077 137.955 302.178 153.714 302.307 173.09Z" fill="#F48767"/>
<path d="M231.83 173.349C231.83 189.366 240.995 202.284 252.354 202.154C263.713 202.154 272.749 189.237 272.749 173.22C272.749 157.203 263.584 144.285 252.225 144.415C240.995 144.415 231.83 157.332 231.83 173.349Z" fill="#F48767"/>
<path d="M252.352 192.337C259.839 192.337 265.777 183.811 265.777 173.219C265.777 162.627 259.71 154.231 252.223 154.231C244.737 154.231 238.799 162.756 238.799 173.348C238.799 183.94 244.866 192.337 252.352 192.337ZM252.352 161.981C256.741 161.981 260.355 167.019 260.355 173.219C260.355 179.419 256.741 184.586 252.352 184.586C247.964 184.586 244.349 179.549 244.349 173.348C244.349 167.019 247.835 161.981 252.352 161.981Z" fill="#F7A58D"/>
<path d="M252.352 208.483C266.164 208.483 277.265 192.595 277.265 173.219C277.265 153.844 266.035 137.956 252.223 137.956C238.412 137.956 227.311 153.844 227.311 173.219C227.311 192.595 238.67 208.613 252.352 208.483ZM252.223 144.414C263.582 144.414 272.747 157.331 272.747 173.219C272.747 189.237 263.711 202.154 252.352 202.154C240.993 202.154 231.828 189.237 231.828 173.349C231.828 157.331 240.993 144.414 252.223 144.414Z" fill="#F7A58D"/>
<path d="M248.867 173.22C248.867 170.507 250.416 168.44 252.223 168.44C254.03 168.44 255.579 170.636 255.708 173.22C255.708 175.932 254.16 177.999 252.352 177.999C250.416 178.128 248.867 175.932 248.867 173.22Z" fill="#F48766"/>
<path d="M105.976 173.607C105.976 193.112 94.8747 208.871 81.0631 208.871H56.1505V196.987C46.9857 196.987 39.499 186.524 39.499 173.607C39.499 160.69 46.8566 150.227 56.0214 150.227V138.343H80.934C94.7456 138.343 105.976 154.102 105.976 173.607Z" fill="black"/>
<path d="M421.319 76.5993C421.319 77.116 421.707 77.5035 422.094 77.6326C423.127 77.891 426.999 77.891 428.161 77.5035C428.677 77.3743 429.193 76.9868 429.193 76.3409C429.581 66.0072 429.581 55.9318 429.193 46.3731C429.193 45.7272 428.677 45.3397 428.161 45.2105C426.87 44.823 422.352 44.5646 420.932 45.0813C420.416 45.2105 420.029 45.7272 420.029 46.2439C419.77 56.061 420.158 66.1364 421.319 76.5993Z" fill="#F69276"/>
<path d="M414.996 85.7701C415.125 85.7701 415.254 85.7701 415.512 85.641L424.29 81.2491C426.355 80.2157 427.646 78.149 427.646 75.8239L427.517 43.4017C427.517 42.11 426.484 41.0767 425.193 41.0767H401.055C400.41 41.0767 400.022 41.5933 400.022 42.11C400.022 42.7559 400.539 43.1434 401.055 43.1434H425.193C425.322 43.1434 425.322 43.2726 425.322 43.2726L425.451 75.6947C425.451 77.2448 424.548 78.5365 423.257 79.1824L414.48 83.5742C413.963 83.8326 413.705 84.4784 413.963 84.9951C414.221 85.641 414.609 85.7701 414.996 85.7701Z" fill="#F69276"/>
<path d="M221.761 127.105C221.761 127.105 225.117 127.105 230.281 127.105H250.805C266.165 127.105 269.779 134.726 279.202 153.456L309.02 153.327C309.02 153.327 309.02 151.131 309.02 147.385L422.869 147.126C423.386 137.697 424.418 118.579 424.418 100.495C424.418 99.8494 424.418 99.3327 424.418 98.6868C424.418 93.52 423.515 87.8364 421.966 82.1528C415.899 59.9353 400.538 36.2968 394.213 27.6423C392.148 24.8005 390.341 22.3463 388.792 20.1504C384.403 14.3376 381.434 11.3667 375.884 11.3667L237.896 11.7542C235.057 11.7542 232.475 13.6918 231.701 16.4044C219.825 60.0645 221.632 93.2616 221.761 127.105ZM338.063 27.1256C337.934 26.4798 338.45 25.9631 339.096 25.9631L381.047 25.8339C383.5 25.8339 385.952 27.1257 387.501 29.3216C403.894 51.6683 410.478 72.0774 412.93 83.8321L415.512 96.2326C415.899 98.041 414.737 99.4619 412.93 99.4619H402.733C401.055 99.4619 399.248 98.6868 397.957 97.3951L377.046 77.3735C374.722 75.1776 371.624 73.8859 368.655 73.8859H343.614L338.063 27.1256Z" fill="#F36F49"/>
<path d="M316.376 82.541C317.28 86.6745 318.312 90.9372 319.216 95.4583C319.861 98.5584 322.572 100.754 325.67 100.883C366.459 102.304 400.279 102.434 424.417 100.625C424.417 99.9793 424.417 99.4626 424.417 98.8167C424.417 93.6498 423.513 87.9663 421.964 82.2827L316.376 82.541Z" fill="#F6977C"/>
<path d="M240.993 26.0926L282.945 25.9634C285.397 25.9634 287.592 27.2551 288.753 29.451C300.5 51.7978 302.952 72.2069 302.952 83.9616V96.3621C302.952 98.1705 301.532 99.5914 299.725 99.5914H289.528C287.85 99.5914 286.172 98.8164 285.139 97.5246L268.359 77.503C266.422 75.3071 263.712 73.8862 260.743 74.0154H235.701L239.703 27.2551C239.703 26.6092 240.219 26.0926 240.993 26.0926Z" fill="#F36F49"/>
<path d="M221.761 127.105C221.761 127.105 225.117 127.105 230.281 127.105H250.805C266.165 127.105 269.779 134.726 279.202 153.456L309.02 153.327C309.02 153.327 309.02 151.131 309.02 147.385L422.869 147.126C423.386 137.697 424.418 118.579 424.418 100.495C400.28 102.304 366.332 102.304 325.671 100.754C322.574 100.624 319.863 98.4285 319.217 95.3284C318.314 90.8074 317.281 86.4155 316.378 82.4112C310.827 58.7728 304.76 41.8512 296.757 23.5088C296.112 22.088 297.145 20.4087 298.694 20.4087L388.792 20.1504C384.403 14.3376 381.434 11.3667 375.884 11.3667L237.896 11.7542C235.057 11.7542 232.475 13.6918 231.701 16.4044C219.825 60.0645 221.632 93.2616 221.761 127.105ZM235.573 74.015L239.574 27.2548C239.574 26.609 240.22 26.0923 240.865 26.0923L282.817 25.9631C285.269 25.9631 287.463 27.2548 288.625 29.4508C300.372 51.7975 302.824 72.2066 302.824 83.9612V96.3618C302.824 98.1702 301.404 99.591 299.597 99.591H289.4C287.722 99.591 286.044 98.816 285.011 97.5243L268.23 77.5027C266.294 75.3067 263.584 73.8859 260.615 74.015H235.573Z" fill="#F7A58D"/>
<path d="M226.794 123.747C226.794 125.684 228.343 127.105 230.279 127.105H250.803C266.164 127.105 269.778 134.726 279.201 153.456L309.019 153.327C309.019 153.327 309.019 151.131 309.019 147.385L308.889 95.0705C308.889 69.1069 304.243 52.7021 291.98 26.7386C290.173 22.8634 286.171 20.4092 281.912 20.4092L237.508 20.5383C236.475 20.5383 235.701 21.1842 235.442 22.0884C226.665 55.4147 226.665 109.667 226.794 123.747ZM235.572 74.0155L239.573 27.2553C239.573 26.6094 240.218 26.0927 240.864 26.0927L282.815 25.9636C285.268 25.9636 287.462 27.2553 288.624 29.4512C300.37 51.7979 302.823 72.2071 302.823 83.9617V96.3622C302.823 98.1706 301.403 99.5915 299.596 99.5915H289.398C287.72 99.5915 286.042 98.8165 285.01 97.5247L268.229 77.5031C266.293 75.3072 263.582 73.8863 260.613 74.0155H235.572Z" fill="#F58A6B"/>
<path d="M241.252 27.6426L282.945 27.5135C284.752 27.5135 286.43 28.5468 287.334 30.0969C299.467 53.2187 301.403 73.757 301.403 83.8324V96.2329C301.403 97.1371 300.629 97.9122 299.725 97.9122H289.528C288.237 97.9122 287.075 97.3955 286.301 96.4913L269.52 76.4696C267.326 73.8862 264.099 72.3361 260.614 72.3361H237.379L241.252 27.6426ZM240.993 26.0926C240.348 26.0926 239.703 26.6092 239.703 27.2551L235.701 74.0154H260.743C263.712 74.0154 266.422 75.3071 268.359 77.503L285.139 97.5246C286.172 98.8164 287.85 99.5914 289.528 99.5914H299.725C301.532 99.5914 302.952 98.1705 302.952 96.3621V83.9616C302.952 72.2069 300.5 51.7978 288.753 29.451C287.592 27.2551 285.397 25.9634 282.945 25.9634L240.993 26.0926Z" fill="#F7A58D"/>
<path d="M308.892 122.713V147.385L353.941 147.256C353.425 140.797 352.263 134.597 350.327 128.784C349.552 126.459 347.616 124.78 345.163 124.392C335.224 123.23 322.574 122.713 308.892 122.713ZM400.023 147.256H422.354C422.741 141.83 423.128 133.047 423.515 123.1C418.094 123.359 413.06 123.875 408.542 124.521C406.09 124.909 404.153 126.588 403.379 128.913C401.572 134.597 400.539 140.797 400.023 147.256Z" fill="#F6977C"/>
<path d="M309.02 172.186L413.446 171.928C420.545 171.928 426.354 166.115 426.354 159.011V156.815C426.354 154.748 424.676 153.198 422.74 153.198L309.149 153.456L309.02 172.186Z" fill="#F6977C"/>
<path d="M289.787 172.186H309.02V153.457H279.461L282.688 166.503C283.462 169.861 286.431 172.186 289.787 172.186Z" fill="#F7A58D"/>
<path d="M243.833 103.855C248.222 103.984 256.741 104.888 256.741 107.988C256.741 111.088 249.255 112.122 243.188 112.122C237.121 112.122 236.475 108.763 235.959 107.342C235.572 105.921 235.185 103.725 243.833 103.855Z" fill="#F6977C"/>
<path d="M244.221 107.213C242.156 107.213 239.961 106.567 238.929 105.534C239.703 105.146 240.865 104.759 242.672 104.759C246.028 104.759 251.45 105.146 254.289 106.438C253.902 106.696 252.869 107.213 251.191 107.213C249.126 107.213 246.415 107.213 244.221 107.213Z" fill="#F47B58"/>
<path d="M252.869 109.667C253.644 109.667 254.031 109.797 254.16 109.926C251.837 110.959 247.577 111.347 245.512 111.347C242.543 111.347 240.477 111.347 239.832 110.701C240.348 110.313 241.51 109.667 242.672 109.667C244.221 109.797 251.837 109.667 252.869 109.667Z" fill="#F47B58"/>
<path d="M309.02 147.514C309.02 151.26 309.02 153.456 309.02 153.456L422.482 153.198C422.482 153.198 422.611 151.002 422.869 147.256L309.02 147.514Z" fill="#F58A6B"/>
<g opacity="0.2">
<path d="M357.942 121.421V146.093L396.021 145.964V121.292C396.021 118.321 393.311 115.996 389.954 115.996H363.88C360.653 116.125 357.942 118.58 357.942 121.421Z" fill="#F16036"/>
</g>
<path d="M408.8 145.189H416.803C418.868 145.189 420.676 143.51 420.676 141.314V137.31C420.676 135.243 418.998 133.435 416.803 133.435H408.8C406.735 133.435 404.928 135.114 404.928 137.31V141.314C404.928 143.51 406.735 145.189 408.8 145.189Z" fill="white"/>
<path d="M333.027 145.448H341.03C343.095 145.448 344.902 143.769 344.902 141.573V137.569C344.902 135.502 343.224 133.693 341.03 133.693H333.027C330.961 133.693 329.154 135.373 329.154 137.569V141.573C329.154 143.64 330.832 145.448 333.027 145.448Z" fill="white"/>
<path d="M281.395 76.858C281.395 77.3746 281.783 77.7622 282.17 77.8913C287.204 78.408 292.496 78.408 297.918 77.7622C298.563 77.633 298.951 77.2455 298.951 76.5996C299.338 66.2659 299.338 56.1905 298.951 46.6318C298.951 45.9859 298.434 45.5984 297.918 45.4693C292.367 44.8234 286.817 44.8234 281.008 45.4693C280.492 45.5984 280.105 46.1151 280.105 46.6318C279.717 56.3197 280.234 66.395 281.395 76.858Z" fill="#F7A58D"/>
<path d="M301.402 86.0289C301.789 86.0289 302.177 85.7706 302.306 85.3831C302.564 84.8664 302.306 84.2205 301.789 83.9622L293.012 79.6995C291.721 79.0536 290.818 77.6327 290.818 76.2118L290.688 43.7897C290.688 43.6605 290.818 43.6605 290.818 43.6605H296.239C296.884 43.6605 297.272 43.1438 297.272 42.6271C297.272 41.9813 296.755 41.5938 296.239 41.5938H290.818C289.527 41.5938 288.494 42.6271 288.494 43.9188L288.623 76.341C288.623 78.6661 289.914 80.7329 291.979 81.7663L300.757 86.0289C301.144 86.0289 301.273 86.0289 301.402 86.0289Z" fill="#F69276"/>
<path d="M360.604 173.716L397.134 173.636L397.11 162.657L360.58 162.736L360.604 173.716Z" fill="#F8B4A0"/>
<path opacity="0.6" d="M296.508 23.9C304.511 42.2424 310.449 59.1639 316.128 82.8023L421.716 82.544C415.65 60.3264 400.289 36.688 393.964 28.0335C391.899 25.1917 390.092 22.7374 388.543 20.5415L298.444 20.7999C296.895 20.929 295.862 22.4791 296.508 23.9Z" fill="url(#paint0_linear_523_3)"/>
<path d="M37.6934 173.736C37.6934 189.754 46.8581 202.671 58.2172 202.542C69.5764 202.542 78.612 189.624 78.612 173.607C78.612 157.59 69.4473 144.673 58.0881 144.802C46.729 144.802 37.6934 157.719 37.6934 173.736Z" fill="black"/>
<path d="M58.2166 192.724C65.7033 192.724 71.641 184.199 71.641 173.607C71.641 163.144 65.5742 154.619 58.0875 154.619C50.6008 154.619 44.6631 163.144 44.6631 173.736C44.6631 184.328 50.7299 192.724 58.2166 192.724ZM58.0875 162.369C62.4762 162.369 66.0905 167.407 66.0905 173.607C66.0905 179.807 62.4762 184.974 58.0875 184.974C53.6987 184.974 50.0845 179.936 50.0845 173.736C50.0845 167.407 53.6987 162.369 58.0875 162.369Z" fill="#625C5C"/>
<path d="M58.2165 209C72.0282 209 83.1292 193.112 83.1292 173.736C83.1292 154.231 71.8991 138.472 58.0874 138.472C44.2758 138.472 33.1748 154.36 33.1748 173.736C33.1748 193.241 44.4049 209 58.2165 209ZM58.0874 144.802C69.4466 144.802 78.6113 157.719 78.6113 173.607C78.6113 189.495 69.5756 202.541 58.2165 202.541C46.8574 202.541 37.6926 189.624 37.6926 173.736C37.6926 157.848 46.7283 144.802 58.0874 144.802Z" fill="#424242"/>
<path d="M54.7314 173.736C54.7314 171.024 56.2804 168.957 58.0875 168.957C60.0237 168.957 61.4436 171.153 61.5727 173.736C61.5727 176.449 60.0237 178.516 58.2166 178.516C56.2804 178.516 54.7314 176.32 54.7314 173.736Z" fill="#8B8282"/>
<defs>
<linearGradient id="paint0_linear_523_3" x1="345.764" y1="0.781219" x2="396.316" y2="121.884" gradientUnits="userSpaceOnUse">
<stop stop-color="#F7A58D"/>
<stop offset="0.926161" stop-color="white"/>
</linearGradient>
</defs>
</svg>
