<svg width="212" height="50" viewBox="0 0 212 50" fill="none" xmlns="http://www.w3.org/2000/svg">
<path d="M79.992 40.9999V40.6799L81.304 40.3599C82.1787 40.1679 82.616 39.6346 82.616 38.7599V20.5199H79.896C79.1067 20.5199 78.5413 20.7333 78.2 21.1599C77.8587 21.5653 77.496 22.1306 77.112 22.8559L75.96 25.0959H75.64L75.8 19.8799H94.264L94.392 25.0959H94.072L92.92 22.8559C92.5573 22.1306 92.2053 21.5653 91.864 21.1599C91.5227 20.7333 90.9573 20.5199 90.168 20.5199H87.448V38.7599C87.448 39.6346 87.8853 40.1679 88.76 40.3599L90.072 40.6799V40.9999H79.992ZM95.7665 40.9999V40.6799L96.4385 40.4559C96.8652 40.3066 97.1425 40.1146 97.2705 39.8799C97.3985 39.6239 97.4625 39.2719 97.4625 38.8239V22.0879C97.4625 21.6613 97.3985 21.3306 97.2705 21.0959C97.1638 20.8399 96.9078 20.6373 96.5025 20.4879L95.7665 20.1999V19.8799H104.919C107.436 19.8799 109.367 20.3599 110.711 21.3199C112.055 22.2586 112.727 23.5706 112.727 25.2559C112.727 26.1946 112.375 27.1333 111.671 28.0719C110.967 29.0106 109.857 29.7359 108.343 30.2479L112.791 39.0799C112.983 39.4426 113.196 39.7413 113.431 39.9759C113.687 40.1893 114.017 40.3813 114.423 40.5519L114.839 40.7119V40.9999H109.111L104.375 30.9199H102.199V38.8239C102.199 39.2293 102.263 39.5599 102.391 39.8159C102.519 40.0719 102.785 40.2639 103.191 40.3919L103.959 40.6799V40.9999H95.7665ZM102.199 30.2799H103.735C105.271 30.2799 106.38 29.8746 107.063 29.0639C107.745 28.2319 108.087 27.0053 108.087 25.3839C108.087 23.7413 107.767 22.5253 107.127 21.7359C106.487 20.9253 105.409 20.5199 103.895 20.5199H102.199V30.2799ZM115.725 40.9999V40.6799L116.525 40.3919C116.951 40.2213 117.282 40.0186 117.517 39.7839C117.751 39.5279 117.943 39.1759 118.093 38.7279L124.685 19.8159H127.405L133.901 38.8559C134.071 39.3253 134.263 39.6879 134.477 39.9439C134.69 40.1786 135.021 40.3813 135.469 40.5519L135.853 40.6799V40.9999H127.725V40.6799L128.205 40.5199C128.653 40.3493 128.919 40.1146 129.005 39.8159C129.111 39.4959 129.101 39.1226 128.973 38.6959L127.469 34.0879H120.365L118.829 38.5999C118.679 39.0693 118.626 39.4426 118.669 39.7199C118.733 39.9973 118.989 40.2213 119.437 40.3919L120.141 40.6799V40.9999H115.725ZM120.589 33.4479H127.277L124.045 23.4959L120.589 33.4479ZM136.86 40.9999V40.6799L137.436 40.4879C137.863 40.3386 138.151 40.1359 138.3 39.8799C138.45 39.6239 138.524 39.2826 138.524 38.8559C138.546 37.5759 138.556 36.2853 138.556 34.9839C138.556 33.6826 138.556 32.3813 138.556 31.0799V29.7999C138.556 28.5199 138.556 27.2399 138.556 25.9599C138.556 24.6586 138.546 23.3679 138.524 22.0879C138.524 21.6613 138.46 21.3199 138.332 21.0639C138.226 20.8079 137.97 20.6053 137.564 20.4559L136.86 20.1999V19.8799H152.348L152.572 25.1919H152.252L150.428 21.8319C150.215 21.4266 149.97 21.1066 149.692 20.8719C149.415 20.6373 149.031 20.5199 148.54 20.5199H143.388C143.367 22.0346 143.356 23.5813 143.356 25.1599C143.356 26.7386 143.356 28.3066 143.356 29.8639H146.684C147.175 29.8639 147.538 29.7573 147.772 29.5439C148.007 29.3306 148.231 29.0213 148.444 28.6159L149.116 27.3999H149.436V32.9999H149.116L148.412 31.7839C148.199 31.3999 147.975 31.0906 147.74 30.8559C147.527 30.6213 147.175 30.5039 146.684 30.5039H143.356C143.356 31.9973 143.356 33.4266 143.356 34.7919C143.356 36.1359 143.367 37.4586 143.388 38.7599C143.388 39.5919 143.794 40.1359 144.604 40.3919L145.564 40.6799V40.9999H136.86ZM153.86 40.9999V40.6799L154.5 40.4239C154.927 40.2746 155.204 40.0719 155.332 39.8159C155.482 39.5599 155.556 39.2186 155.556 38.7919V22.0879C155.556 21.6613 155.492 21.3199 155.364 21.0639C155.236 20.8079 154.948 20.6053 154.5 20.4559L153.86 20.1999V19.8799H162.084V20.1999L161.444 20.4559C161.018 20.6053 160.73 20.8079 160.58 21.0639C160.452 21.3199 160.388 21.6613 160.388 22.0879V38.7919C160.388 39.2186 160.452 39.5599 160.58 39.8159C160.73 40.0506 161.018 40.2533 161.444 40.4239L162.084 40.6799V40.9999H153.86ZM173.962 41.5759C171.893 41.5759 170.015 41.1599 168.33 40.3279C166.666 39.4746 165.343 38.2159 164.362 36.5519C163.381 34.8879 162.89 32.8506 162.89 30.4399C162.89 28.6053 163.189 26.9946 163.786 25.6079C164.383 24.2213 165.194 23.0586 166.218 22.1199C167.263 21.1813 168.458 20.4773 169.802 20.0079C171.167 19.5386 172.607 19.3039 174.122 19.3039C175.338 19.3039 176.458 19.4426 177.482 19.7199C178.506 19.9973 179.466 20.3813 180.362 20.8719L180.49 24.8079H180.17L178.57 22.2479C178.357 21.8426 178.122 21.4799 177.866 21.1599C177.61 20.8186 177.29 20.5626 176.906 20.3919C176.586 20.2426 176.266 20.1359 175.946 20.0719C175.647 19.9866 175.263 19.9439 174.794 19.9439C173.557 19.9439 172.426 20.2746 171.402 20.9359C170.399 21.5973 169.589 22.6959 168.97 24.2319C168.373 25.7466 168.074 27.8266 168.074 30.4719C168.074 33.0959 168.362 35.1759 168.938 36.7119C169.514 38.2266 170.293 39.3146 171.274 39.9759C172.277 40.6159 173.397 40.9359 174.634 40.9359C175.317 40.9359 175.861 40.8933 176.266 40.8079C176.671 40.7013 177.077 40.5519 177.482 40.3599C177.887 40.1893 178.197 39.9439 178.41 39.6239C178.623 39.2826 178.815 38.9199 178.986 38.5359L180.394 35.3999H180.714L180.618 39.9759C179.722 40.4453 178.719 40.8293 177.61 41.1279C176.501 41.4266 175.285 41.5759 173.962 41.5759ZM192.064 41.5759C190.762 41.5759 189.504 41.3413 188.288 40.8719C187.093 40.4026 186.016 39.7093 185.056 38.7919C184.117 37.8533 183.37 36.6906 182.816 35.3039C182.261 33.9173 181.984 32.2959 181.984 30.4399C181.984 28.6053 182.261 26.9946 182.816 25.6079C183.37 24.2213 184.128 23.0693 185.088 22.1519C186.048 21.2133 187.125 20.5093 188.32 20.0399C189.536 19.5493 190.784 19.3039 192.064 19.3039C193.365 19.3039 194.613 19.5386 195.808 20.0079C197.024 20.4559 198.101 21.1493 199.04 22.0879C200 23.0053 200.757 24.1679 201.312 25.5759C201.866 26.9626 202.144 28.5839 202.144 30.4399C202.144 32.2533 201.866 33.8639 201.312 35.2719C200.757 36.6586 200 37.8213 199.04 38.7599C198.101 39.6773 197.024 40.3813 195.808 40.8719C194.613 41.3413 193.365 41.5759 192.064 41.5759ZM192.064 40.9039C193.237 40.9039 194.186 40.5946 194.912 39.9759C195.637 39.3359 196.16 38.2586 196.48 36.7439C196.821 35.2079 196.992 33.1066 196.992 30.4399C196.992 27.7519 196.821 25.6506 196.48 24.1359C196.16 22.5999 195.637 21.5226 194.912 20.9039C194.186 20.2639 193.237 19.9439 192.064 19.9439C190.912 19.9439 189.973 20.2639 189.248 20.9039C188.522 21.5226 187.989 22.5999 187.648 24.1359C187.328 25.6506 187.168 27.7519 187.168 30.4399C187.168 33.1066 187.328 35.2079 187.648 36.7439C187.989 38.2586 188.522 39.3359 189.248 39.9759C189.973 40.5946 190.912 40.9039 192.064 40.9039ZM206.488 41.4799C205.72 41.4799 205.069 41.2133 204.536 40.6799C204.002 40.1466 203.736 39.5066 203.736 38.7599C203.736 38.0133 204.002 37.3626 204.536 36.8079C205.069 36.2533 205.72 35.9759 206.488 35.9759C207.256 35.9759 207.906 36.2533 208.44 36.8079C208.973 37.3626 209.24 38.0133 209.24 38.7599C209.24 39.5066 208.973 40.1466 208.44 40.6799C207.906 41.2133 207.256 41.4799 206.488 41.4799Z" fill="#F26E5D"/>
<path opacity="0.4" d="M-1.90735e-06 17L16 17L16 1.90735e-06L-1.90735e-06 17Z" fill="#F16252"/>
<path d="M47 17H16V50L47 17Z" fill="#F3735F"/>
</svg>
