<svg width="212" height="50" viewBox="0 0 212 50" fill="none" xmlns="http://www.w3.org/2000/svg">
<path d="M79.992 41V40.68L81.304 40.36C82.1787 40.168 82.616 39.6346 82.616 38.76V20.52H79.896C79.1067 20.52 78.5413 20.7333 78.2 21.16C77.8587 21.5653 77.496 22.1306 77.112 22.856L75.96 25.096H75.64L75.8 19.88H94.264L94.392 25.096H94.072L92.92 22.856C92.5573 22.1306 92.2053 21.5653 91.864 21.16C91.5227 20.7333 90.9573 20.52 90.168 20.52H87.448V38.76C87.448 39.6346 87.8853 40.168 88.76 40.36L90.072 40.68V41H79.992ZM95.7665 41V40.68L96.4385 40.456C96.8652 40.3066 97.1425 40.1146 97.2705 39.88C97.3985 39.624 97.4625 39.272 97.4625 38.824V22.088C97.4625 21.6613 97.3985 21.3306 97.2705 21.096C97.1638 20.84 96.9078 20.6373 96.5025 20.488L95.7665 20.2V19.88H104.919C107.436 19.88 109.367 20.36 110.711 21.32C112.055 22.2586 112.727 23.5706 112.727 25.256C112.727 26.1946 112.375 27.1333 111.671 28.072C110.967 29.0106 109.857 29.736 108.343 30.248L112.791 39.08C112.983 39.4426 113.196 39.7413 113.431 39.976C113.687 40.1893 114.017 40.3813 114.423 40.552L114.839 40.712V41H109.111L104.375 30.92H102.199V38.824C102.199 39.2293 102.263 39.56 102.391 39.816C102.519 40.072 102.785 40.264 103.191 40.392L103.959 40.68V41H95.7665ZM102.199 30.28H103.735C105.271 30.28 106.38 29.8746 107.063 29.064C107.745 28.232 108.087 27.0053 108.087 25.384C108.087 23.7413 107.767 22.5253 107.127 21.736C106.487 20.9253 105.409 20.52 103.895 20.52H102.199V30.28ZM115.725 41V40.68L116.525 40.392C116.951 40.2213 117.282 40.0186 117.517 39.784C117.751 39.528 117.943 39.176 118.093 38.728L124.685 19.816H127.405L133.901 38.856C134.071 39.3253 134.263 39.688 134.477 39.944C134.69 40.1786 135.021 40.3813 135.469 40.552L135.853 40.68V41H127.725V40.68L128.205 40.52C128.653 40.3493 128.919 40.1146 129.005 39.816C129.111 39.496 129.101 39.1226 128.973 38.696L127.469 34.088H120.365L118.829 38.6C118.679 39.0693 118.626 39.4426 118.669 39.72C118.733 39.9973 118.989 40.2213 119.437 40.392L120.141 40.68V41H115.725ZM120.589 33.448H127.277L124.045 23.496L120.589 33.448ZM136.86 41V40.68L137.436 40.488C137.863 40.3386 138.151 40.136 138.3 39.88C138.45 39.624 138.524 39.2826 138.524 38.856C138.546 37.576 138.556 36.2853 138.556 34.984C138.556 33.6826 138.556 32.3813 138.556 31.08V29.8C138.556 28.52 138.556 27.24 138.556 25.96C138.556 24.6586 138.546 23.368 138.524 22.088C138.524 21.6613 138.46 21.32 138.332 21.064C138.226 20.808 137.97 20.6053 137.564 20.456L136.86 20.2V19.88H152.348L152.572 25.192H152.252L150.428 21.832C150.215 21.4266 149.97 21.1066 149.692 20.872C149.415 20.6373 149.031 20.52 148.54 20.52H143.388C143.367 22.0346 143.356 23.5813 143.356 25.16C143.356 26.7386 143.356 28.3066 143.356 29.864H146.684C147.175 29.864 147.538 29.7573 147.772 29.544C148.007 29.3306 148.231 29.0213 148.444 28.616L149.116 27.4H149.436V33H149.116L148.412 31.784C148.199 31.4 147.975 31.0906 147.74 30.856C147.527 30.6213 147.175 30.504 146.684 30.504H143.356C143.356 31.9973 143.356 33.4266 143.356 34.792C143.356 36.136 143.367 37.4586 143.388 38.76C143.388 39.592 143.794 40.136 144.604 40.392L145.564 40.68V41H136.86ZM153.86 41V40.68L154.5 40.424C154.927 40.2746 155.204 40.072 155.332 39.816C155.482 39.56 155.556 39.2186 155.556 38.792V22.088C155.556 21.6613 155.492 21.32 155.364 21.064C155.236 20.808 154.948 20.6053 154.5 20.456L153.86 20.2V19.88H162.084V20.2L161.444 20.456C161.018 20.6053 160.73 20.808 160.58 21.064C160.452 21.32 160.388 21.6613 160.388 22.088V38.792C160.388 39.2186 160.452 39.56 160.58 39.816C160.73 40.0506 161.018 40.2533 161.444 40.424L162.084 40.68V41H153.86ZM173.962 41.576C171.893 41.576 170.015 41.16 168.33 40.328C166.666 39.4746 165.343 38.216 164.362 36.552C163.381 34.888 162.89 32.8506 162.89 30.44C162.89 28.6053 163.189 26.9946 163.786 25.608C164.383 24.2213 165.194 23.0586 166.218 22.12C167.263 21.1813 168.458 20.4773 169.802 20.008C171.167 19.5386 172.607 19.304 174.122 19.304C175.338 19.304 176.458 19.4426 177.482 19.72C178.506 19.9973 179.466 20.3813 180.362 20.872L180.49 24.808H180.17L178.57 22.248C178.357 21.8426 178.122 21.48 177.866 21.16C177.61 20.8186 177.29 20.5626 176.906 20.392C176.586 20.2426 176.266 20.136 175.946 20.072C175.647 19.9866 175.263 19.944 174.794 19.944C173.557 19.944 172.426 20.2746 171.402 20.936C170.399 21.5973 169.589 22.696 168.97 24.232C168.373 25.7466 168.074 27.8266 168.074 30.472C168.074 33.096 168.362 35.176 168.938 36.712C169.514 38.2266 170.293 39.3146 171.274 39.976C172.277 40.616 173.397 40.936 174.634 40.936C175.317 40.936 175.861 40.8933 176.266 40.808C176.671 40.7013 177.077 40.552 177.482 40.36C177.887 40.1893 178.197 39.944 178.41 39.624C178.623 39.2826 178.815 38.92 178.986 38.536L180.394 35.4H180.714L180.618 39.976C179.722 40.4453 178.719 40.8293 177.61 41.128C176.501 41.4266 175.285 41.576 173.962 41.576ZM192.064 41.576C190.762 41.576 189.504 41.3413 188.288 40.872C187.093 40.4026 186.016 39.7093 185.056 38.792C184.117 37.8533 183.37 36.6906 182.816 35.304C182.261 33.9173 181.984 32.296 181.984 30.44C181.984 28.6053 182.261 26.9946 182.816 25.608C183.37 24.2213 184.128 23.0693 185.088 22.152C186.048 21.2133 187.125 20.5093 188.32 20.04C189.536 19.5493 190.784 19.304 192.064 19.304C193.365 19.304 194.613 19.5386 195.808 20.008C197.024 20.456 198.101 21.1493 199.04 22.088C200 23.0053 200.757 24.168 201.312 25.576C201.866 26.9626 202.144 28.584 202.144 30.44C202.144 32.2533 201.866 33.864 201.312 35.272C200.757 36.6586 200 37.8213 199.04 38.76C198.101 39.6773 197.024 40.3813 195.808 40.872C194.613 41.3413 193.365 41.576 192.064 41.576ZM192.064 40.904C193.237 40.904 194.186 40.5946 194.912 39.976C195.637 39.336 196.16 38.2586 196.48 36.744C196.821 35.208 196.992 33.1066 196.992 30.44C196.992 27.752 196.821 25.6506 196.48 24.136C196.16 22.6 195.637 21.5226 194.912 20.904C194.186 20.264 193.237 19.944 192.064 19.944C190.912 19.944 189.973 20.264 189.248 20.904C188.522 21.5226 187.989 22.6 187.648 24.136C187.328 25.6506 187.168 27.752 187.168 30.44C187.168 33.1066 187.328 35.208 187.648 36.744C187.989 38.2586 188.522 39.336 189.248 39.976C189.973 40.5946 190.912 40.904 192.064 40.904ZM206.488 41.48C205.72 41.48 205.069 41.2133 204.536 40.68C204.002 40.1466 203.736 39.5066 203.736 38.76C203.736 38.0133 204.002 37.3626 204.536 36.808C205.069 36.2533 205.72 35.976 206.488 35.976C207.256 35.976 207.906 36.2533 208.44 36.808C208.973 37.3626 209.24 38.0133 209.24 38.76C209.24 39.5066 208.973 40.1466 208.44 40.68C207.906 41.2133 207.256 41.48 206.488 41.48Z" fill="white"/>
<path opacity="0.4" d="M-1.90735e-06 17L16 17L16 1.90735e-06L-1.90735e-06 17Z" fill="white"/>
<path d="M47 17H16V50L47 17Z" fill="white"/>
</svg>
