<svg width="207" height="497" viewBox="0 0 207 497" fill="none" xmlns="http://www.w3.org/2000/svg">
<path d="M119.379 34.1058H101.274L98.8223 23.1627C98.8223 23.1627 105.989 27.3136 107.686 24.4835C109.383 21.6533 109.006 22.7854 110.704 23.1627C112.401 23.5401 112.401 21.276 114.475 22.5967C116.739 24.1061 120.133 31.2757 119.379 34.1058Z" fill="#6B1912"/>
<path d="M100.709 483.718L122.963 481.831L121.831 454.285L99.3887 456.36L100.709 483.718Z" fill="#D88D6C"/>
<path d="M142.199 479.944C142.199 479.944 127.489 473.152 125.037 468.247C125.037 468.247 120.699 452.398 114.099 460.7C114.099 460.7 107.309 466.171 97.6911 461.832L96.5596 491.831L163.133 491.642C161.435 487.114 159.927 482.02 142.199 479.944Z" fill="url(#paint0_linear_480_524)"/>
<path d="M96.5598 492.02L96.1826 496.736L163.321 496.548C163.321 494.661 163.887 493.718 162.944 491.831L96.5598 492.02Z" fill="#C73E39"/>
<path d="M3.20605 479.944L25.4601 483.718L31.3064 456.926L9.24106 453.153L3.20605 479.944Z" fill="#D88D6C"/>
<path d="M46.0161 479.944C46.0161 479.944 31.3059 473.152 28.8542 468.247C28.8542 468.247 32.2489 455.794 24.328 462.02C24.328 462.02 10.7494 467.115 5.09163 460.888L0.56543 492.02L67.1384 491.831C65.0639 487.114 63.5552 482.02 46.0161 479.944Z" fill="url(#paint1_linear_480_524)"/>
<path d="M0.37715 492.02L0 496.737L67.1388 496.548C67.1388 494.661 67.7046 493.718 66.7617 491.831L0.37715 492.02Z" fill="#C73E39"/>
<path d="M126.734 224.101C126.734 224.101 130.695 337.495 127.111 466.36C127.111 466.36 116.362 476.548 95.9936 469.756C95.9936 469.756 96.1821 326.363 90.7129 269.383C90.7129 269.383 65.0644 377.683 32.6265 471.454C32.6265 471.454 10.9383 475.605 3.20605 463.341C3.20605 463.341 46.9595 311.458 53.3717 224.101H126.734Z" fill="url(#paint2_linear_480_524)"/>
<path d="M126.734 224.101H53.3714C52.8056 230.705 52.2398 237.686 51.2969 244.856C95.0503 245.044 118.247 233.913 126.922 228.818C126.922 225.611 126.734 224.101 126.734 224.101Z" fill="#402B2B" fill-opacity="0.45" style="mix-blend-mode:multiply"/>
<path d="M166.716 145.235C146.537 109.576 130.695 97.5006 130.695 97.5006C122.02 102.406 128.62 135.99 128.62 135.99C134.09 146.745 137.861 156.367 145.971 165.801L166.716 145.235Z" fill="#D1402C"/>
<path d="M130.694 97.5006C130.694 97.5006 129.751 119.198 126.923 223.535C126.923 223.535 101.274 236.554 50.1654 227.498C50.1654 227.498 49.9768 196.178 42.9989 168.442C42.9989 168.442 29.986 116.179 36.5868 100.897C36.5868 100.897 78.2657 75.0483 130.694 97.5006Z" fill="url(#paint3_linear_480_524)"/>
<path d="M91.0901 76.8214L91.4673 90.331C91.4673 90.331 88.2612 95.0478 80.529 95.6138C72.7967 95.9912 69.0249 91.6516 69.0249 91.6516L68.2705 71.5386C77.8887 75.6894 87.3183 77.3875 91.0901 76.8214Z" fill="url(#paint4_linear_480_524)"/>
<path d="M90.3361 71.2748L91.0904 86.1801C87.3186 86.7461 77.8889 85.0481 68.4593 80.8972L67.8936 71.2748H90.3361Z" fill="url(#paint5_linear_480_524)" style="mix-blend-mode:multiply"/>
<path d="M39.2275 130.33C39.2275 130.33 50.3544 155.424 54.3148 166.744C58.2753 177.876 58.2753 222.215 79.0205 230.705C79.0205 230.705 56.9552 229.384 49.9772 227.498C49.9772 227.498 49.6 194.102 42.8107 168.442C42.8107 168.442 38.0959 141.462 36.21 129.198L39.2275 130.33Z" fill="#EE4D47" fill-opacity="0.29" style="mix-blend-mode:multiply"/>
<path d="M53.9375 38.4454C54.3147 38.6341 54.6919 44.6716 54.6919 44.6716L56.2006 57.3128L63.1786 62.7844L67.139 64.4824C67.139 64.4824 72.9854 62.0297 72.231 59.7656C71.4766 57.6902 67.7048 27.8796 66.9504 27.8796C66.1961 27.8796 60.1611 32.2191 60.1611 32.2191L53.9375 38.4454Z" fill="#402B2B"/>
<path d="M109.195 27.1249C110.892 27.1249 108.252 47.8792 108.252 47.8792L105.235 39.5775L103.16 29.5777L109.195 27.1249Z" fill="#402B2B"/>
<path d="M106.366 31.2757L109.572 57.8789C109.572 57.8789 110.704 80.3312 92.2219 81.6519C73.7399 82.784 61.1042 64.4825 61.1042 64.4825C61.1042 64.4825 58.8411 67.124 56.3894 62.5958C54.1263 58.0676 55.635 52.03 58.8411 51.464C62.2357 51.0866 63.7445 52.9733 64.1217 55.8035C64.4989 58.6336 64.8761 60.709 64.8761 60.709L67.7049 60.3317L65.6304 38.4454C65.6304 38.4454 69.968 29.9551 74.8714 28.257C79.7748 26.5589 84.1124 33.3512 84.1124 33.3512C84.1124 33.3512 88.6387 34.2946 92.9763 33.3512C97.3139 32.4078 100.143 31.2757 100.143 31.2757C100.143 31.2757 102.783 32.0304 106.366 31.2757Z" fill="url(#paint6_linear_480_524)"/>
<path d="M92.976 71.4635C86.7525 71.8408 85.8096 64.6712 85.8096 64.6712C85.8096 64.6712 100.142 62.9732 100.52 62.7845C100.52 62.7845 101.651 70.8975 92.976 71.4635Z" fill="#893D43"/>
<path d="M86.3755 66.9353C85.8097 65.6146 85.6211 64.6712 85.6211 64.6712C85.6211 64.6712 99.9541 62.9732 100.331 62.7845C100.331 62.7845 100.52 63.7278 100.331 65.2372L86.3755 66.9353Z" fill="#FFFEFF"/>
<path d="M86.9419 24.4835V5.2386C75.4378 5.80463 63.5565 8.0687 57.7101 15.2383C50.7322 23.7287 54.6927 43.3509 54.6927 43.3509C54.6927 43.3509 63.1793 42.4076 64.688 39.5774C66.1968 36.7473 80.5298 32.7851 91.4682 33.3511C102.407 33.9172 107.687 32.7851 113.156 28.0683C114.288 27.1249 115.231 25.8042 115.985 24.2948H86.9419V24.4835Z" fill="#402B2B"/>
<path d="M53.3716 36.1812C53.3716 36.1812 61.4811 33.5398 75.0597 32.4077C97.8794 22.7853 107.686 24.4834 107.686 24.4834C107.686 24.4834 107.498 17.1251 105.423 12.0309C103.349 6.93667 89.3927 -0.232967 77.7 0.899082C66.0073 2.03113 53.9373 10.7101 52.0514 19.0118C50.5427 25.4268 53.3716 36.1812 53.3716 36.1812Z" fill="url(#paint7_linear_480_524)"/>
<path d="M67.1387 33.3511C69.5904 21.6533 87.1295 15.8044 99.5766 15.9931C111.835 16.1817 120.51 26.3702 121.83 33.3511C122.396 36.1813 120.133 36.5586 119.379 34.1058C118.813 32.4078 117.681 24.2948 106.366 25.2381C95.0504 26.1815 95.6161 36.37 89.9584 37.3133C84.6778 38.2567 78.6428 34.4832 67.1387 33.3511Z" fill="url(#paint8_linear_480_524)"/>
<path d="M105.046 35.9926V34.6719C104.48 34.6719 100.143 34.1058 94.8623 35.2379L95.0509 37.3133C99.3885 35.9926 105.046 35.9926 105.046 35.9926Z" fill="#402B2B"/>
<path d="M73.1743 40.7095C76.5689 38.8227 82.9811 37.8794 82.9811 37.6907L82.2267 35.8039C82.0381 35.8039 76.1918 36.9359 72.4199 39.3888L73.1743 40.7095Z" fill="#402B2B"/>
<path d="M92.0332 47.1245C92.0332 47.1245 92.599 51.0866 94.1078 52.2187C95.6165 53.3507 98.2568 54.2941 98.634 55.2375C99.0112 55.9922 98.2568 57.5016 96.5595 58.0676C94.8621 58.6337 94.6735 59.1997 94.6735 59.1997C94.6735 59.1997 98.0682 59.5771 99.7656 57.5016C101.463 55.4262 99.577 53.7281 97.8796 52.7848C96.1823 51.8414 95.4279 51.464 94.6735 50.898C93.7305 50.332 92.0332 47.1245 92.0332 47.1245Z" fill="#D87C60"/>
<path d="M83.9236 49.1999C83.9236 51.0866 82.6035 52.7847 80.9062 52.7847C79.2088 52.7847 77.8887 51.2753 77.8887 49.1999C77.8887 47.3131 79.2088 45.615 80.9062 45.615C82.6035 45.615 83.9236 47.1244 83.9236 49.1999Z" fill="#402B2B"/>
<path d="M104.669 46.7471C104.669 48.6339 103.349 50.3319 101.651 50.3319C99.9539 50.3319 98.6338 48.8225 98.6338 46.7471C98.6338 44.8604 99.9539 43.1623 101.651 43.1623C103.349 43.351 104.669 44.8604 104.669 46.7471Z" fill="#402B2B"/>
<path d="M197.079 97.3119H80.5293V187.31H197.079V97.3119Z" fill="#8C5E5E"/>
<path d="M197.267 97.3119H154.834V187.31H197.267V97.3119Z" fill="#694646"/>
<path d="M182.746 97.3119H171.808V109.764H182.746V97.3119Z" fill="#A3774A"/>
<path d="M120.134 97.3119H109.195V109.764H120.134V97.3119Z" fill="#A3774A"/>
<path d="M197.268 163.537C197.268 163.537 191.233 167.499 189.536 169.197C187.838 170.895 184.821 187.121 187.838 188.819C190.856 190.517 196.702 188.819 198.588 189.196C200.663 189.574 206.697 185.8 206.697 182.782C206.697 179.763 202.926 159.763 201.983 159.386C201.04 159.009 197.268 156.556 197.268 156.556V163.537Z" fill="#F4A984"/>
<path d="M121.453 162.216H85.0547V179.951H121.453V162.216Z" fill="white"/>
<path fill-rule="evenodd" clip-rule="evenodd" d="M49.2225 185.234C35.4552 165.235 33.5693 104.67 33.5693 104.67C52.4286 107.123 65.0643 132.405 65.0643 132.594L67.8932 168.82L116.024 176.532L118.625 174.103C118.625 174.103 129.752 168.442 138.804 169.386C138.804 169.386 142.953 170.141 142.01 172.593C141.633 173.914 142.388 174.763 143.142 175.612C143.896 176.461 144.651 177.31 144.274 178.631C143.955 179.745 144.241 180.591 144.522 181.423C144.908 182.563 145.284 183.678 144.085 185.423C144.085 185.423 145.594 187.687 143.896 189.763C143.819 189.857 143.738 189.956 143.653 190.061C141.862 192.256 138.367 196.538 137.107 196.178C136.633 196.042 135.529 195.858 134.289 195.652C132.074 195.283 129.428 194.842 129.186 194.479C128.809 193.913 128.432 192.781 130.318 191.649C130.318 191.649 128.243 192.215 125.603 191.838C122.963 191.649 119.191 189.574 119.191 189.574L118.49 188.99C65.5914 193.33 49.2225 185.234 49.2225 185.234Z" fill="url(#paint9_linear_480_524)"/>
<path d="M70.3449 160.141L65.0643 132.405C65.0643 132.405 55.4461 103.35 36.5869 100.897C36.5869 100.897 23.0082 109.387 39.7929 167.122L70.3449 160.141Z" fill="url(#paint10_linear_480_524)"/>
<defs>
<linearGradient id="paint0_linear_480_524" x1="129.846" y1="464.091" x2="129.846" y2="492.749" gradientUnits="userSpaceOnUse">
<stop stop-color="#F4A984"/>
<stop offset="1" stop-color="#EE4D47"/>
</linearGradient>
<linearGradient id="paint1_linear_480_524" x1="33.8519" y1="453.771" x2="33.8519" y2="492.889" gradientUnits="userSpaceOnUse">
<stop stop-color="#F4A984"/>
<stop offset="1" stop-color="#EE4D47"/>
</linearGradient>
<linearGradient id="paint2_linear_480_524" x1="65.9088" y1="153.949" x2="65.9088" y2="472.13" gradientUnits="userSpaceOnUse">
<stop stop-color="#822626"/>
<stop offset="0.943497" stop-color="#402B2B"/>
</linearGradient>
<linearGradient id="paint3_linear_480_524" x1="82.7066" y1="55.3772" x2="82.7066" y2="234.6" gradientUnits="userSpaceOnUse">
<stop stop-color="#F4A984"/>
<stop offset="1" stop-color="#EE4D47"/>
</linearGradient>
<linearGradient id="paint4_linear_480_524" x1="72.1405" y1="89.358" x2="91.2254" y2="97.589" gradientUnits="userSpaceOnUse">
<stop stop-color="#FFB3B6"/>
<stop offset="1" stop-color="#FFC8C1"/>
</linearGradient>
<linearGradient id="paint5_linear_480_524" x1="71.7636" y1="79.8913" x2="90.9563" y2="88.0193" gradientUnits="userSpaceOnUse">
<stop stop-color="#FFB3B6" stop-opacity="0.31"/>
<stop offset="1" stop-color="#FFC8C1"/>
</linearGradient>
<linearGradient id="paint6_linear_480_524" x1="112.03" y1="75.192" x2="107.948" y2="38.7142" gradientUnits="userSpaceOnUse">
<stop stop-color="#FFB3B6"/>
<stop offset="1" stop-color="#FFC8C1"/>
</linearGradient>
<linearGradient id="paint7_linear_480_524" x1="79.6473" y1="-18.2306" x2="79.6473" y2="36.628" gradientUnits="userSpaceOnUse">
<stop stop-color="#F4A984"/>
<stop offset="1" stop-color="#EE4D47"/>
</linearGradient>
<linearGradient id="paint8_linear_480_524" x1="78.2142" y1="10.5566" x2="78.2142" y2="67.5878" gradientUnits="userSpaceOnUse">
<stop stop-color="#F4A984"/>
<stop offset="1" stop-color="#EE4D47"/>
</linearGradient>
<linearGradient id="paint9_linear_480_524" x1="52.1428" y1="157.208" x2="149.911" y2="189.798" gradientUnits="userSpaceOnUse">
<stop stop-color="#FFB3B6"/>
<stop offset="1" stop-color="#FFC8C1"/>
</linearGradient>
<linearGradient id="paint10_linear_480_524" x1="50.8726" y1="81.7098" x2="50.8726" y2="149.604" gradientUnits="userSpaceOnUse">
<stop stop-color="#F4A984"/>
<stop offset="1" stop-color="#EE4D47"/>
</linearGradient>
</defs>
</svg>
