<svg width="203" height="503" viewBox="0 0 203 503" fill="none" xmlns="http://www.w3.org/2000/svg">
<path fill-rule="evenodd" clip-rule="evenodd" d="M94.973 116.912C94.7455 122.601 94.0867 127.643 93.4055 132.856L93.2941 133.71C92.5747 139.228 91.3757 144.745 90.1767 150.263L90.1767 150.263L90.1757 150.268C87.7771 161.306 84.6589 172.105 80.3413 182.904L78.6622 186.983L78.1825 187.943L77.9427 188.423C77.9427 188.522 77.9015 188.58 77.8533 188.649C77.7852 188.745 77.7029 188.862 77.7029 189.143C77.2231 190.343 76.5035 191.542 75.3042 192.742C74.3449 193.942 72.906 194.902 71.467 195.861L71.4663 195.862C70.0271 196.582 68.3482 197.062 66.909 197.302C64.0306 197.542 61.6319 197.062 59.713 196.582C55.8752 195.382 53.2366 193.702 50.5981 191.782C47.96 190.103 45.8017 188.184 43.6433 186.264L43.6421 186.263C35.1722 178.496 28.3176 170.266 21.9468 161.349C17.1546 159.645 13.1789 155.547 13.1789 155.547L18.6539 138.401L13.1795 155.307L0.946289 147.868L4.54429 133.23L18.6964 138.269L18.6962 138.27L28.2904 153.387L28.2355 155.311L28.5306 155.067C30.4495 156.867 32.4284 158.667 34.4072 160.466C36.3861 162.266 38.365 164.066 40.2839 165.866C44.3611 169.465 48.4384 172.584 52.5156 175.703L52.5157 175.703L52.5171 175.704C53.1426 176.122 53.748 176.539 54.345 176.95C55.8081 177.959 57.2203 178.932 58.7535 179.784C60.4335 180.834 62.2973 181.517 63.7011 181.993L64.0306 181.224L65.4697 177.624C68.8278 168.025 71.4663 157.947 73.3852 147.628C73.9006 144.921 74.3469 142.144 74.7983 139.336C75.1871 136.916 75.5798 134.473 76.0238 132.03C76.7434 126.991 77.463 121.471 77.7029 116.672L94.973 116.912ZM64.6583 182.278C65.0692 182.334 65.1797 182.184 64.9899 182.184C64.9239 182.184 64.8033 182.22 64.6583 182.278Z" fill="url(#paint0_linear_480_575)"/>
<path d="M86.2015 94.764C79.0056 96.6838 73.7285 126.68 73.7285 126.68L93.8772 140.358C93.8772 140.358 113.066 110.122 107.55 101.963C101.553 93.5642 96.7556 91.8844 86.2015 94.764Z" fill="#FFEDBA"/>
<path opacity="0.3" d="M86.6819 101.483L81.165 131.719L92.4385 139.398L86.6819 101.483Z" fill="#ED6B57"/>
<path d="M128.045 474.756H104.341L103.06 434.563H126.443L128.045 474.756Z" fill="#FFC3BD"/>
<path d="M104.088 472.583H128.031C128.897 472.583 129.474 473.178 129.762 474.071L132.358 493.702C132.647 495.784 130.916 497.568 128.897 497.568C120.531 497.568 116.492 496.974 106.108 496.974C99.7613 496.974 86.2033 497.568 77.2607 497.568C68.6067 497.568 67.7413 488.348 71.4914 487.753C88.2225 484.184 94.8573 478.83 100.338 474.071C101.492 473.178 102.934 472.583 104.088 472.583Z" fill="#14365B"/>
<path d="M103.06 435.649L103.689 450.857H126.958L126.015 435.649H103.06Z" fill="#F29994"/>
<path d="M100.886 444.635C100.886 444.635 86.877 320.571 85.6776 264.418C85.2891 246.228 87.7388 220.966 90.0229 203.722H128.044L125.541 264.418C123.382 319.611 128.044 444.635 128.044 444.635H100.886Z" fill="url(#paint1_linear_480_575)"/>
<path d="M91.1352 94.2464C91.1352 94.2464 88.0788 103.936 87.3331 112.427C86.5108 121.788 77.5308 138.543 82.7399 148.32C94.9118 164.071 88.8472 188.149 91.1352 202.341C119.679 202.341 149.182 202.341 163.095 202.341C161.895 173.065 161.895 155.067 175.807 94.8347C175.807 94.8347 160.696 91.4752 145.345 90.7553C133.351 90.2754 123.277 89.7954 112.723 90.7553C98.571 91.9552 91.1352 94.2464 91.1352 94.2464Z" fill="#FFEDBA"/>
<path d="M141.987 53.8C139.828 64.3587 137.909 83.5562 145.105 90.5153C145.105 90.5153 142.226 101.074 122.797 101.074C101.21 101.074 112.483 90.5153 112.483 90.5153C124.237 87.6357 123.997 78.9968 121.838 70.8378L141.987 53.8Z" fill="url(#paint2_linear_480_575)"/>
<path d="M133.831 60.7591L122.078 70.8378C122.558 72.7575 123.037 74.6774 123.037 76.5971C127.595 75.8772 133.592 71.0778 134.071 66.2784C134.311 64.1186 134.311 61.9589 133.831 60.7591Z" fill="#F29994"/>
<path d="M105.413 45.1497C97.7157 33.6033 100.144 22.9275 105.413 16.971H126.032C126.719 26.1348 128.094 45.4246 128.094 49.2734C128.094 53.1222 147.796 46.5242 145.963 50.6479C141.381 49.7316 113.111 56.696 105.413 45.1497Z" fill="#0F264C"/>
<path d="M153.021 34.6024C148.943 51.6403 147.504 59.0793 137.19 66.2784C121.599 77.317 101.69 68.4381 100.491 50.4404C99.5314 34.3624 106.487 8.92559 124.477 5.08608C142.707 1.48653 157.339 17.5646 153.021 34.6024Z" fill="url(#paint3_linear_480_575)"/>
<path d="M132.025 446.512H98.0673L95.4551 435.701L133.476 434.563L132.025 446.512Z" fill="#4B2A2A"/>
<path d="M122.079 236.177C114.105 252.132 116.976 277.302 118.268 298.774C119.853 325.099 121.282 347.504 124.717 360.721C127.835 324.485 133.352 280.091 137.43 247.695C135.031 229.218 130.234 219.859 122.079 236.177Z" fill="#EE4D47" fill-opacity="0.29" style="mix-blend-mode:multiply"/>
<path d="M194.853 442.167L172.041 349.83V259.124L165.318 204.265H124.581C119.801 234.682 130.399 317.965 138.908 361.237L165.318 442.167H194.853Z" fill="url(#paint4_linear_480_575)"/>
<path d="M178.015 475.299L171.497 449.228H194.31L198.112 475.299H178.015Z" fill="#FFC3BD"/>
<path d="M169.383 486.588L177.227 474.756H197.957C200.519 476.291 201.684 485.895 202.442 492.341C202.737 494.851 201.175 497.254 198.746 497.951L181.149 503H155.691C153.633 503 151.976 501.311 152.015 499.253C152.015 491.904 164.126 487.201 169.383 486.588Z" fill="#14365B"/>
<path fill-rule="evenodd" clip-rule="evenodd" d="M194.864 453.03L194.31 449.228H171.497L172.448 453.03H194.864Z" fill="#F29994"/>
<path d="M199.376 449.771H165.419L162.807 438.96L200.827 437.821L199.376 449.771Z" fill="#4B2A2A"/>
<circle r="20.6185" transform="matrix(1 0 0 -1 163.146 30.0294)" fill="#0F264C"/>
<path d="M125.965 34.5812C126.219 33.1457 125.685 31.8509 124.772 31.6891C123.859 31.5273 122.913 32.5598 122.658 33.9953C122.404 35.4309 122.938 36.7259 123.852 36.8876C124.765 37.0494 125.711 36.0168 125.965 34.5812Z" fill="#0F264C"/>
<path d="M110.084 31.9628C109.844 33.4026 108.885 34.3625 107.925 34.1225C106.966 33.8825 106.486 32.6826 106.726 31.2428C106.966 29.803 107.926 28.8431 108.885 29.0831C109.844 29.323 110.324 30.5229 110.084 31.9628Z" fill="#0F264C"/>
<path d="M109.365 29.3231L106.247 27.6433C106.007 27.6433 107.446 30.5229 109.365 29.3231Z" fill="#0F264C"/>
<path d="M113.922 35.0823C113.922 35.0823 110.564 40.6016 107.206 43.2412C108.645 45.401 112.003 45.161 112.003 45.161L113.922 35.0823Z" fill="#ED847E"/>
<path d="M120.124 53.2679C119.065 53.2679 118.006 53.268 116.594 52.9231C116.241 52.9231 115.888 52.5782 116.241 52.2333C116.241 51.8885 116.594 51.5436 116.947 51.8885C126.124 53.6128 131.419 48.095 131.419 48.095C131.772 47.7501 132.125 47.7501 132.125 48.095C132.478 48.4398 132.478 48.7847 132.125 48.7847C132.125 48.7847 127.889 53.2679 120.124 53.2679Z" fill="#0F264C"/>
<path d="M162.39 19.3554C170.384 38.4111 153.964 48.157 144.754 50.6479L153.572 33.367L151.808 24.0259C143.775 19.044 129.823 8.8934 138.288 8.14611C148.869 7.21201 159.45 12.3496 162.39 19.3554Z" fill="#D3D86C"/>
<path d="M125.436 3.88633C117.52 8.44574 136.949 51.4003 151.341 45.401C165.733 39.4018 160.936 15.4049 153.98 9.40567C146.784 3.16647 136.469 -2.59284 125.436 3.88633Z" fill="#0F264C"/>
<path d="M159.708 19.0329C169.055 47.0741 149.857 61.4154 139.09 65.0809L149.399 39.6514L147.337 25.9057C137.944 18.5747 121.633 3.63773 131.529 2.53808C143.901 1.16351 156.272 8.72363 159.708 19.0329Z" fill="#0F264C"/>
<path d="M120.879 1.72659C120.879 1.72659 111.284 3.16641 105.048 14.9249C98.5712 26.9234 135.271 3.40638 129.993 1.72659C124.956 0.0468027 120.879 1.72659 120.879 1.72659Z" fill="#0F264C"/>
<path d="M153.741 47.5607C152.301 50.9203 149.663 53.32 146.785 54.5198C142.707 56.1996 140.068 52.6001 140.788 48.2806C141.508 44.4411 144.386 39.1618 148.943 39.1618C153.261 39.1618 155.42 43.4813 153.741 47.5607Z" fill="url(#paint5_linear_480_575)"/>
<path fill-rule="evenodd" clip-rule="evenodd" d="M183.482 113.552C187.56 123.151 190.678 132.75 193.557 142.589C196.435 152.427 198.834 162.506 200.033 173.065C200.273 175.704 200.513 178.344 200.753 181.224V183.384C200.753 183.418 200.757 183.486 200.764 183.584C200.806 184.172 200.924 185.817 200.513 187.463C200.273 188.423 199.793 189.623 199.074 190.583C198.354 191.783 197.395 192.742 196.435 193.462C194.276 194.902 192.357 195.382 190.918 195.622C189.924 195.788 189.045 195.725 188.28 195.67H188.28C187.937 195.645 187.617 195.622 187.32 195.622C186.87 195.509 186.42 195.45 185.995 195.393L185.995 195.393C185.514 195.329 185.064 195.27 184.682 195.142C183.003 194.662 181.563 194.182 180.364 193.702C177.726 192.502 175.327 191.303 172.928 190.103C163.813 184.823 155.658 178.824 147.983 172.105L148.104 171.926C144.843 170.267 142.265 167.164 140.833 165.147L129.753 152.907L136.949 139.469L149.182 147.868L149.182 147.868L155.037 165.677L156.26 166.29C163.864 170.107 171.606 173.994 179.165 177.144C180.672 177.815 182.18 178.368 183.606 178.804C183.467 177.913 183.337 177.031 183.243 176.184C182.523 171.626 181.324 167.068 180.125 162.509L180.124 162.506C179.525 160.226 178.865 157.887 178.205 155.547L178.205 155.547C177.546 153.207 176.886 150.868 176.286 148.588C173.408 139.469 170.05 130.11 166.692 121.231L183.482 113.552Z" fill="#FFC3BD"/>
<path d="M130.473 25.4836C130.233 25.4836 129.993 25.4836 129.753 25.2436C127.115 22.6039 124.236 23.0838 123.997 23.0838C123.517 23.0838 123.037 22.8439 123.037 22.3639C123.037 21.884 123.277 21.4041 123.757 21.4041C123.997 21.4041 127.834 20.6841 130.953 24.0437C131.192 24.2837 131.192 25.0036 130.953 25.2436C130.713 25.4836 130.713 25.4836 130.473 25.4836Z" fill="#0F264C"/>
<path d="M104.328 23.3238C104.088 23.3238 103.848 23.3238 103.848 23.0838C103.608 22.8438 103.608 22.1239 103.848 21.884C106.966 18.5244 110.804 19.2443 111.044 19.2443C111.524 19.2443 111.763 19.7243 111.763 20.2042C111.763 20.6842 111.284 20.9241 110.804 20.9241C110.564 20.9241 107.686 20.4442 105.047 23.0838C104.807 23.3238 104.567 23.3238 104.328 23.3238Z" fill="#0F264C"/>
<path d="M175.807 94.5948C183.003 96.7545 191.639 121.711 191.639 121.711L163.574 141.629C163.574 141.629 153.26 120.991 156.378 111.633C159.736 102.034 167.652 92.1951 175.807 94.5948Z" fill="#FFEDBA"/>
<path d="M92.4324 474.756C89.4569 474.756 86.4814 474.322 84.781 472.585C83.9309 471.717 83.5059 470.414 83.5059 468.677C83.5059 467.809 83.9309 466.94 84.781 466.506C88.6068 464.335 100.934 470.848 102.634 471.717C103.06 471.717 103.059 472.151 103.059 472.585C103.059 473.019 102.634 473.019 102.634 473.019C99.6589 474.322 95.8331 474.756 92.4324 474.756ZM86.9064 468.243C86.4814 468.243 86.0563 468.243 85.6313 468.677C85.2062 468.677 85.206 469.111 85.206 469.546C85.206 470.414 85.2061 471.282 86.0562 472.151C87.7566 473.887 93.2825 474.322 100.084 473.019C95.4079 470.414 89.882 468.243 86.9064 468.243Z" fill="#9FC6FF"/>
<path d="M102.206 473.67C97.9452 472.09 90.7012 465.769 91.1274 462.609C91.1274 461.819 91.9797 461.029 94.1103 460.634C95.8148 460.634 97.0932 461.029 98.3715 461.819C102.207 464.979 103.059 472.88 103.059 472.88C103.059 473.275 103.059 473.275 102.633 473.67H102.206ZM94.5363 461.819H94.1103C92.8319 461.819 92.8317 462.609 92.8317 462.609C92.4056 464.584 97.5191 469.719 101.354 471.695C100.928 469.324 100.076 464.584 97.5192 462.609C96.667 462.214 95.8147 461.819 94.5363 461.819Z" fill="#9FC6FF"/>
<path d="M172.406 477.921C170.074 476.207 167.992 474.153 167.66 471.813C167.494 470.643 167.911 469.377 168.911 468.016C169.411 467.335 170.244 466.9 171.161 467.049C175.409 467.551 181.319 479.754 182.152 481.414C182.485 481.659 182.235 481.999 181.985 482.339C181.735 482.679 181.402 482.435 181.402 482.435C178.32 481.742 175.071 479.879 172.406 477.921ZM171.826 469.634C171.493 469.389 171.16 469.145 170.577 469.24C170.244 468.995 169.993 469.335 169.743 469.676C169.243 470.356 168.743 471.037 168.91 472.207C169.242 474.547 173.323 478.07 179.403 480.966C177.239 476.231 174.158 471.348 171.826 469.634Z" fill="#9FC6FF"/>
<path d="M180.692 482.698C178.262 479.006 176.225 469.881 178.379 467.65C178.834 467.031 179.957 466.902 181.854 467.82C183.19 468.801 183.964 469.847 184.511 471.202C185.697 475.888 181.815 482.57 181.815 482.57C181.587 482.88 181.587 482.88 181.026 482.944L180.692 482.698ZM181.505 468.994L181.171 468.749C180.169 468.012 179.714 468.631 179.714 468.631C178.243 469.934 179.293 476.903 181.161 480.66C182.192 478.557 184.254 474.351 183.388 471.331C182.948 470.53 182.507 469.73 181.505 468.994Z" fill="#9FC6FF"/>
<path d="M164.054 198.022L165.973 204.501C166.213 204.981 165.733 205.461 164.773 205.461H90.6552C89.9356 205.461 89.4559 205.221 89.4559 204.741L88.7363 198.262C88.7363 197.782 89.2161 197.542 89.9357 197.542H162.855C163.574 197.302 164.054 197.542 164.054 198.022Z" fill="#F18069"/>
<path d="M154.459 206.181H156.378C156.858 206.181 157.098 205.941 157.098 205.701L156.138 197.302C156.138 197.062 155.659 196.822 155.419 196.822H153.5C153.02 196.822 152.78 197.062 152.78 197.302L153.74 205.701C153.74 205.941 153.98 206.181 154.459 206.181Z" fill="#6A2828"/>
<path d="M96.173 206.181H98.0921C98.5718 206.181 98.8116 205.941 98.8116 205.701L97.8521 197.302C97.8521 197.062 97.3724 196.822 97.1326 196.822H95.2137C94.734 196.822 94.4941 197.062 94.4941 197.302L95.4535 205.701C95.4535 205.941 95.9332 206.181 96.173 206.181Z" fill="#6A2828"/>
<path d="M125.196 206.181H127.115C127.594 206.181 127.834 205.941 127.834 205.701L126.875 197.302C126.875 197.062 126.395 196.822 126.155 196.822H124.236C123.756 196.822 123.517 197.062 123.517 197.302L124.476 205.701C124.476 205.941 124.956 206.181 125.196 206.181Z" fill="#6A2828"/>
<path d="M125.196 31.9627L122.078 30.2828C122.078 30.5228 123.277 33.4026 125.196 31.9627Z" fill="#0F264C"/>
<defs>
<linearGradient id="paint0_linear_480_575" x1="99.2069" y1="187.586" x2="93.8734" y2="132.621" gradientUnits="userSpaceOnUse">
<stop stop-color="#FFB3B6"/>
<stop offset="1" stop-color="#FFC8C1"/>
</linearGradient>
<linearGradient id="paint1_linear_480_575" x1="104.717" y1="151.301" x2="104.717" y2="451.157" gradientUnits="userSpaceOnUse">
<stop stop-color="#F4A984"/>
<stop offset="1" stop-color="#EE4D47"/>
</linearGradient>
<linearGradient id="paint2_linear_480_575" x1="130.217" y1="95.0908" x2="130.437" y2="31.5086" gradientUnits="userSpaceOnUse">
<stop stop-color="#FFB3B6"/>
<stop offset="1" stop-color="#FFC8C1"/>
</linearGradient>
<linearGradient id="paint3_linear_480_575" x1="156.187" y1="63.0615" x2="149.862" y2="18.1955" gradientUnits="userSpaceOnUse">
<stop stop-color="#FFB3B6"/>
<stop offset="1" stop-color="#FFC8C1"/>
</linearGradient>
<linearGradient id="paint4_linear_480_575" x1="160.26" y1="153.09" x2="160.26" y2="445.818" gradientUnits="userSpaceOnUse">
<stop stop-color="#F4A984"/>
<stop offset="1" stop-color="#EE4D47"/>
</linearGradient>
<linearGradient id="paint5_linear_480_575" x1="154.925" y1="53.0288" x2="153.53" y2="42.362" gradientUnits="userSpaceOnUse">
<stop stop-color="#FFB3B6"/>
<stop offset="1" stop-color="#FFC8C1"/>
</linearGradient>
</defs>
</svg>
