<svg width="1285" height="902" viewBox="0 0 1285 902" fill="none" xmlns="http://www.w3.org/2000/svg">
<path d="M1285 0H0V800H1185C1240.23 800 1285 755.228 1285 700V0Z" fill="url(#paint0_linear_563_296)"/>
<mask id="mask0_563_296" style="mask-type:alpha" maskUnits="userSpaceOnUse" x="0" y="0" width="1285" height="800">
<path d="M1285 0H0V800H1185C1240.23 800 1285 755.228 1285 700V0Z" fill="url(#paint1_linear_563_296)"/>
</mask>
<g mask="url(#mask0_563_296)">
<path d="M1325.57 314.525H1314.74V314.525C1312.5 314.525 1310.68 316.343 1310.68 318.586V562.864C1310.68 565.948 1308.18 568.448 1305.09 568.448V568.448C1302.01 568.448 1299.51 565.948 1299.51 562.864V406.796C1299.51 401.273 1295.03 396.796 1289.51 396.796H1279.05C1273.53 396.796 1269.05 401.273 1269.05 406.796V416.59C1269.05 422.113 1264.57 426.59 1259.05 426.59H1193.07C1188.86 426.59 1185.45 430 1185.45 434.207V438.441C1185.45 440.31 1183.94 441.825 1182.07 441.825V441.825C1180.2 441.825 1178.68 443.34 1178.68 445.21V499.553C1178.68 504.133 1174.97 507.845 1170.39 507.845V507.845C1165.81 507.845 1162.1 511.558 1162.1 516.137V552.354C1162.1 557.877 1157.62 562.354 1152.1 562.354H1151.11C1145.59 562.354 1141.11 566.831 1141.11 572.354V625.329C1141.11 627.385 1139.45 629.052 1137.39 629.052V629.052C1135.33 629.052 1133.67 627.385 1133.67 625.329V318.248C1133.67 316.566 1132.3 315.202 1130.62 315.202V315.202C1128.94 315.202 1127.57 313.838 1127.57 312.156V285.237C1127.57 282.34 1125.23 279.991 1122.33 279.991V279.991C1119.43 279.991 1117.08 277.642 1117.08 274.745V248.673C1117.08 246.71 1115.49 245.119 1113.53 245.119V245.119C1111.57 245.119 1109.98 243.528 1109.98 241.565V220.247C1109.98 214.724 1105.5 210.247 1099.98 210.247H1074.62C1069.1 210.247 1064.62 214.724 1064.62 220.247V241.565C1064.62 243.528 1063.03 245.119 1061.07 245.119V245.119C1059.11 245.119 1057.51 246.71 1057.51 248.673V274.745C1057.51 277.642 1055.17 279.991 1052.27 279.991V279.991C1049.37 279.991 1047.02 282.34 1047.02 285.237V312.325C1047.02 313.727 1045.89 314.863 1044.48 314.863V314.863C1043.08 314.863 1041.95 316 1041.95 317.402V526.638C1041.95 529.909 1039.29 532.561 1036.02 532.561V532.561C1032.75 532.561 1030.1 535.212 1030.1 538.484V621.775C1030.1 625.794 1026.84 629.052 1022.82 629.052H1016.22C1015.85 629.052 1015.55 628.748 1015.55 628.374V628.374C1015.55 628 1015.24 627.697 1014.87 627.697H1012.67C1012.02 627.697 1011.49 627.167 1011.49 626.512V626.512C1011.49 625.858 1012.02 625.327 1012.67 625.327H1013.85C1014.79 625.327 1015.55 624.569 1015.55 623.635V623.635C1015.55 622.7 1014.79 621.942 1013.85 621.942H1012.84C1012.09 621.942 1011.49 621.335 1011.49 620.587V620.587C1011.49 619.84 1012.09 619.233 1012.84 619.233H1013.85C1014.79 619.233 1015.55 618.475 1015.55 617.54V617.54C1015.55 616.605 1014.79 615.848 1013.85 615.848H1012.67C1012.02 615.848 1011.49 615.317 1011.49 614.663V614.663C1011.49 614.008 1012.02 613.478 1012.67 613.478H1013.85C1014.79 613.478 1015.55 612.72 1015.55 611.785V611.785C1015.55 610.85 1014.79 610.092 1013.85 610.092H1012.67C1012.02 610.092 1011.49 609.561 1011.49 608.907V608.907C1011.49 608.253 1012.02 607.722 1012.67 607.722H1013.85C1014.79 607.722 1015.55 606.964 1015.55 606.029V606.029C1015.55 605.094 1014.79 604.336 1013.85 604.336H1012.67C1012.02 604.336 1011.49 603.806 1011.49 603.151V603.151C1011.49 602.497 1012.02 601.966 1012.67 601.966H1013.85C1014.79 601.966 1015.55 601.208 1015.55 600.274V600.274C1015.55 599.339 1014.79 598.581 1013.85 598.581H1012.67C1012.02 598.581 1011.49 598.05 1011.49 597.396V597.396C1011.49 596.741 1012.02 596.211 1012.67 596.211H1013.85C1014.79 596.211 1015.55 595.453 1015.55 594.518V594.518C1015.55 593.583 1014.79 592.825 1013.85 592.825H1012.67C1012.02 592.825 1011.49 592.295 1011.49 591.64V591.64C1011.49 590.986 1012.02 590.455 1012.67 590.455H1013.85C1014.79 590.455 1015.55 589.697 1015.55 588.762V588.762C1015.55 587.827 1014.79 587.07 1013.85 587.07H1012.67C1012.02 587.07 1011.49 586.539 1011.49 585.885V585.885C1011.49 585.23 1012.02 584.7 1012.67 584.7H1013.85C1014.79 584.7 1015.55 583.942 1015.55 583.007V583.007C1015.55 582.072 1014.79 581.314 1013.85 581.314H1012.67C1012.02 581.314 1011.49 580.783 1011.49 580.129V580.129C1011.49 579.475 1012.02 578.944 1012.67 578.944H1013.85C1014.79 578.944 1015.55 578.186 1015.55 577.251V577.251C1015.55 576.316 1014.79 575.558 1013.85 575.558H1012.67C1012.02 575.558 1011.49 575.028 1011.49 574.373V574.373C1011.49 573.719 1012.02 573.188 1012.67 573.188H1013.85C1014.79 573.188 1015.55 572.43 1015.55 571.496V571.496C1015.55 570.561 1014.79 569.803 1013.85 569.803H1013.52C1012.39 569.803 1011.49 568.894 1011.49 567.772V567.094C1011.49 565.972 1012.39 565.063 1013.52 565.063H1013.85C1014.79 565.063 1015.55 564.305 1015.55 563.37V563.37C1015.55 562.435 1014.79 561.677 1013.85 561.677H1012.67C1012.02 561.677 1011.49 561.147 1011.49 560.492V560.492C1011.49 559.838 1012.02 559.307 1012.67 559.307H1013.85C1014.79 559.307 1015.55 558.549 1015.55 557.614V557.614C1015.55 556.679 1014.79 555.922 1013.85 555.922H1012.67C1012.02 555.922 1011.49 555.391 1011.49 554.737V554.737C1011.49 554.082 1012.02 553.552 1012.67 553.552H1013.85C1014.79 553.552 1015.55 552.794 1015.55 551.859V551.859C1015.55 550.924 1014.79 550.166 1013.85 550.166H1012.67C1012.02 550.166 1011.49 549.635 1011.49 548.981V548.981C1011.49 548.327 1012.02 547.796 1012.67 547.796H1013.85C1014.79 547.796 1015.55 547.038 1015.55 546.103V546.103C1015.55 545.168 1014.79 544.41 1013.85 544.41H1012.67C1012.02 544.41 1011.49 543.88 1011.49 543.225V543.225C1011.49 542.571 1012.02 542.04 1012.67 542.04H1013.85C1014.79 542.04 1015.55 541.282 1015.55 540.348V540.348C1015.55 539.413 1014.79 538.655 1013.85 538.655H1012.67C1012.02 538.655 1011.49 538.124 1011.49 537.47V537.47C1011.49 536.815 1012.02 536.285 1012.67 536.285H1013.85C1014.79 536.285 1015.55 535.527 1015.55 534.592V534.592C1015.55 533.657 1014.79 532.899 1013.85 532.899H1012.67C1012.02 532.899 1011.49 532.369 1011.49 531.714V531.714C1011.49 531.06 1012.02 530.529 1012.67 530.529H1013.85C1014.79 530.529 1015.55 529.771 1015.55 528.836V528.836C1015.55 527.901 1014.79 527.144 1013.85 527.144H1012.67C1012.02 527.144 1011.49 526.613 1011.49 525.959V525.959C1011.49 525.304 1012.02 524.774 1012.67 524.774H1013.85C1014.79 524.774 1015.55 524.016 1015.55 523.081V523.081C1015.55 522.146 1014.79 521.388 1013.85 521.388H1012.67C1012.02 521.388 1011.49 520.857 1011.49 520.203V520.203C1011.49 519.549 1012.02 519.018 1012.67 519.018H1013.85C1014.79 519.018 1015.55 518.26 1015.55 517.325V517.325C1015.55 516.39 1014.79 515.632 1013.85 515.632H1012.67C1012.02 515.632 1011.49 515.102 1011.49 514.447V514.447C1011.49 513.793 1012.02 513.262 1012.67 513.262H1013.85C1014.79 513.262 1015.55 512.504 1015.55 511.57V511.57C1015.55 510.635 1014.79 509.877 1013.85 509.877H1012.67C1012.02 509.877 1011.49 509.346 1011.49 508.692V508.692C1011.49 508.037 1012.02 507.507 1012.67 507.507H1013.85C1014.79 507.507 1015.55 506.749 1015.55 505.814V505.814C1015.55 504.879 1014.79 504.121 1013.85 504.121H1012.67C1012.02 504.121 1011.49 503.591 1011.49 502.936V502.936C1011.49 502.282 1012.02 501.751 1012.67 501.751H1013.85C1014.79 501.751 1015.55 500.993 1015.55 500.058V500.058C1015.55 499.123 1014.79 498.366 1013.85 498.366H1012.67C1012.02 498.366 1011.49 497.835 1011.49 497.181V497.181C1011.49 496.526 1012.02 495.996 1012.67 495.996H1013.85C1014.79 495.996 1015.55 495.238 1015.55 494.303V494.303C1015.55 493.368 1014.79 492.61 1013.85 492.61H1013.52C1012.39 492.61 1011.49 491.701 1011.49 490.579V489.224C1011.49 488.102 1012.39 487.193 1013.52 487.193H1013.85C1014.79 487.193 1015.55 486.435 1015.55 485.5V485.5C1015.55 484.565 1014.79 483.807 1013.85 483.807H1012.67C1012.02 483.807 1011.49 483.277 1011.49 482.622V482.622C1011.49 481.968 1012.02 481.437 1012.67 481.437H1013.85C1014.79 481.437 1015.55 480.679 1015.55 479.744V479.744C1015.55 478.81 1014.79 478.052 1013.85 478.052H1012.67C1012.02 478.052 1011.49 477.521 1011.49 476.867V476.867C1011.49 476.212 1012.02 475.682 1012.67 475.682H1013.85C1014.79 475.682 1015.55 474.924 1015.55 473.989V473.989C1015.55 473.054 1014.79 472.296 1013.85 472.296H1012.67C1012.02 472.296 1011.49 471.765 1011.49 471.111V471.111C1011.49 470.457 1012.02 469.926 1012.67 469.926H1013.85C1014.79 469.926 1015.55 469.168 1015.55 468.233V468.233C1015.55 467.298 1014.79 466.54 1013.85 466.54H1013.52C1012.39 466.54 1011.49 465.631 1011.49 464.51V462.308C1011.49 461.467 1010.8 460.785 1009.96 460.785V460.785C1009.12 460.785 1008.44 460.103 1008.44 459.262V457.061C1008.44 455.004 1006.77 453.336 1004.71 453.336H1004.38C1002.13 453.336 1000.32 451.518 1000.32 449.275V438.438C1000.32 436.756 998.953 435.392 997.27 435.392V435.392C995.588 435.392 994.224 434.029 994.224 432.346V420.761C994.224 416.06 990.95 411.994 986.357 410.991L975.609 408.646V408.646C973.034 408.051 971.209 405.758 971.209 403.114V371.572C971.209 370.918 970.679 370.388 970.025 370.388V370.388C969.371 370.388 968.84 370.918 968.84 371.572V403.473C968.84 405.429 967.024 406.879 965.117 406.445V406.445C963.21 406.012 961.394 407.461 961.394 409.417V432.854C961.394 434.256 960.258 435.392 958.856 435.392V435.392C957.454 435.392 956.318 436.529 956.318 437.931V449.275C956.318 451.518 954.499 453.336 952.256 453.336H951.411C949.635 453.336 948.195 454.776 948.195 456.553V458.246C948.195 459.087 947.513 459.769 946.672 459.769V459.769C945.831 459.769 945.149 460.451 945.149 461.292V462.647C945.149 464.236 943.86 465.525 942.271 465.525H912.503C906.981 465.525 902.503 470.002 902.503 475.525V493.105C902.503 498.628 898.026 503.105 892.503 503.105H867.83C866.588 503.105 865.357 503.337 864.2 503.788L833.797 515.632V515.632C832.775 516.041 832.105 517.031 832.105 518.132V529.853C832.105 531.348 833.317 532.561 834.813 532.561H835.489C836.611 532.561 837.52 533.47 837.52 534.592V534.592C837.52 535.714 836.611 536.623 835.489 536.623H834.137C833.015 536.623 832.105 537.533 832.105 538.655V538.655C832.105 539.777 833.015 540.686 834.137 540.686H835.489C836.611 540.686 837.52 541.596 837.52 542.718V542.718C837.52 543.839 836.611 544.749 835.489 544.749H834.137C833.015 544.749 832.105 545.658 832.105 546.78V546.78C832.105 547.902 833.015 548.812 834.137 548.812H835.489C836.611 548.812 837.52 549.721 837.52 550.843V550.843C837.52 551.965 836.611 552.874 835.489 552.874H834.137C833.015 552.874 832.105 553.784 832.105 554.906V554.906C832.105 556.028 833.015 556.937 834.137 556.937H835.489C836.611 556.937 837.52 557.847 837.52 558.969V558.969C837.52 560.091 836.611 561 835.489 561H834.137C833.015 561 832.105 561.91 832.105 563.031V563.031C832.105 564.153 833.015 565.063 834.137 565.063H835.997C836.838 565.063 837.52 565.745 837.52 566.586V566.586C837.52 567.428 836.838 568.11 835.997 568.11H805.219C801.036 568.11 797.295 565.507 795.842 561.585L787.79 539.855C786.389 536.076 781.041 536.082 779.65 539.865V539.865C777.954 544.477 770.828 543.154 770.838 538.24C770.845 534.879 770.845 531.519 770.845 528.159C770.845 523.419 770.845 518.679 770.845 513.939C770.845 500.397 770.845 486.854 770.507 473.312C770.507 467.556 770.168 461.462 770.168 455.706C769.83 443.179 769.491 430.652 768.814 417.787C768.476 411.693 768.476 405.599 768.137 399.504C767.461 387.655 767.122 376.144 766.445 364.294C766.445 362.939 766.107 361.585 766.107 360.231C765.43 349.735 764.753 339.578 764.076 329.083C762.722 310.123 761.03 291.164 759.338 272.204C759.214 270.475 759.046 268.701 758.865 266.915C758.337 261.695 753.919 257.646 748.672 257.646H685.252C680.398 257.646 676.078 261.256 676.078 266.11V266.11C675.74 270.173 675.401 274.235 675.063 278.298C674.724 281.684 674.386 285.408 674.047 288.794C673.371 295.226 673.032 301.659 672.355 308.092C672.017 311.139 672.017 313.848 671.678 316.895C671.34 322.312 671.001 327.729 670.325 333.146C669.986 335.516 669.986 337.886 669.986 339.917C669.648 347.027 668.971 354.137 668.632 360.908C668.632 363.278 668.294 365.648 668.294 368.018C667.955 375.466 667.617 382.576 667.278 390.025C667.278 391.718 666.94 393.072 666.94 394.765C666.602 401.536 666.263 408.646 665.925 415.417C665.925 416.771 665.925 418.126 665.925 419.48C665.586 427.267 665.248 435.054 665.248 442.841C665.248 444.534 665.248 445.888 665.248 447.581C664.909 455.706 664.909 463.832 664.571 471.619V472.635C664.571 480.76 664.233 488.886 664.233 496.673C664.233 497.688 664.233 498.704 664.233 499.72C664.233 507.845 664.233 515.971 664.233 524.096C664.233 525.112 664.233 526.466 664.233 527.482C664.233 529.894 664.233 532.307 664.233 534.763C664.233 538.782 660.975 542.04 656.956 542.04V542.04C652.937 542.04 649.679 545.298 649.679 549.317V630.578C649.679 635.345 645.815 639.208 641.048 639.208H633.264C632.797 639.208 632.418 638.83 632.418 638.362V638.362C632.418 637.895 632.797 637.516 633.264 637.516H633.941C634.782 637.516 635.464 636.834 635.464 635.993V635.315C635.464 634.473 634.782 633.792 633.941 633.792V633.792C633.1 633.792 632.418 633.11 632.418 632.268V630.913C632.418 630.072 633.1 629.39 633.941 629.39V629.39C634.782 629.39 635.464 628.708 635.464 627.867V627.189C635.464 626.348 634.782 625.666 633.941 625.666V625.666C633.1 625.666 632.418 624.984 632.418 624.143V622.449C632.418 621.608 633.1 620.926 633.941 620.926V620.926C634.782 620.926 635.464 620.244 635.464 619.403V618.725C635.464 617.884 634.782 617.202 633.941 617.202V617.202C633.1 617.202 632.418 616.52 632.418 615.679V613.985C632.418 613.144 633.1 612.462 633.941 612.462V612.462C634.782 612.462 635.464 611.78 635.464 610.939V610.261C635.464 609.42 634.782 608.738 633.941 608.738V608.738C633.1 608.738 632.418 608.056 632.418 607.215V605.521C632.418 604.68 633.1 603.998 633.941 603.998V603.998C634.782 603.998 635.464 603.316 635.464 602.475V601.797C635.464 600.955 634.782 600.274 633.941 600.274V600.274C633.1 600.274 632.418 599.592 632.418 598.75V597.057C632.418 596.216 633.1 595.534 633.941 595.534V595.534C634.782 595.534 635.464 594.852 635.464 594.011V593.332C635.464 592.491 634.782 591.809 633.941 591.809V591.809C633.1 591.809 632.418 591.128 632.418 590.286V588.593C632.418 587.751 633.1 587.07 633.941 587.07V587.07C634.782 587.07 635.464 586.388 635.464 585.546V584.868C635.464 584.027 634.782 583.345 633.941 583.345V583.345C633.1 583.345 632.418 582.663 632.418 581.822V580.128C632.418 579.287 633.1 578.605 633.941 578.605V578.605C634.782 578.605 635.464 577.924 635.464 577.082V576.404C635.464 575.563 634.782 574.881 633.941 574.881V574.881C633.1 574.881 632.418 574.199 632.418 573.358V571.664C632.418 570.823 633.1 570.141 633.941 570.141V570.141C634.782 570.141 635.464 569.459 635.464 568.618V567.94C635.464 567.099 634.782 566.417 633.941 566.417V566.417C633.1 566.417 632.418 565.735 632.418 564.894V563.2C632.418 562.359 633.1 561.677 633.941 561.677V561.677C634.782 561.677 635.464 560.995 635.464 560.154V559.476C635.464 558.635 634.782 557.953 633.941 557.953V557.953C633.1 557.953 632.418 557.271 632.418 556.43V554.736C632.418 553.895 633.1 553.213 633.941 553.213V553.213C634.782 553.213 635.464 552.531 635.464 551.69V549.658C635.464 548.816 634.782 548.135 633.941 548.135V548.135C633.1 548.135 632.418 547.453 632.418 546.611V544.918C632.418 544.077 633.1 543.395 633.941 543.395V543.395C634.782 543.395 635.464 542.713 635.464 541.872V541.194C635.464 540.352 634.782 539.67 633.941 539.67V539.67C633.1 539.67 632.418 538.989 632.418 538.147V536.115C632.418 535.274 633.1 534.592 633.941 534.592V534.592C634.782 534.592 635.464 533.91 635.464 533.069V532.391C635.464 531.55 634.782 530.868 633.941 530.868V530.868C633.1 530.868 632.418 530.186 632.418 529.345V527.651C632.418 526.81 633.1 526.128 633.941 526.128V526.128C634.782 526.128 635.464 525.446 635.464 524.605V523.927C635.464 523.086 634.782 522.404 633.941 522.404V522.404C633.1 522.404 632.418 521.722 632.418 520.881V519.187C632.418 518.346 633.1 517.664 633.941 517.664V517.664C634.782 517.664 635.464 516.982 635.464 516.141V515.463C635.464 514.621 634.782 513.939 633.941 513.939V513.939C633.1 513.939 632.418 513.258 632.418 512.416V510.723C632.418 509.881 633.1 509.2 633.941 509.2V509.2C634.782 509.2 635.464 508.518 635.464 507.677V506.998C635.464 506.157 634.782 505.475 633.941 505.475V505.475C633.1 505.475 632.418 504.793 632.418 503.952V502.259C632.418 501.417 633.1 500.735 633.941 500.735V500.735C634.782 500.735 635.464 500.054 635.464 499.212V498.534C635.464 497.693 634.782 497.011 633.941 497.011V497.011C633.1 497.011 632.418 496.329 632.418 495.488V493.794C632.418 492.953 633.1 492.271 633.941 492.271V492.271C634.782 492.271 635.464 491.589 635.464 490.748V490.07C635.464 489.229 634.782 488.547 633.941 488.547V488.547C633.1 488.547 632.418 487.865 632.418 487.024V485.33C632.418 484.489 633.1 483.807 633.941 483.807V483.807C634.782 483.807 635.464 483.125 635.464 482.284V481.606C635.464 480.765 634.782 480.083 633.941 480.083V480.083C633.1 480.083 632.418 479.401 632.418 478.56V476.866C632.418 476.025 633.1 475.343 633.941 475.343V475.343C634.782 475.343 635.464 474.661 635.464 473.82V471.788C635.464 470.946 634.782 470.265 633.941 470.265V470.265C633.1 470.265 632.418 469.583 632.418 468.742V467.048C632.418 466.207 633.1 465.525 633.941 465.525V465.525C634.782 465.525 635.464 464.843 635.464 464.002V463.324C635.464 462.482 634.782 461.8 633.941 461.8V461.8C633.1 461.8 632.418 461.119 632.418 460.277V458.584C632.418 457.742 633.1 457.061 633.941 457.061V457.061C634.782 457.061 635.464 456.379 635.464 455.537V454.859C635.464 454.018 634.782 453.336 633.941 453.336V453.336C633.1 453.336 632.418 452.654 632.418 451.813V450.12C632.418 449.278 633.1 448.596 633.941 448.596V448.596C634.782 448.596 635.464 447.915 635.464 447.073V446.395C635.464 445.554 634.782 444.872 633.941 444.872V444.872C633.1 444.872 632.418 444.19 632.418 443.349V437.931C632.418 437.09 633.1 436.408 633.941 436.408V436.408C634.782 436.408 635.464 435.726 635.464 434.885V433.869C635.464 432.466 634.327 431.33 632.925 431.33H628.019C626.71 431.33 625.649 430.269 625.649 428.96V428.402C625.649 427.401 626.46 426.59 627.461 426.59V426.59C628.951 426.59 629.805 424.893 628.917 423.697L616.775 407.337C615.331 405.392 613.051 404.244 610.628 404.244H610.421C606.307 404.244 602.972 400.91 602.972 396.796V396.796V396.796C602.972 396.048 602.295 395.174 602.295 394.426V374.958C602.295 374.304 601.765 373.774 601.111 373.774V373.774C600.457 373.774 599.926 374.304 599.926 374.958V394.479C599.926 395.198 599.25 396.077 599.25 396.796V396.796V396.796C599.25 400.91 595.915 404.244 591.801 404.244H591.594C589.171 404.244 586.89 405.392 585.446 407.338L572.634 424.601C572.024 425.423 572.611 426.59 573.635 426.59V426.59C574.323 426.59 574.881 427.148 574.881 427.836V428.96C574.881 430.269 573.82 431.33 572.511 431.33H567.605C566.203 431.33 565.066 432.466 565.066 433.869V434.547C565.066 435.575 565.899 436.408 566.927 436.408V436.408C567.955 436.408 568.789 437.242 568.789 438.27V443.011C568.789 444.039 567.955 444.872 566.927 444.872V444.872C565.899 444.872 565.066 445.706 565.066 446.734V446.734C565.066 447.762 565.899 448.596 566.927 448.596V448.596C567.955 448.596 568.789 449.43 568.789 450.458V451.475C568.789 452.503 567.955 453.336 566.927 453.336V453.336C565.899 453.336 565.066 454.17 565.066 455.198V455.198C565.066 456.227 565.899 457.061 566.927 457.061V457.061C567.955 457.061 568.789 457.894 568.789 458.922V459.939C568.789 460.967 567.955 461.8 566.927 461.8V461.8C565.899 461.8 565.066 462.634 565.066 463.663V463.663C565.066 464.691 565.899 465.525 566.927 465.525V465.525C567.955 465.525 568.789 466.358 568.789 467.386V468.403C568.789 469.431 567.955 470.265 566.927 470.265V470.265C565.899 470.265 565.066 471.099 565.066 472.127V472.127C565.066 473.155 565.899 473.989 566.927 473.989V473.989C567.955 473.989 568.789 474.822 568.789 475.85V476.867C568.789 477.895 567.955 478.729 566.927 478.729V478.729C565.899 478.729 565.066 479.563 565.066 480.591V480.591C565.066 481.619 565.899 482.453 566.927 482.453V482.453C567.955 482.453 568.789 483.286 568.789 484.314V485.331C568.789 486.359 567.955 487.193 566.927 487.193V487.193C565.899 487.193 565.066 488.027 565.066 489.055V489.055C565.066 490.083 565.899 490.917 566.927 490.917V490.917C567.955 490.917 568.789 491.75 568.789 492.779V493.795C568.789 494.824 567.955 495.657 566.927 495.657V495.657C565.899 495.657 565.066 496.491 565.066 497.519V497.519C565.066 498.547 565.899 499.381 566.927 499.381V499.381C567.955 499.381 568.789 500.215 568.789 501.243V502.26C568.789 503.288 567.955 504.121 566.927 504.121V504.121C565.899 504.121 565.066 504.955 565.066 505.983V505.983C565.066 507.011 565.899 507.845 566.927 507.845V507.845C567.955 507.845 568.789 508.679 568.789 509.707V510.724C568.789 511.752 567.955 512.585 566.927 512.585V512.585C565.899 512.585 565.066 513.419 565.066 514.447V514.447C565.066 515.475 565.899 516.309 566.927 516.309V516.309C567.955 516.309 568.789 517.143 568.789 518.171V519.188C568.789 520.216 567.955 521.049 566.927 521.049V521.049C565.899 521.049 565.066 521.883 565.066 522.911V522.911C565.066 523.94 565.899 524.774 566.927 524.774V524.774C567.955 524.774 568.789 525.607 568.789 526.635V527.652C568.789 528.68 567.955 529.513 566.927 529.513V529.513C565.899 529.513 565.066 530.347 565.066 531.376V531.376C565.066 532.404 565.899 533.238 566.927 533.238V533.238C567.955 533.238 568.789 534.071 568.789 535.099V536.116C568.789 537.144 567.955 537.978 566.927 537.978V537.978C565.899 537.978 565.066 538.812 565.066 539.84V539.84C565.066 540.868 565.899 541.702 566.927 541.702V541.702C567.955 541.702 568.789 542.535 568.789 543.563V544.58C568.789 545.608 567.955 546.442 566.927 546.442V546.442C565.899 546.442 565.066 547.276 565.066 548.304V548.304C565.066 549.332 565.899 550.166 566.927 550.166V550.166C567.955 550.166 568.789 550.999 568.789 552.027V553.044C568.789 554.072 567.955 554.906 566.927 554.906V554.906C565.899 554.906 565.066 555.74 565.066 556.768V556.768C565.066 557.796 565.899 558.63 566.927 558.63H568.281C568.561 558.63 568.789 558.857 568.789 559.138V559.138C568.789 559.418 568.561 559.646 568.281 559.646H550.514C548.083 559.646 546.112 557.675 546.112 555.244V555.244V551.52V546.78V543.056V538.316V534.592V529.852V526.128V521.388V517.664V512.924V509.2V504.46V500.735V495.996V492.271V487.531V483.807V479.067V475.343V470.603V466.879V462.139V458.415V454.013V450.289V445.549V441.825V437.085V433.361V428.621V424.897V420.496V416.771V412.031V408.307V403.567V399.843V395.103V391.379V386.639V382.915V378.175V374.451V369.711V365.987V361.247V357.522V352.783V349.058V344.318V340.594V335.854V332.13V327.39V323.666V318.926L545.939 311.635C545.84 307.468 543.165 303.799 539.228 302.429L529.149 298.922C525.858 297.777 522.421 300.22 522.421 303.705V305.251C522.421 307.194 520.846 308.769 518.903 308.769V308.769C516.932 308.769 515.346 307.15 515.385 305.18L515.829 283.22C515.923 278.558 512.782 274.449 508.257 273.317L486.87 267.969C480.861 266.466 474.945 270.732 474.473 276.908L471.314 318.249L470.976 322.989L470.637 326.713L470.299 331.453L469.96 335.177L469.622 339.917L469.283 343.641L468.945 348.381L468.607 352.105L468.268 356.845L467.93 360.57L467.591 365.309L467.253 369.034L466.914 373.774L466.576 377.498L466.237 382.238L465.899 385.962L465.56 390.702L465.222 394.426L464.884 399.166L464.545 402.89L464.207 407.63L463.868 411.354L463.849 411.618C463.646 414.465 462.235 417.09 459.973 418.831L458.228 420.173C456.002 421.887 454.607 424.465 454.391 427.267V427.267L454.053 430.991L453.715 435.731L453.376 439.455L453.038 444.195L452.699 447.919L452.361 452.659L452.022 456.383L451.684 460.785V460.785C451.684 461.72 450.926 462.478 449.991 462.478H422.085C416.562 462.478 412.085 466.955 412.085 472.478V511.063C412.085 513.961 409.736 516.309 406.839 516.309V516.309C403.942 516.309 401.593 518.658 401.593 521.555V625.668C401.593 629.594 398.411 632.776 394.485 632.776V632.776C390.56 632.776 387.378 629.594 387.378 625.668V209.569C387.378 208.073 386.166 206.861 384.67 206.861V206.861C383.175 206.861 381.963 205.649 381.963 204.153V167.092C381.963 161.569 377.485 157.092 371.963 157.092H314.457C308.934 157.092 304.457 161.569 304.457 167.092V204.492C304.457 205.987 303.245 207.2 301.749 207.2V207.2C300.254 207.2 299.042 208.412 299.042 209.907V390.196C299.042 392.906 296.844 395.103 294.134 395.103H290.242C289.681 395.103 289.226 395.558 289.226 396.119V396.458C289.226 396.832 288.923 397.135 288.549 397.135V397.135C288.176 397.135 287.873 397.438 287.873 397.811V401.536C287.873 401.91 288.176 402.213 288.549 402.213V402.213C288.923 402.213 289.226 402.516 289.226 402.89V403.229C289.226 403.603 288.923 403.906 288.549 403.906V403.906C288.176 403.906 287.873 404.209 287.873 404.583V408.307C287.873 408.681 288.176 408.984 288.549 408.984V408.984C288.923 408.984 289.226 409.287 289.226 409.661V410C289.226 410.374 288.923 410.677 288.549 410.677V410.677C288.176 410.677 287.873 410.98 287.873 411.354V415.079C287.873 415.453 288.176 415.756 288.549 415.756V415.756C288.923 415.756 289.226 416.059 289.226 416.432V416.772C289.226 417.145 288.923 417.448 288.549 417.448V417.448C288.176 417.448 287.873 417.752 287.873 418.125V421.85C287.873 422.224 288.176 422.527 288.549 422.527V422.527C288.923 422.527 289.226 422.83 289.226 423.204V423.543C289.226 423.917 288.923 424.22 288.549 424.22V424.22C288.176 424.22 287.873 424.523 287.873 424.897V428.621C287.873 428.995 288.176 429.298 288.549 429.298V429.298C288.923 429.298 289.226 429.601 289.226 429.975V430.314C289.226 430.688 288.923 430.991 288.549 430.991V430.991C288.176 430.991 287.873 431.294 287.873 431.668V435.393C287.873 435.766 288.176 436.07 288.549 436.07V436.07C288.923 436.07 289.226 436.373 289.226 436.746V437.085C289.226 437.459 288.923 437.762 288.549 437.762V437.762C288.176 437.762 287.873 438.065 287.873 438.439V442.164C287.873 442.538 288.176 442.841 288.549 442.841V442.841C288.923 442.841 289.226 443.144 289.226 443.518V443.857C289.226 444.231 288.923 444.534 288.549 444.534V444.534C288.176 444.534 287.873 444.837 287.873 445.211V448.935C287.873 449.309 288.176 449.612 288.549 449.612V449.612C288.923 449.612 289.226 449.915 289.226 450.289V450.628C289.226 451.002 288.923 451.305 288.549 451.305V451.305C288.176 451.305 287.873 451.608 287.873 451.982V455.707C287.873 456.08 288.176 456.383 288.549 456.383V456.383C288.923 456.383 289.226 456.686 289.226 457.06V457.399C289.226 457.773 288.923 458.076 288.549 458.076V458.076C288.176 458.076 287.873 458.379 287.873 458.753V462.478C287.873 462.852 288.176 463.155 288.549 463.155V463.155C288.923 463.155 289.226 463.458 289.226 463.832V464.171C289.226 464.545 288.923 464.848 288.549 464.848V464.848C288.176 464.848 287.873 465.151 287.873 465.524V469.249C287.873 469.623 288.176 469.926 288.549 469.926V469.926C288.923 469.926 289.226 470.229 289.226 470.603V470.942C289.226 471.316 288.923 471.619 288.549 471.619V471.619C288.176 471.619 287.873 471.922 287.873 472.296V476.02C287.873 476.394 288.176 476.697 288.549 476.697V476.697C288.923 476.697 289.226 477 289.226 477.374V477.713C289.226 478.087 288.923 478.39 288.549 478.39V478.39C288.176 478.39 287.873 478.693 287.873 479.067V482.792C287.873 483.166 288.176 483.469 288.549 483.469V483.469C288.923 483.469 289.226 483.772 289.226 484.146V484.485C289.226 484.858 288.923 485.161 288.549 485.161V485.161C288.176 485.161 287.873 485.465 287.873 485.838V489.563C287.873 489.937 288.176 490.24 288.549 490.24V490.24C288.923 490.24 289.226 490.543 289.226 490.917V491.256C289.226 491.63 288.923 491.933 288.549 491.933V491.933C288.176 491.933 287.873 492.236 287.873 492.61V496.334C287.873 496.708 288.176 497.011 288.549 497.011V497.011C288.923 497.011 289.226 497.314 289.226 497.688V504.798C289.226 505.172 288.923 505.475 288.549 505.475V505.475C288.176 505.475 287.873 505.778 287.873 506.152V509.877C287.873 510.251 288.176 510.554 288.549 510.554V510.554C288.923 510.554 289.226 510.857 289.226 511.231V511.57C289.226 511.944 288.923 512.247 288.549 512.247V512.247C288.176 512.247 287.873 512.55 287.873 512.924V513.77C287.873 514.612 287.19 515.294 286.349 515.294H275.196C269.673 515.294 265.196 510.817 265.196 505.294V413.906C265.196 408.383 260.719 403.906 255.196 403.906H215.628C210.106 403.906 205.628 408.383 205.628 413.906V467.051C205.628 471.818 201.764 475.682 196.998 475.682H190.399C189.277 475.682 188.367 474.772 188.367 473.65V473.65C188.367 472.528 187.458 471.619 186.336 471.619H184.813C182.851 471.619 181.26 470.028 181.26 468.065V340.933V197.042C181.26 195.546 180.048 194.334 178.552 194.334V194.334C177.057 194.334 175.844 193.122 175.844 191.626V118C175.844 112.477 171.367 108 165.844 108H92.0929C86.5701 108 82.0929 112.477 82.0929 118V191.627C82.0929 193.122 80.8807 194.334 79.3853 194.334V194.334C77.89 194.334 76.6777 195.546 76.6777 197.042V555.247C76.6777 558.798 73.7987 561.677 70.2471 561.677V561.677C66.6956 561.677 63.8165 558.798 63.8165 555.247V426.771C63.8165 421.248 59.3394 416.771 53.8165 416.771H51.1401C45.6173 416.771 41.1401 412.294 41.1401 406.771V356.167C41.1401 354.111 39.4733 352.444 37.4172 352.444V352.444C35.361 352.444 33.6942 350.777 33.6942 348.721V333.327C33.6942 327.805 29.2171 323.327 23.6942 323.327H-61.9032C-67.426 323.327 -71.9032 327.805 -71.9032 333.327V348.721C-71.9032 350.777 -73.57 352.444 -75.6262 352.444V352.444C-77.6823 352.444 -79.3491 354.111 -79.3491 356.167V576.392C-79.3491 581.915 -83.8263 586.392 -89.3491 586.392H-93.7178C-99.2406 586.392 -103.718 581.915 -103.718 576.392V445.054C-103.718 439.531 -108.195 435.054 -113.718 435.054H-183.408C-188.931 435.054 -193.408 439.531 -193.408 445.054V520.714C-193.408 526.135 -197.802 530.529 -203.223 530.529V530.529C-208.644 530.529 -213.038 534.924 -213.038 540.344V617.542C-213.038 620.72 -215.614 623.296 -218.792 623.296V623.296C-221.97 623.296 -224.546 620.72 -224.546 617.542V355.83V351.427C-224.546 350.119 -225.606 349.058 -226.915 349.058H-228.268C-228.829 349.058 -229.284 348.604 -229.284 348.043V348.043C-229.284 347.482 -228.829 347.027 -228.268 347.027H-226.915C-225.606 347.027 -224.546 345.966 -224.546 344.658V342.625C-224.546 341.316 -225.606 340.256 -226.915 340.256H-228.268C-228.829 340.256 -229.284 339.801 -229.284 339.24V339.24C-229.284 338.679 -228.829 338.224 -228.268 338.224H-226.915C-225.606 338.224 -224.546 337.164 -224.546 335.855V333.822C-224.546 332.514 -225.606 331.453 -226.915 331.453H-228.268C-228.829 331.453 -229.284 330.998 -229.284 330.437V330.437C-229.284 329.876 -228.829 329.422 -228.268 329.422H-226.915C-225.606 329.422 -224.546 328.361 -224.546 327.052V325.019C-224.546 323.711 -225.606 322.65 -226.915 322.65H-228.607C-228.981 322.65 -229.284 322.347 -229.284 321.973V321.973C-229.284 321.599 -228.981 321.296 -228.607 321.296H-226.746C-225.344 321.296 -224.207 320.159 -224.207 318.758V317.063C-224.207 315.661 -225.344 314.525 -226.746 314.525H-228.268C-228.829 314.525 -229.284 314.07 -229.284 313.509V313.509C-229.284 312.948 -228.829 312.493 -228.268 312.493H-226.746C-225.344 312.493 -224.207 311.357 -224.207 309.955V308.26C-224.207 306.858 -225.344 305.722 -226.746 305.722H-228.268C-228.829 305.722 -229.284 305.267 -229.284 304.706V304.706C-229.284 304.145 -228.829 303.691 -228.268 303.691H-226.746C-225.344 303.691 -224.207 302.554 -224.207 301.152V299.458C-224.207 298.056 -225.344 296.919 -226.746 296.919H-228.268C-228.829 296.919 -229.284 296.465 -229.284 295.904V295.904C-229.284 295.343 -228.829 294.888 -228.268 294.888H-226.746C-225.344 294.888 -224.207 293.751 -224.207 292.349V274.407C-224.207 271.12 -225.858 268.081 -228.324 265.908C-238.463 256.978 -252.68 237.9 -252.976 211.601V210.924V210.076C-252.976 208.488 -254.264 207.2 -255.853 207.2H-256.867C-257.896 207.2 -258.729 208.033 -258.729 209.062V209.062C-258.729 210.09 -259.563 210.924 -260.591 210.924H-262.791C-265.034 210.924 -266.852 209.105 -266.852 206.862V153.536C-266.852 152.695 -267.534 152.013 -268.375 152.013V152.013C-269.216 152.013 -269.898 152.695 -269.898 153.536V210.416C-269.898 210.884 -270.277 211.262 -270.745 211.262V211.262C-271.212 211.262 -271.591 210.884 -271.591 210.416V209.4C-271.591 208.372 -272.424 207.538 -273.453 207.538H-275.821C-276.849 207.538 -277.683 208.372 -277.683 209.4V209.4C-277.683 210.429 -278.516 211.262 -279.545 211.262H-286.651C-287.68 211.262 -288.513 210.429 -288.513 209.4V209.4C-288.513 208.372 -289.347 207.538 -290.375 207.538H-291.559C-293.242 207.538 -294.605 208.902 -294.605 210.584V211.262C-294.605 237.941 -301.965 257.257 -310.531 266.354C-312.823 268.788 -314.574 271.842 -314.574 275.185V288.624C-314.574 288.718 -314.498 288.794 -314.405 288.794V288.794C-314.311 288.794 -314.236 288.87 -314.236 288.963V292.519C-314.236 294.201 -312.872 295.565 -311.19 295.565H-309.159C-308.598 295.565 -308.143 296.02 -308.143 296.581V296.581C-308.143 297.142 -308.598 297.596 -309.159 297.596H-311.19C-312.872 297.596 -314.236 298.96 -314.236 300.643V301.322C-314.236 303.004 -312.872 304.368 -311.19 304.368H-309.159C-308.598 304.368 -308.143 304.822 -308.143 305.383V305.383C-308.143 305.944 -308.598 306.399 -309.159 306.399H-311.359C-313.135 306.399 -314.574 307.839 -314.574 309.614V309.955C-314.574 311.731 -313.135 313.17 -311.359 313.17H-308.821C-308.447 313.17 -308.143 313.474 -308.143 313.848V313.848C-308.143 314.222 -308.447 314.525 -308.821 314.525H-311.359C-313.135 314.525 -314.574 315.964 -314.574 317.74V318.081C-314.574 319.856 -313.135 321.296 -311.359 321.296H-309.159C-308.598 321.296 -308.143 321.751 -308.143 322.312V322.312C-308.143 322.873 -308.598 323.327 -309.159 323.327H-311.359C-313.135 323.327 -314.574 324.767 -314.574 326.543V326.883C-314.574 328.659 -313.135 330.099 -311.359 330.099H-309.159C-308.598 330.099 -308.143 330.553 -308.143 331.114V331.114C-308.143 331.675 -308.598 332.13 -309.159 332.13H-311.359C-313.135 332.13 -314.574 333.57 -314.574 335.345V335.686C-314.574 337.462 -313.135 338.901 -311.359 338.901H-309.159C-308.598 338.901 -308.143 339.356 -308.143 339.917V339.917C-308.143 340.478 -308.598 340.933 -309.159 340.933H-311.359C-313.135 340.933 -314.574 342.372 -314.574 344.148V344.489C-314.574 346.265 -313.135 347.704 -311.359 347.704H-309.159C-308.598 347.704 -308.143 348.159 -308.143 348.72V348.72C-308.143 349.281 -308.598 349.735 -309.159 349.735H-311.528C-313.397 349.735 -314.913 351.251 -314.913 353.12V486.519C-314.913 491.753 -319.155 495.996 -324.389 495.996V495.996C-329.623 495.996 -333.866 500.238 -333.866 505.472V562.864C-333.866 565.761 -336.215 568.11 -339.112 568.11V568.11C-342.009 568.11 -344.358 570.459 -344.358 573.356V626.193C-344.358 628.345 -346.787 629.474 -348.938 629.393V629.393C-349.069 629.388 -349.161 629.381 -349.291 629.362C-349.413 629.345 -349.536 629.328 -349.66 629.31C-353.607 628.758 -356.542 625.414 -356.542 621.429V499.134C-356.542 495.169 -358.885 491.579 -362.514 489.982L-364.694 489.022C-364.898 488.932 -365.119 488.886 -365.342 488.886V488.886H-365.849C-367.251 488.886 -368.388 487.749 -368.388 486.346V484.992C-368.388 484.338 -368.919 483.807 -369.573 483.807V483.807C-370.227 483.807 -370.757 484.338 -370.757 484.992V484.992C-370.757 485.646 -371.288 486.177 -371.942 486.177H-372.085C-372.66 486.177 -373.127 486.643 -373.127 487.218V487.218C-373.127 487.773 -373.562 488.23 -374.116 488.258L-377.979 488.451C-379.022 488.503 -379.896 487.672 -379.896 486.628V486.628C-379.896 485.937 -380.286 485.305 -380.904 484.995L-381.819 484.538C-382.334 484.281 -382.904 484.155 -383.48 484.172L-403.279 484.763C-404.394 484.796 -405.28 485.709 -405.28 486.824V486.824C-405.28 487.963 -406.203 488.886 -407.341 488.886H-407.649C-408.957 488.886 -410.018 489.946 -410.018 491.255V513.758C-410.018 519.281 -414.495 523.758 -420.018 523.758H-437.586C-443.109 523.758 -447.586 519.281 -447.586 513.758V355.49C-447.586 353.06 -449.556 351.09 -451.986 351.09V351.09C-454.416 351.09 -456.386 349.12 -456.386 346.69V317.415C-456.386 311.892 -460.863 307.415 -466.386 307.415H-481.43C-484.608 307.415 -487.185 304.838 -487.185 301.659V301.659C-487.185 298.48 -489.762 295.904 -492.941 295.904H-496.828C-501.97 295.904 -506.139 291.735 -506.139 286.593V286.593C-506.139 281.451 -510.307 277.283 -515.449 277.283H-572.968C-578.49 277.283 -582.968 281.76 -582.968 287.283V297.415C-582.968 302.938 -587.445 307.415 -592.968 307.415H-611.551C-617.074 307.415 -621.551 311.892 -621.551 317.415V609.233C-621.551 614.756 -626.028 619.233 -631.551 619.233H-632.535C-638.058 619.233 -642.535 623.71 -642.535 629.233V638.873C-642.535 644.294 -646.93 648.688 -652.35 648.688V648.688C-657.771 648.688 -662.166 644.294 -662.166 638.873V564.906C-662.166 559.383 -666.643 554.906 -672.166 554.906H-682.626C-688.149 554.906 -692.626 550.429 -692.626 544.906V524.475C-692.626 524.243 -692.757 524.031 -692.965 523.927V523.927C-693.172 523.823 -693.303 523.611 -693.303 523.379V519.834C-693.303 518.427 -693.77 517.06 -694.632 515.947L-699.334 509.871C-700.69 508.119 -701.426 505.966 -701.426 503.75V497.77C-701.426 496.851 -701.791 495.969 -702.441 495.318V495.318C-703.092 494.668 -703.457 493.786 -703.457 492.867V478.221C-703.457 477.94 -703.684 477.713 -703.965 477.713V477.713C-704.245 477.713 -704.472 477.94 -704.472 478.221V493.106C-704.472 493.872 -704.777 494.607 -705.318 495.149V495.149C-705.86 495.691 -706.164 496.426 -706.164 497.192V504.694C-706.164 506.745 -706.795 508.747 -707.971 510.427L-712.193 516.46C-712.895 517.464 -713.272 518.659 -713.272 519.885V521.86C-713.272 522.623 -713.653 523.335 -714.287 523.758V523.758C-714.922 524.181 -715.303 524.893 -715.303 525.655V526.524C-715.303 527.749 -715.945 528.883 -716.995 529.513L-717.412 529.764C-718.203 530.239 -718.687 531.094 -718.687 532.017V532.017C-718.687 532.978 -719.212 533.863 -720.056 534.323L-720.549 534.592C-721.696 535.218 -722.41 536.421 -722.41 537.728V568.757C-722.41 572.586 -725.706 575.583 -729.518 575.22V575.22V575.22C-732.882 575.22 -735.61 572.492 -735.61 569.128V507.35C-735.61 501.827 -740.087 497.35 -745.61 497.35H-767.24C-772.762 497.35 -777.24 501.827 -777.24 507.35V535.087C-777.24 540.61 -781.717 545.087 -787.24 545.087H-793.639C-799.162 545.087 -803.639 549.565 -803.639 555.087V575.39C-803.639 577.166 -805.079 578.605 -806.854 578.605V578.605C-808.63 578.605 -810.07 580.045 -810.07 581.821V619.742C-810.07 621.144 -811.206 622.28 -812.608 622.28V622.28C-814.01 622.28 -815.146 621.144 -815.146 619.742V603.658C-815.146 601.789 -816.662 600.274 -818.531 600.274V600.274C-820.4 600.274 -821.915 598.758 -821.915 596.889V425.078C-821.915 419.556 -826.393 415.078 -831.915 415.078H-879.791C-922.098 415.078 -956.281 444.872 -956.281 487.193V511.049C-956.281 516.572 -960.759 521.049 -966.281 521.049H-970.158C-982.342 521.049 -992.157 542.04 -992.157 553.552V593.321C-992.157 598.843 -996.635 603.321 -1002.16 603.321H-1018.03C-1023.56 603.321 -1028.03 598.843 -1028.03 593.321V555.765C-1028.03 550.242 -1032.51 545.765 -1038.03 545.765H-1042.06C-1047.59 545.765 -1052.06 550.242 -1052.06 555.765V642.765C-1052.06 645.663 -1054.41 648.011 -1057.31 648.011V648.011C-1060.21 648.011 -1062.56 645.663 -1062.56 642.765V594.009C-1062.56 592.42 -1063.84 591.132 -1065.43 591.132V591.132C-1067.02 591.132 -1068.31 589.844 -1068.31 588.255V555.765C-1068.31 550.242 -1072.79 545.765 -1078.31 545.765H-1079.63C-1085.15 545.765 -1089.63 541.287 -1089.63 535.765V500.24C-1089.63 494.717 -1094.11 490.24 -1099.63 490.24H-1126C-1131.52 490.24 -1136 494.717 -1136 500.24V702C-1136 707.523 -1131.52 712 -1126 712H1344C1349.52 712 1354 707.523 1354 702V324.525C1354 319.002 1349.52 314.525 1344 314.525H1325.57ZM945.149 506.322C945.149 506.976 944.618 507.507 943.964 507.507H941.764V507.507C941.577 507.507 941.426 507.355 941.426 507.168V506.322C941.426 505.667 941.956 505.137 942.611 505.137H943.964C944.618 505.137 945.149 505.667 945.149 506.322V506.322ZM945.149 500.566C945.149 501.221 944.618 501.751 943.964 501.751H942.611C941.956 501.751 941.426 501.221 941.426 500.566V500.566C941.426 499.912 941.956 499.381 942.611 499.381H943.964C944.618 499.381 945.149 499.912 945.149 500.566V500.566ZM945.149 494.472C945.149 495.126 944.618 495.657 943.964 495.657H942.611C941.956 495.657 941.426 495.126 941.426 494.472V494.472C941.426 493.818 941.956 493.287 942.611 493.287H943.964C944.618 493.287 945.149 493.818 945.149 494.472V494.472ZM945.149 488.378C945.149 489.032 944.618 489.563 943.964 489.563H942.611C941.956 489.563 941.426 489.032 941.426 488.378V488.378C941.426 487.723 941.956 487.193 942.611 487.193H943.964C944.618 487.193 945.149 487.723 945.149 488.378V488.378ZM945.149 482.284C945.149 482.938 944.618 483.469 943.964 483.469H942.611C941.956 483.469 941.426 482.938 941.426 482.284V482.284C941.426 481.629 941.956 481.099 942.611 481.099H943.964C944.618 481.099 945.149 481.629 945.149 482.284V482.284ZM945.149 476.189C945.149 476.844 944.618 477.374 943.964 477.374H942.611C941.956 477.374 941.426 476.844 941.426 476.189V476.189C941.426 475.535 941.956 475.005 942.611 475.005H943.964C944.618 475.005 945.149 475.535 945.149 476.189V476.189ZM945.149 470.434C945.149 471.088 944.618 471.619 943.964 471.619H942.611C941.956 471.619 941.426 471.088 941.426 470.434V470.434C941.426 469.779 941.956 469.249 942.611 469.249H943.964C944.618 469.249 945.149 469.779 945.149 470.434V470.434Z" fill="url(#paint2_linear_563_296)"/>
<path d="M1098.89 495.501C1040.11 495.501 992.564 596.395 992.564 720.746H1205.33C1205.33 596.269 1157.66 495.501 1098.89 495.501Z" fill="url(#paint3_linear_563_296)"/>
<path d="M1098.89 495.501C1040.11 495.501 992.564 596.395 992.564 720.746H1205.33C1205.33 596.269 1157.66 495.501 1098.89 495.501Z" fill="url(#paint4_linear_563_296)"/>
<mask id="mask1_563_296" style="mask-type:alpha" maskUnits="userSpaceOnUse" x="992" y="495" width="214" height="226">
<path d="M1098.89 495.501C1040.11 495.501 992.564 596.395 992.564 720.746H1205.33C1205.33 596.269 1157.66 495.501 1098.89 495.501Z" fill="url(#paint5_linear_563_296)"/>
</mask>
<g mask="url(#mask1_563_296)">
<path opacity="0.2" d="M1009.25 515.899C1042.94 500.553 1110.97 475.451 1113.6 497.812C1116.89 525.764 922.149 645.793 988.705 620.307C1055.26 594.822 1112.78 524.942 1127.57 549.605C1142.36 574.269 997.743 676.211 1046.22 671.279C1094.7 666.346 1154.68 552.894 1173.58 570.981C1192.48 589.067 1049.51 714.851 1081.56 725.538C1113.6 736.226 1201.52 557.827 1236.85 553.716" stroke="url(#paint6_linear_563_296)" stroke-width="2"/>
</g>
<path opacity="0.3" d="M1191.54 720.746H1205.33C1205.33 596.269 1157.66 495.501 1098.89 495.501C1096.57 495.501 1094.27 495.658 1091.99 495.966C1147.55 503.484 1191.54 601.176 1191.54 720.746Z" fill="#C9D983"/>
<path d="M1216.82 556.573C1173.82 556.573 1139.01 630.406 1139.01 721.403H1294.64C1294.52 630.406 1259.71 556.573 1216.82 556.573Z" fill="url(#paint7_linear_563_296)"/>
<mask id="mask2_563_296" style="mask-type:alpha" maskUnits="userSpaceOnUse" x="1139" y="556" width="156" height="166">
<path d="M1216.82 556.573C1173.82 556.573 1139.01 630.406 1139.01 721.403H1294.64C1294.52 630.406 1259.71 556.573 1216.82 556.573Z" fill="url(#paint8_linear_563_296)"/>
</mask>
<g mask="url(#mask2_563_296)">
<path opacity="0.2" d="M1192.37 519.142C1161.84 568.873 1112.92 658.132 1161.51 617.321C1222.25 566.306 1280.1 582.669 1256 617.321C1231.89 651.972 1161.51 633.684 1168.26 670.26C1173.66 699.521 1252.14 656.143 1290.7 630.796" stroke="url(#paint9_linear_563_296)" stroke-width="2"/>
</g>
<path opacity="0.3" fill-rule="evenodd" clip-rule="evenodd" d="M1278.23 721.403H1294.64C1294.52 630.406 1259.71 556.573 1216.82 556.573C1214.05 556.573 1211.31 556.881 1208.6 557.481C1247.64 566.178 1278.11 636.281 1278.23 721.403Z" fill="#C9D983"/>
<path d="M910.478 476.457C842.311 476.457 787.02 585.247 787.02 719.433H1033.94C1033.81 585.247 978.645 476.457 910.478 476.457Z" fill="url(#paint10_linear_563_296)"/>
<mask id="mask3_563_296" style="mask-type:alpha" maskUnits="userSpaceOnUse" x="787" y="476" width="247" height="244">
<path d="M910.478 476.457C842.311 476.457 787.02 585.247 787.02 719.433H1033.94C1033.81 585.247 978.645 476.457 910.478 476.457Z" fill="url(#paint11_linear_563_296)"/>
</mask>
<g mask="url(#mask3_563_296)">
<path opacity="0.2" d="M797.526 525.485C810.538 510.129 839.768 482.768 852.594 496.169C868.627 512.921 834.471 570.853 856.777 577.833C879.083 584.813 910.45 475.23 937.636 485.7C964.821 496.169 820.529 665.779 870.718 672.061C920.906 678.343 943.909 526.881 965.518 537.35C987.127 547.82 916.724 629.484 941.121 653.215C965.518 676.947 978.066 565.27 997.583 577.833C1017.1 590.397 1003.16 653.215 984.339 695.792" stroke="url(#paint12_linear_563_296)" stroke-width="2"/>
</g>
<path opacity="0.2" d="M1006.35 719.433H1033.94C1033.81 585.247 978.645 476.457 910.478 476.457C905.816 476.457 901.214 476.966 896.687 477.957C958.352 491.456 1006.24 594.423 1006.35 719.433Z" fill="#C9D983"/>
<path d="M1086.41 570.526H1084.12V718.23H1086.41V570.526Z" fill="#0C5E59"/>
<path d="M1101.91 561.174C1097.01 561.174 1092.45 564.709 1089.26 567.903C1091.42 564.823 1094.39 561.06 1096.67 560.375C1100.66 559.121 1103.85 559.691 1103.85 559.691C1103.85 559.691 1100.2 554.558 1094.73 556.954C1092.33 557.98 1090.28 561.402 1088.8 564.709C1089.6 561.63 1090.28 557.98 1089.71 554.672C1088.34 546.232 1079 545.548 1079 545.548C1079 545.548 1084.24 552.848 1085.15 561.402C1085.27 562.542 1085.38 563.683 1085.49 564.709C1084.7 559.805 1082.76 553.874 1077.97 550.68C1066.11 542.81 1058.7 556.611 1058.7 556.611C1058.7 556.611 1065.43 552.391 1074.32 556.84C1081.39 560.375 1084.35 567.903 1085.27 570.983C1084.13 568.701 1079.22 560.033 1071.47 558.778C1059.73 556.84 1056.76 571.667 1056.76 571.667C1056.76 571.667 1063.49 566.306 1071.81 566.648C1078.31 566.991 1082.87 569.614 1085.15 571.667C1083.9 571.325 1081.28 570.754 1078.08 570.64C1067.71 570.526 1065.54 584.441 1065.54 584.441L1085.27 572.351C1084.35 573.948 1082.64 577.37 1081.73 579.651C1080.36 582.845 1081.28 590.03 1081.28 590.03C1081.28 590.03 1084.47 584.555 1085.38 581.02C1086.29 577.598 1086.06 574.062 1085.95 572.351L1099.29 586.837C1099.29 586.837 1102.59 578.054 1092.45 573.834C1091.08 573.264 1089.94 572.807 1089.03 572.465C1091.42 572.807 1094.39 573.834 1097.46 575.773C1103.28 579.537 1107.04 584.783 1107.04 584.783C1107.04 584.783 1110.69 574.176 1101.8 569.842C1098.83 568.473 1095.53 568.587 1092.68 569.272C1094.84 568.017 1097.69 567.105 1101 567.561C1109.09 568.587 1111.37 574.29 1111.37 574.29C1111.37 574.29 1113.65 561.174 1101.91 561.174Z" fill="url(#paint13_linear_563_296)"/>
<path d="M999.418 479.744H995.77V720.975H999.418V479.744Z" fill="#0C5E59"/>
<path d="M1022.99 458.951C1014.09 458.951 1005.69 465.332 999.841 471.203C1003.78 465.588 1009.26 458.823 1013.45 457.419C1020.58 455.122 1026.56 456.27 1026.56 456.27C1026.56 456.27 1019.81 446.826 1009.89 451.293C1005.44 453.207 1001.75 459.461 999.078 465.46C1000.6 459.844 1001.62 453.207 1000.73 447.081C998.315 431.765 981.14 430.488 981.14 430.488C981.14 430.488 990.682 443.762 992.463 459.461C992.717 461.503 992.844 463.545 992.972 465.46C991.445 456.398 987.883 445.549 979.232 439.806C957.733 425.511 944.248 450.782 944.248 450.782C944.248 450.782 956.588 443.124 972.744 451.293C985.466 457.674 990.936 471.586 992.717 477.074C990.554 472.863 981.776 457.164 967.528 454.739C946.156 451.165 940.686 478.351 940.686 478.351C940.686 478.351 952.898 468.523 968.037 469.161C979.741 469.672 988.265 474.522 992.463 478.351C990.3 477.713 985.339 476.564 979.614 476.564C960.659 476.309 956.715 501.708 956.715 501.708L992.717 479.627C991.19 482.563 988.01 488.689 986.229 493.029C983.812 498.9 985.339 511.918 985.339 511.918C985.339 511.918 991.19 501.963 992.844 495.454C994.498 489.2 994.116 482.69 993.862 479.627L1018.29 506.047C1018.29 506.047 1024.27 489.965 1005.95 482.18C1003.53 481.159 1001.37 480.265 999.714 479.627C1004.17 480.265 1009.51 482.052 1014.98 485.626C1025.67 492.518 1032.41 501.963 1032.41 501.963C1032.41 501.963 1039.02 482.435 1022.74 474.777C1017.4 472.224 1011.29 472.607 1006.07 473.756C1010.02 471.459 1015.11 469.799 1021.34 470.565C1036.1 472.352 1040.17 482.946 1040.17 482.946C1040.17 482.946 1044.37 458.823 1022.99 458.951Z" fill="url(#paint14_linear_563_296)"/>
<g clip-path="url(#clip0_563_296)">
<path d="M1315 672.179H1188.92V725.845H1315V672.179Z" fill="#F9F8EF"/>
<path fill-rule="evenodd" clip-rule="evenodd" d="M1252.66 658.19V658.313C1253.66 655.515 1255.66 651.061 1259.03 644.416C1265.72 631.698 1273.18 621.926 1273.18 621.926C1273.18 621.926 1269.91 632.783 1263.23 645.502C1257.32 656.887 1254.08 661.479 1252.66 662.174V662.823C1254.37 660.563 1258.14 656.686 1264.78 650.62C1275.82 640.693 1286.71 633.559 1286.71 633.559C1286.71 633.559 1279.71 642.71 1268.67 652.792C1262.2 658.618 1257.91 662.113 1255.24 663.906C1257.96 662.215 1262.2 659.897 1268.36 656.824C1282.04 650 1294.48 645.812 1294.48 645.812C1294.48 645.812 1284.84 652.792 1271.16 659.616C1260.74 664.932 1255.1 667.189 1252.66 667.62V668.086C1254.85 666.868 1260.46 664.912 1271.16 661.943C1286.24 657.755 1299.45 655.894 1299.45 655.894C1299.45 655.894 1287.95 661.012 1272.87 665.2C1267.95 666.565 1264.03 667.567 1260.95 668.267C1264.07 667.748 1268.09 667.187 1273.18 666.596C1289.19 664.579 1302.56 664.734 1302.56 664.734C1302.56 664.734 1289.97 668.147 1273.96 670.008C1261.06 671.632 1254.72 671.847 1252.66 671.384V671.714H1251.1V671.492C1250.82 671.575 1250.42 671.645 1249.86 671.714H1245.35C1241.93 671.559 1236.8 671.249 1229.65 670.318C1213.63 668.302 1201.04 665.045 1201.04 665.045C1201.04 665.045 1214.41 664.89 1230.43 666.906C1235.24 667.465 1239.09 667.982 1242.13 668.457C1239.14 667.765 1235.38 666.799 1230.74 665.51C1215.5 661.322 1204.15 656.204 1204.15 656.204C1204.15 656.204 1217.37 658.065 1232.45 662.253C1243.4 665.296 1249.03 667.274 1251.1 668.485V667.938C1248.75 667.543 1243.09 665.238 1232.45 659.926C1218.77 653.102 1209.13 646.122 1209.13 646.122C1209.13 646.122 1221.56 650.31 1235.25 657.134C1241.03 660.018 1245.11 662.236 1247.85 663.896C1245.12 662.021 1240.95 658.599 1234.93 653.102C1223.9 643.02 1216.9 633.869 1216.9 633.869C1216.9 633.869 1227.78 640.849 1238.82 650.93C1243.57 655.266 1246.85 658.484 1248.96 660.792C1247.15 658.439 1244.33 653.785 1240.22 645.967C1233.54 633.249 1230.27 622.391 1230.27 622.391C1230.27 622.391 1237.89 632.163 1244.42 644.881C1248.18 652.216 1250.24 656.92 1251.1 659.648V658.191C1250.27 656.265 1249.7 650.703 1249.7 639.608C1249.7 625.338 1251.88 613.706 1251.88 613.706C1251.88 613.706 1254.06 625.338 1254.06 639.608C1254.06 650.7 1253.49 656.263 1252.66 658.19ZM1251.1 662.732C1250.87 662.713 1250.57 662.538 1250.19 662.186C1250.55 662.614 1250.85 662.998 1251.1 663.342V662.732ZM1251.1 665.675C1250.72 665.575 1250.23 665.36 1249.62 665.015C1250.21 665.411 1250.7 665.765 1251.1 666.077V665.675ZM1252.66 665.646C1253.08 665.321 1253.61 664.953 1254.24 664.541C1253.59 664.928 1253.07 665.182 1252.66 665.315V665.646ZM1251.1 669.882C1250.6 669.916 1249.9 669.881 1248.96 669.767C1249.95 670.021 1250.65 670.259 1251.1 670.478V669.882ZM1252.66 670.231C1253.24 669.961 1254.17 669.663 1255.5 669.34C1254.23 669.53 1253.3 669.604 1252.66 669.58V670.231ZM1243.48 671.714H1214.41C1218.92 671.404 1224.36 671.249 1230.11 671.249C1235.71 671.249 1240.22 671.404 1243.48 671.714ZM1260.12 671.714H1289.19C1284.68 671.404 1279.24 671.094 1273.49 671.249C1267.74 671.404 1263.38 671.559 1260.12 671.714Z" fill="url(#paint15_linear_563_296)"/>
</g>
<path d="M921.06 692.595C918.78 682.102 915.018 672.179 910.001 663.054C909.317 661.8 908.519 660.431 907.721 659.176C901.907 649.482 894.724 640.813 886.402 633.285C885.376 632.259 884.236 631.346 883.096 630.434C874.203 623.02 864.056 616.975 853.112 612.641C851.744 612.071 850.376 611.615 849.007 611.158C838.063 607.28 826.206 605.113 814.007 604.885C813.323 604.885 812.525 604.885 811.841 604.885C811.157 604.885 810.359 604.885 809.675 604.885C797.362 605.113 785.619 607.28 774.675 611.158C773.307 611.615 771.939 612.185 770.57 612.641C759.626 616.975 749.479 623.02 740.587 630.434C739.447 631.346 738.306 632.373 737.28 633.285C728.958 640.813 721.661 649.482 715.961 659.176C715.163 660.431 714.479 661.8 713.681 663.054C708.665 672.179 704.902 682.102 702.622 692.595C702.28 694.078 702.052 695.561 701.71 697.043C700.57 703.431 700 709.932 700 716.547H923.568C923.568 709.932 922.998 703.316 921.858 697.043C921.63 695.561 921.402 694.078 921.06 692.595Z" fill="url(#paint16_linear_563_296)"/>
<path opacity="0.3" d="M809.676 604.771V716.547H814.008V604.771C813.324 604.771 812.526 604.771 811.842 604.771C811.044 604.771 810.36 604.771 809.676 604.771Z" fill="url(#paint17_linear_563_296)"/>
<path opacity="0.3" d="M770.57 612.641L798.388 716.661H802.834L774.561 611.158C773.306 611.615 771.938 612.071 770.57 612.641Z" fill="url(#paint18_linear_563_296)"/>
<path opacity="0.3" d="M737.28 633.285L785.391 716.547H790.294L740.586 630.434C739.446 631.346 738.306 632.373 737.28 633.285Z" fill="url(#paint19_linear_563_296)"/>
<path opacity="0.3" d="M713.681 663.054L767.264 716.661H773.307L715.847 659.176C715.163 660.431 714.365 661.8 713.681 663.054Z" fill="url(#paint20_linear_563_296)"/>
<path opacity="0.3" d="M701.71 697.043L735.57 716.547H744.235L702.622 692.481C702.28 694.078 702.052 695.561 701.71 697.043Z" fill="url(#paint21_linear_563_296)"/>
<path opacity="0.3" d="M820.734 716.661H825.181L852.998 612.641C851.63 612.071 850.262 611.615 848.894 611.158L820.734 716.661Z" fill="url(#paint22_linear_563_296)"/>
<path opacity="0.3" d="M833.274 716.661H838.291L886.402 633.399C885.376 632.373 884.236 631.461 883.096 630.548L833.274 716.661Z" fill="url(#paint23_linear_563_296)"/>
<g opacity="0.3">
<path d="M850.262 716.661H856.304L909.888 663.054C909.204 661.8 908.406 660.431 907.607 659.176L850.262 716.661Z" fill="url(#paint24_linear_563_296)"/>
</g>
<path d="M879.447 716.661H888.112L921.972 697.157C921.744 695.675 921.402 694.192 921.06 692.709L879.447 716.661Z" fill="#084F15"/>
<path d="M1004.74 701.378C1003.26 694.762 1000.87 688.375 997.673 682.558C997.217 681.76 996.761 680.961 996.305 680.049C992.657 673.89 988.097 668.415 982.738 663.625C982.054 663.054 981.37 662.37 980.572 661.8C974.872 657.123 968.488 653.245 961.533 650.508C960.735 650.166 959.823 649.824 958.911 649.596C951.956 647.086 944.432 645.718 936.68 645.604C936.223 645.604 935.767 645.604 935.311 645.604C934.855 645.604 934.399 645.604 933.943 645.604C926.191 645.718 918.666 647.2 911.712 649.596C910.8 649.938 910.002 650.166 909.09 650.508C902.135 653.245 895.751 657.123 890.051 661.8C889.367 662.37 888.682 663.054 887.884 663.625C882.526 668.415 877.966 673.89 874.318 680.049C873.862 680.847 873.405 681.646 872.949 682.558C869.757 688.375 867.363 694.648 865.881 701.378C865.653 702.29 865.539 703.316 865.311 704.229C864.627 708.221 864.171 712.441 864.171 716.661H1006.22C1006.22 712.441 1005.88 708.221 1005.08 704.229C1005.2 703.202 1004.97 702.29 1004.74 701.378Z" fill="url(#paint25_linear_563_296)"/>
<path opacity="0.3" d="M933.942 645.604V716.661H936.679V645.604C936.223 645.604 935.767 645.604 935.31 645.604C934.854 645.604 934.398 645.604 933.942 645.604Z" fill="url(#paint26_linear_563_296)"/>
<path opacity="0.3" d="M909.203 650.508L926.874 716.547H929.724L911.825 649.482C910.913 649.938 910.001 650.166 909.203 650.508Z" fill="url(#paint27_linear_563_296)"/>
<path opacity="0.3" d="M887.998 663.739L918.552 716.661H921.744L890.164 661.914C889.366 662.484 888.682 663.054 887.998 663.739Z" fill="url(#paint28_linear_563_296)"/>
<path opacity="0.3" d="M872.949 682.558L907.037 716.547H910.914L874.431 680.049C873.975 680.961 873.405 681.76 872.949 682.558Z" fill="url(#paint29_linear_563_296)"/>
<path opacity="0.3" d="M865.425 704.229L886.972 716.661H892.444L865.995 701.378C865.767 702.29 865.539 703.202 865.425 704.229Z" fill="url(#paint30_linear_563_296)"/>
<path opacity="0.3" d="M941.011 716.661H943.861L961.532 650.622C960.734 650.28 959.822 649.938 958.91 649.71L941.011 716.661Z" fill="url(#paint31_linear_563_296)"/>
<path opacity="0.3" d="M948.992 716.661H952.184L982.738 663.739C982.054 663.168 981.37 662.484 980.572 661.914L948.992 716.661Z" fill="url(#paint32_linear_563_296)"/>
<path opacity="0.3" d="M959.822 716.661H963.698L997.787 682.672C997.331 681.874 996.875 681.075 996.419 680.163L959.822 716.661Z" fill="url(#paint33_linear_563_296)"/>
<path opacity="0.3" d="M978.292 716.661H983.764L1005.31 704.229C1005.2 703.316 1004.97 702.29 1004.74 701.378L978.292 716.661Z" fill="url(#paint34_linear_563_296)"/>
<path d="M1290 709H-6V804.58H1290V709Z" fill="url(#paint35_linear_563_296)"/>
<mask id="mask4_563_296" style="mask-type:alpha" maskUnits="userSpaceOnUse" x="-6" y="709" width="1296" height="96">
<path d="M1290 709H-6V804.58H1290V709Z" fill="url(#paint36_linear_563_296)"/>
</mask>
<g mask="url(#mask4_563_296)">
<path opacity="0.7" fill-rule="evenodd" clip-rule="evenodd" d="M544.791 747.025C536.187 756.086 527.408 762.265 518.025 761.839C515.698 761.733 513.829 761.254 512.43 760.366C511.001 759.458 510.13 758.165 509.754 756.599C509.386 755.067 509.501 753.313 509.938 751.437C510.376 749.553 511.154 747.482 512.177 745.282C515.923 737.224 523.178 726.992 530.203 717.085L530.203 717.084L530.204 717.084C530.817 716.219 531.429 715.356 532.036 714.497C535.834 709.13 539.475 703.913 542.39 699.215C545.318 694.496 547.458 690.388 548.315 687.223C548.744 685.64 548.823 684.395 548.6 683.466C548.39 682.592 547.904 681.95 547.02 681.516C546.086 681.057 544.656 680.81 542.564 680.929C540.484 681.048 537.837 681.524 534.533 682.425C528.026 684.199 520.777 688.292 512.941 694.133C505.114 699.967 496.76 707.5 488.043 716.091C475.755 728.201 462.797 742.36 449.618 756.761L449.618 756.761L449.617 756.762L449.615 756.764C444.085 762.807 438.517 768.892 432.942 774.886C414.111 795.134 395.221 814.336 377.669 827.156C360.188 839.925 343.682 846.626 329.784 841.15C322.913 838.444 319.453 834.555 319.041 829.647C318.642 824.885 321.166 819.516 325.295 813.91C333.583 802.654 348.982 789.61 363.933 777.083C364.469 776.634 365.005 776.185 365.541 775.737L365.607 775.681L365.637 775.656C372.548 769.868 379.316 764.2 385.23 758.858C391.638 753.069 396.992 747.708 400.421 743.036C402.136 740.7 403.337 738.58 403.96 736.703C404.581 734.831 404.607 733.273 404.085 731.979C403.564 730.689 402.431 729.497 400.399 728.491C398.359 727.481 395.474 726.691 391.583 726.192C379.21 724.606 363.336 728.338 345.656 735.592C328.006 742.835 308.681 753.534 289.457 765.734C251.01 790.134 213.063 820.475 189.872 840.969L188.548 839.471C211.797 818.925 249.828 788.516 288.385 764.046C307.663 751.811 327.097 741.046 344.897 733.742C362.668 726.45 378.938 722.554 391.837 724.208C395.843 724.722 398.971 725.552 401.287 726.699C403.613 727.851 405.182 729.355 405.939 731.229C406.694 733.1 406.575 735.173 405.858 737.333C405.143 739.486 403.812 741.797 402.034 744.219C398.477 749.064 392.997 754.537 386.571 760.342C380.628 765.71 373.833 771.401 366.93 777.182L366.928 777.184L366.928 777.184L366.905 777.203C366.343 777.673 365.78 778.145 365.217 778.617C350.198 791.2 335.019 804.076 326.905 815.095C322.832 820.626 320.699 825.483 321.034 829.48C321.357 833.33 324.022 836.731 330.517 839.29C343.348 844.344 359.04 838.287 376.49 825.541C393.869 812.847 412.644 793.776 431.478 773.524C437.026 767.558 442.58 761.489 448.102 755.455L448.102 755.455C461.297 741.036 474.312 726.815 486.639 714.667C495.387 706.045 503.815 698.441 511.745 692.53C519.666 686.626 527.149 682.366 534.007 680.495C537.386 679.574 540.181 679.062 542.449 678.933C544.705 678.804 546.529 679.047 547.902 679.721C549.325 680.42 550.197 681.552 550.545 682.999C550.88 684.392 550.715 686.012 550.246 687.746C549.306 691.213 547.028 695.533 544.09 700.269C541.139 705.025 537.465 710.288 533.669 715.653C533.113 716.438 532.554 717.226 531.995 718.015L531.891 718.162L531.869 718.194C524.803 728.16 517.655 738.243 513.99 746.125C513.001 748.252 512.282 750.187 511.886 751.89C511.488 753.6 511.43 755.014 511.699 756.133C511.959 757.218 512.532 758.061 513.502 758.677C514.502 759.312 515.987 759.744 518.115 759.841C526.552 760.225 534.783 754.659 543.341 745.647C550.284 738.336 557.277 728.94 564.624 719.068L564.624 719.067L564.625 719.067L564.629 719.06L564.646 719.038C566.317 716.792 568.007 714.522 569.718 712.246C578.932 699.995 588.76 687.613 599.661 678.295C610.567 668.972 622.637 662.64 636.33 662.64V664.64C623.293 664.64 611.67 670.66 600.96 679.815C590.244 688.976 580.53 701.198 571.317 713.449C569.617 715.709 567.933 717.972 566.263 720.216L566.261 720.218L566.261 720.219C558.91 730.097 551.825 739.617 544.791 747.025ZM930.118 693.721C928.124 690.595 924.504 688.744 918.241 688.94C905.784 689.329 893.887 699.391 882.226 714.694C870.611 729.938 859.459 750.067 848.413 770.032L848.26 770.307C837.288 790.138 826.414 809.791 815.346 824.1C809.785 831.29 804.134 837.187 798.348 841.084C792.55 844.989 786.56 846.924 780.373 846.071C774.271 845.229 770.219 842.668 767.888 838.716C765.59 834.818 765.065 829.733 765.618 824.025C766.723 812.619 772.202 798.103 777.757 783.964C778.195 782.848 778.634 781.735 779.072 780.625L779.099 780.557L779.099 780.556C784.229 767.538 789.146 755.064 790.686 745.593C791.525 740.432 791.318 736.391 789.803 733.673C788.35 731.067 785.546 729.44 780.51 729.44C775.557 729.44 770.739 731.628 765.95 735.613C761.156 739.601 756.459 745.335 751.774 752.286C743.922 763.938 736.209 778.846 728.189 794.35C726.632 797.358 725.064 800.389 723.482 803.423C713.765 822.046 703.496 840.763 691.981 854.826C680.48 868.872 667.568 878.48 652.53 878.48C645.101 878.48 640.24 876.546 637.625 872.821C635.041 869.141 634.879 864.019 636.059 858.196C637.246 852.339 639.839 845.537 643.074 838.287C645.814 832.146 649.036 825.636 652.291 819.061L652.292 819.06L652.292 819.06C652.882 817.867 653.474 816.673 654.063 815.477C661.782 799.837 669.18 784.207 670.674 772.108C671.418 766.081 670.671 761.107 667.942 757.459C665.223 753.823 660.374 751.289 652.431 750.495C626.854 747.937 600.905 759.128 578.778 774.301C556.669 789.461 538.518 808.501 528.582 821.391L526.998 820.169C537.042 807.139 555.341 787.947 577.647 772.651C599.935 757.368 626.366 745.879 652.63 748.505C660.886 749.331 666.365 752.011 669.544 756.261C672.712 760.497 673.433 766.079 672.659 772.353C671.115 784.858 663.528 800.818 655.857 816.363C655.265 817.563 654.672 818.76 654.08 819.955L654.08 819.956C650.824 826.533 647.623 833.001 644.9 839.102C641.68 846.319 639.161 852.958 638.019 858.593C636.87 864.262 637.163 868.683 639.262 871.672C641.33 874.618 645.38 876.48 652.53 876.48C666.652 876.48 679.052 867.458 690.434 853.559C701.801 839.677 711.985 821.134 721.708 802.497C723.282 799.482 724.844 796.463 726.396 793.462L726.397 793.46C734.415 777.96 742.193 762.925 750.116 751.169C754.847 744.148 759.668 738.238 764.67 734.075C769.677 729.91 774.933 727.44 780.51 727.44C786.004 727.44 789.63 729.256 791.55 732.699C793.407 736.031 793.517 740.646 792.66 745.914C791.083 755.611 786.085 768.29 780.985 781.224L780.985 781.225C780.529 782.381 780.073 783.538 779.618 784.696C774.035 798.907 768.681 813.146 767.609 824.218C767.073 829.748 767.625 834.332 769.611 837.7C771.564 841.012 775.004 843.311 780.647 844.089C786.206 844.856 791.707 843.146 797.23 839.425C802.765 835.698 808.264 829.988 813.764 822.877C824.738 808.689 835.552 789.143 846.569 769.233L846.663 769.063C857.688 749.136 868.913 728.866 880.636 713.482C892.313 698.157 904.716 687.361 918.179 686.94C924.876 686.731 929.305 688.728 931.804 692.645C934.24 696.463 934.676 701.872 934.038 708.115C933.396 714.392 931.642 721.719 929.482 729.526C928.401 733.435 927.214 737.477 926.008 741.58L925.953 741.765C924.764 745.811 923.558 749.915 922.413 754.021C920.088 762.362 918.026 770.679 916.89 778.466C915.753 786.26 915.553 793.458 916.908 799.58C918.258 805.677 921.141 810.682 926.178 814.185C931.238 817.702 938.581 819.78 948.99 819.78V821.78C938.339 821.78 930.546 819.656 925.037 815.827C919.506 811.982 916.391 806.495 914.956 800.012C913.526 793.553 913.757 786.083 914.911 778.177C916.065 770.264 918.155 761.85 920.487 753.484C921.632 749.375 922.839 745.27 924.024 741.238L924.03 741.216L924.089 741.016C925.296 736.911 926.478 732.884 927.555 728.993C929.71 721.201 931.425 714.011 932.048 707.911C932.676 701.775 932.175 696.946 930.118 693.721ZM1243.17 788.093C1241.3 781.859 1237.38 775.044 1232.16 767.961C1226.94 760.869 1220.39 753.455 1213.21 746.021C1201.25 733.632 1187.48 721.138 1175.15 709.942L1175.15 709.942C1172.69 707.706 1170.28 705.522 1167.96 703.402C1160.97 697.023 1154.74 691.219 1149.94 686.275C1145.09 681.294 1141.82 677.301 1140.61 674.53C1140 673.13 1140.04 672.328 1140.3 671.885C1140.55 671.45 1141.23 670.963 1142.95 670.792C1146.36 670.453 1152.62 671.483 1162.56 674.322L1163.11 672.398C1153.2 669.567 1146.59 668.42 1142.75 668.802C1140.85 668.992 1139.31 669.59 1138.56 670.891C1137.82 672.184 1138.1 673.768 1138.78 675.329C1140.15 678.481 1143.69 682.715 1148.5 687.669C1153.35 692.66 1159.63 698.5 1166.61 704.878C1168.94 707.007 1171.35 709.197 1173.82 711.436C1186.15 722.633 1199.86 735.074 1211.77 747.41C1218.92 754.81 1225.41 762.153 1230.55 769.147C1235.71 776.15 1239.48 782.751 1241.25 788.667C1242.15 791.673 1242.68 794.087 1242.88 795.979C1243.07 797.891 1242.92 799.163 1242.57 799.959C1242.26 800.679 1241.77 801.042 1241.05 801.171C1240.25 801.315 1239.11 801.17 1237.57 800.647C1234.52 799.604 1230.38 797.228 1225.34 793.869C1220.31 790.524 1214.46 786.26 1207.97 781.499C1207.17 780.91 1206.36 780.313 1205.54 779.71C1193.11 770.573 1178.6 759.907 1163.45 750.622C1147.32 740.729 1130.4 732.355 1114.43 729.08C1106.53 727.459 1100.98 726.776 1097.42 726.967C1095.66 727.061 1094.24 727.376 1093.27 728.025C1092.76 728.362 1092.37 728.798 1092.12 729.342C1091.88 729.883 1091.83 730.463 1091.9 731.043C1092.04 732.164 1092.66 733.382 1093.54 734.641C1094.44 735.922 1095.68 737.349 1097.2 738.902C1100.22 742.009 1104.42 745.706 1109.33 749.859C1112.24 752.318 1115.41 754.94 1118.74 757.702L1118.74 757.706C1126.69 764.296 1135.6 771.681 1144.31 779.554C1156.67 790.726 1168.55 802.81 1176.58 814.855C1178.59 817.866 1179.91 820.272 1180.64 822.144C1181.38 824.057 1181.43 825.224 1181.18 825.883C1180.98 826.42 1180.49 826.854 1179.29 827.009C1178.06 827.168 1176.3 826.992 1174.02 826.463C1169.47 825.409 1163.18 823.042 1155.56 819.788C1147.96 816.539 1139.11 812.433 1129.44 807.926L1127.02 806.802C1108.24 798.047 1086.63 787.973 1065.46 779.878C1043.39 771.441 1021.69 765.109 1004.09 764.7C997.072 764.537 991.819 765.234 988.125 766.702C984.396 768.185 982.177 770.495 981.46 773.53C980.761 776.49 981.549 779.918 983.292 783.559C985.044 787.22 987.824 791.229 991.314 795.419C1005.26 812.16 1031.03 832.393 1050.48 845.901L1051.62 844.259C1032.19 830.767 1006.61 810.662 992.851 794.139C989.415 790.013 986.748 786.148 985.096 782.696C983.434 779.224 982.861 776.3 983.407 773.989C983.935 771.752 985.569 769.871 988.864 768.561C992.195 767.236 997.137 766.539 1004.05 766.7C1021.28 767.101 1042.71 773.324 1064.74 781.746C1085.85 789.815 1107.4 799.862 1126.2 808.624L1128.59 809.739C1138.26 814.243 1147.14 818.364 1154.78 821.627C1162.4 824.884 1168.83 827.314 1173.57 828.411C1175.92 828.958 1177.96 829.197 1179.54 828.993C1181.15 828.785 1182.5 828.078 1183.06 826.58C1183.57 825.205 1183.29 823.443 1182.5 821.418C1181.7 819.352 1180.29 816.809 1178.24 813.745C1170.07 801.49 1158.05 789.274 1145.66 778.07C1136.91 770.168 1127.95 762.735 1119.98 756.136L1119.98 756.134L1119.98 756.131C1116.65 753.377 1113.51 750.768 1110.62 748.331C1105.71 744.181 1101.58 740.538 1098.63 737.506C1097.15 735.99 1095.99 734.649 1095.18 733.492C1094.35 732.313 1093.96 731.424 1093.88 730.798C1093.85 730.505 1093.89 730.302 1093.95 730.154C1094.02 730.008 1094.14 729.849 1094.38 729.689C1094.9 729.343 1095.88 729.053 1097.53 728.964C1100.81 728.788 1106.14 729.421 1114.03 731.04C1129.65 734.245 1146.34 742.476 1162.41 752.327C1177.48 761.566 1191.92 772.186 1204.37 781.33C1205.18 781.931 1205.99 782.524 1206.79 783.111C1213.27 787.868 1219.16 792.159 1224.23 795.534C1229.28 798.896 1233.6 801.405 1236.93 802.54C1238.58 803.105 1240.11 803.371 1241.4 803.14C1242.78 802.894 1243.82 802.096 1244.41 800.76C1244.96 799.498 1245.08 797.819 1244.86 795.774C1244.65 793.709 1244.09 791.162 1243.17 788.093Z" fill="url(#paint37_linear_563_296)"/>
<path opacity="0.1" d="M382.158 742.448C248.928 742.448 226.558 786.701 -8.42969 786.701V856.42H1290V707.38C1004.91 707.38 1041.61 769.584 796.032 769.584C550.46 769.584 497.535 742.448 382.158 742.448Z" fill="url(#paint38_linear_563_296)"/>
</g>
<path d="M73.4381 433.741H78.9824V800.347H73.4381V433.741Z" fill="#0C5E59"/>
<path d="M37.6076 402.141C51.141 402.141 63.9012 411.839 72.7946 420.762C66.8012 412.227 58.4878 401.947 52.1077 399.813C41.281 396.322 32.1942 398.068 32.1942 398.068C32.1942 398.068 42.4409 383.714 57.5211 390.503C64.2878 393.413 69.8945 402.917 73.9545 412.033C71.6345 403.499 70.0879 393.412 71.4412 384.102C75.1146 360.826 101.215 358.886 101.215 358.886C101.215 358.886 86.7147 379.059 84.008 402.917C83.6213 406.02 83.4279 409.124 83.2346 412.033C85.5546 398.262 90.9681 381.774 104.115 373.046C136.788 351.321 157.282 389.727 157.282 389.727C157.282 389.727 138.528 378.089 113.975 390.503C94.6414 400.201 86.328 421.344 83.6213 429.684C86.908 423.284 100.248 399.425 121.902 395.74C154.382 390.309 162.695 431.624 162.695 431.624C162.695 431.624 144.135 416.689 121.128 417.658C103.341 418.434 90.388 425.805 84.008 431.624C87.2947 430.654 94.8347 428.909 103.535 428.909C132.342 428.521 138.335 467.12 138.335 467.12L83.6213 433.564C85.9413 438.025 90.7747 447.336 93.4814 453.93C97.1548 462.853 94.8347 482.638 94.8347 482.638C94.8347 482.638 85.9413 467.508 83.428 457.616C80.9146 448.111 81.4947 438.219 81.8813 433.564L44.761 473.715C44.761 473.715 35.6743 449.275 63.5145 437.443C67.1879 435.891 70.4745 434.534 72.9879 433.564C66.2211 434.534 58.1011 437.249 49.7877 442.68C33.5475 453.155 23.3008 467.508 23.3008 467.508C23.3008 467.508 13.2474 437.831 37.9943 426.193C46.1144 422.314 55.3944 422.896 63.3211 424.641C57.3277 421.15 49.5943 418.628 40.1209 419.792C17.6941 422.508 11.5074 438.607 11.5074 438.607C11.5074 438.607 5.12733 401.947 37.6076 402.141Z" fill="url(#paint39_linear_563_296)"/>
<path d="M231.375 776.59C228.988 765.607 225.05 755.221 219.8 745.671C219.084 744.358 218.249 742.925 217.414 741.612C211.328 731.465 203.81 722.392 195.099 714.513C194.025 713.438 192.832 712.483 191.639 711.528C182.331 703.769 171.711 697.442 160.256 692.905C158.824 692.308 157.392 691.831 155.96 691.353C144.505 687.294 132.095 685.026 119.327 684.788C118.611 684.788 117.776 684.788 117.06 684.788C116.344 684.788 115.508 684.788 114.792 684.788C101.905 685.026 89.6145 687.294 78.1591 691.353C76.7272 691.831 75.2953 692.428 73.8634 692.905C62.408 697.442 51.7879 703.769 42.4804 711.528C41.2871 712.483 40.0938 713.558 39.0199 714.513C30.309 722.392 22.6721 731.465 16.7058 741.612C15.8705 742.925 15.1545 744.358 14.3192 745.671C9.06884 755.221 5.13108 765.607 2.74454 776.59C2.38656 778.142 2.14788 779.694 1.7899 781.246C0.596634 787.931 0 794.736 0 801.66H234C234 794.736 233.403 787.812 232.21 781.246C231.971 779.694 231.733 778.142 231.375 776.59Z" fill="url(#paint40_linear_563_296)"/>
<path fill-rule="evenodd" clip-rule="evenodd" d="M114.793 684.668V801.66H119.327V684.668H117.06H114.793ZM73.8635 692.905L102.979 801.779H107.633L78.04 691.353C77.6959 691.479 77.3437 691.604 76.9854 691.731L76.9853 691.731L76.9852 691.731L76.9852 691.731L76.9851 691.731C75.9765 692.089 74.92 692.465 73.8635 692.905ZM89.376 801.66L39.0201 714.513L39.3425 714.226L39.3427 714.226C40.3305 713.346 41.4055 712.389 42.4805 711.528L94.507 801.66H89.376ZM14.3194 745.671L70.4031 801.779H76.7274L16.5866 741.612C16.2286 742.269 15.8408 742.955 15.453 743.641C15.0652 744.328 14.6774 745.014 14.3194 745.671ZM37.2301 801.66L1.79004 781.246C1.98764 780.389 2.14888 779.533 2.31391 778.656L2.31392 778.656C2.44787 777.944 2.5843 777.219 2.74468 776.471L46.299 801.66H37.2301ZM126.367 801.779H131.021L160.137 692.905C158.705 692.308 157.273 691.831 155.842 691.353L155.841 691.353L126.367 801.779ZM144.744 801.779H139.493L191.639 711.648C192.832 712.603 194.026 713.558 195.1 714.632L144.744 801.779ZM157.273 801.779H163.597L219.681 745.671C218.965 744.358 218.13 742.925 217.294 741.612L157.273 801.779ZM196.89 801.779H187.821L231.375 776.709C231.733 778.261 232.091 779.813 232.33 781.365L196.89 801.779Z" fill="url(#paint41_linear_563_296)"/>
<path d="M65.373 686.941C54.4039 686.941 50.2904 677.339 50.2904 663.965C50.2904 650.59 46.5197 639.616 31.7799 638.931C12.584 638.245 14.298 656.763 14.298 679.397C14.298 708.203 4.01441 689.685 -10.3825 705.803C-22.7228 719.52 -6.95461 743.869 -2.15563 751.07H59.8883C61.945 747.298 67.0867 738.039 72.9141 726.722C85.9399 702.716 76.3421 686.941 65.373 686.941Z" fill="url(#paint42_linear_563_296)"/>
<path opacity="0.2" fill-rule="evenodd" clip-rule="evenodd" d="M35.893 691.4H32.8081V734.407L19.849 717.121L17.3809 718.973L32.8081 739.551V751.07H35.893V718.576L48.9655 702.356L46.5639 700.418L35.893 713.659V691.4Z" fill="white"/>
<path d="M78.0558 751.413H-13.8105V802.511H78.0558V751.413Z" fill="white"/>
<path d="M1285 0H0V800H1185C1240.23 800 1285 755.228 1285 700V0Z" fill="url(#paint43_linear_563_296)"/>
</g>
<path opacity="0.2" d="M1035.36 751.553C1117.9 668.977 1117.9 535.094 1035.36 452.518C952.817 369.941 818.993 369.941 736.452 452.518C653.912 535.094 653.912 668.977 736.452 751.553C818.993 834.129 952.817 834.13 1035.36 751.553Z" fill="url(#paint44_linear_563_296)"/>
<path d="M625.272 820.483C623.702 813.247 621.11 806.404 617.655 800.112C617.184 799.247 616.634 798.303 616.084 797.438C612.079 790.753 607.132 784.775 601.399 779.584C600.692 778.876 599.907 778.247 599.121 777.618C592.996 772.506 586.007 768.337 578.468 765.348C577.525 764.955 576.583 764.64 575.64 764.326C568.101 761.652 559.934 760.157 551.531 760C551.06 760 550.51 760 550.039 760C549.568 760 549.018 760 548.547 760C540.066 760.157 531.977 761.652 524.438 764.326C523.496 764.64 522.553 765.034 521.611 765.348C514.072 768.337 507.083 772.506 500.957 777.618C500.172 778.247 499.387 778.955 498.68 779.584C492.947 784.775 487.921 790.753 483.994 797.438C483.445 798.303 482.973 799.247 482.424 800.112C478.968 806.404 476.377 813.247 474.806 820.483C474.571 821.506 474.414 822.528 474.178 823.551C473.393 827.955 473 832.438 473 837H627C627 832.438 626.607 827.876 625.822 823.551C625.665 822.528 625.508 821.506 625.272 820.483Z" fill="#F4F6D5"/>
<path d="M779.307 843.259C776.86 831.983 772.821 821.319 767.436 811.513C766.702 810.164 765.845 808.694 764.988 807.345C758.747 796.926 751.036 787.611 742.102 779.521C741 778.418 739.777 777.437 738.553 776.457C729.007 768.489 718.114 761.993 706.365 757.335C704.896 756.722 703.428 756.232 701.959 755.742C690.21 751.574 677.482 749.245 664.387 749C663.652 749 662.796 749 662.061 749C661.327 749 660.47 749 659.736 749C646.518 749.245 633.912 751.574 622.163 755.742C620.695 756.232 619.226 756.845 617.757 757.335C606.008 761.993 595.116 768.489 585.57 776.457C584.346 777.437 583.122 778.54 582.02 779.521C573.086 787.611 565.253 796.926 559.134 807.345C558.277 808.694 557.543 810.164 556.686 811.513C551.301 821.319 547.263 831.983 544.815 843.259C544.448 844.853 544.203 846.446 543.836 848.04C542.612 854.904 542 861.891 542 869H782C782 861.891 781.388 854.781 780.164 848.04C779.919 846.446 779.675 844.853 779.307 843.259Z" fill="white"/>
<path opacity="0.2" fill-rule="evenodd" clip-rule="evenodd" d="M58.1371 0C57.6108 0.518531 57.086 1.03946 56.5626 1.5628C32.7321 25.3933 13.8778 52.3185 0 81.0459V335.386C13.86 364.076 32.6841 390.969 56.4724 414.778C170.504 528.91 355.426 528.95 469.508 414.869C583.589 300.787 583.629 115.784 469.598 1.6529C469.045 1.09925 468.49 0.548282 467.933 0H58.1371Z" fill="url(#paint45_linear_563_296)"/>
<path opacity="0.56" fill-rule="evenodd" clip-rule="evenodd" d="M1285 85.8673C1181.19 44.9507 1058.48 66.475 974.554 150.44C861.694 263.349 861.694 446.411 974.554 559.32C1058.48 643.286 1181.19 664.81 1285 623.893V85.8673Z" fill="url(#paint46_linear_563_296)"/>
<defs>
<linearGradient id="paint0_linear_563_296" x1="892.272" y1="1119.08" x2="-93.4885" y2="306.262" gradientUnits="userSpaceOnUse">
<stop stop-color="#FFEDBA"/>
<stop offset="1" stop-color="#EE4D47"/>
</linearGradient>
<linearGradient id="paint1_linear_563_296" x1="793" y1="990" x2="-63.5252" y2="258.836" gradientUnits="userSpaceOnUse">
<stop stop-color="#FFEDBA"/>
<stop offset="1" stop-color="#EE4D47"/>
</linearGradient>
<linearGradient id="paint2_linear_563_296" x1="865" y1="-242" x2="865" y2="862" gradientUnits="userSpaceOnUse">
<stop stop-color="#F4A984"/>
<stop offset="1" stop-color="#F4A984" stop-opacity="0"/>
</linearGradient>
<linearGradient id="paint3_linear_563_296" x1="1098.95" y1="447.562" x2="1098.95" y2="727.313" gradientUnits="userSpaceOnUse">
<stop offset="0.240793" stop-color="#2CA77F"/>
<stop offset="1" stop-color="#1B8877"/>
</linearGradient>
<linearGradient id="paint4_linear_563_296" x1="1098.95" y1="447.562" x2="1098.95" y2="727.313" gradientUnits="userSpaceOnUse">
<stop offset="0.240793" stop-color="#2CA77F"/>
<stop offset="1" stop-color="#1B8877"/>
</linearGradient>
<linearGradient id="paint5_linear_563_296" x1="1098.95" y1="447.562" x2="1098.95" y2="727.313" gradientUnits="userSpaceOnUse">
<stop offset="0.240793" stop-color="#2CA77F"/>
<stop offset="1" stop-color="#1B8877"/>
</linearGradient>
<linearGradient id="paint6_linear_563_296" x1="1105.84" y1="458.726" x2="1105.84" y2="712.866" gradientUnits="userSpaceOnUse">
<stop stop-color="white"/>
<stop offset="1" stop-color="white" stop-opacity="0"/>
</linearGradient>
<linearGradient id="paint7_linear_563_296" x1="1216.82" y1="527.679" x2="1216.82" y2="721.403" gradientUnits="userSpaceOnUse">
<stop offset="0.422311" stop-color="#2CA77F"/>
<stop offset="1" stop-color="#1B8877"/>
</linearGradient>
<linearGradient id="paint8_linear_563_296" x1="1216.82" y1="527.679" x2="1216.82" y2="721.403" gradientUnits="userSpaceOnUse">
<stop offset="0.422311" stop-color="#2CA77F"/>
<stop offset="1" stop-color="#1B8877"/>
</linearGradient>
<linearGradient id="paint9_linear_563_296" x1="1215.84" y1="557.23" x2="1215.84" y2="715.493" gradientUnits="userSpaceOnUse">
<stop stop-color="white"/>
<stop offset="1" stop-color="white" stop-opacity="0"/>
</linearGradient>
<linearGradient id="paint10_linear_563_296" x1="910.478" y1="476.457" x2="910.478" y2="768.803" gradientUnits="userSpaceOnUse">
<stop offset="0.422311" stop-color="#2CA77F"/>
<stop offset="1" stop-color="#1B8877"/>
</linearGradient>
<linearGradient id="paint11_linear_563_296" x1="910.478" y1="476.457" x2="910.478" y2="768.803" gradientUnits="userSpaceOnUse">
<stop offset="0.422311" stop-color="#2CA77F"/>
<stop offset="1" stop-color="#1B8877"/>
</linearGradient>
<linearGradient id="paint12_linear_563_296" x1="902.269" y1="534.897" x2="902.269" y2="742.254" gradientUnits="userSpaceOnUse">
<stop stop-color="white"/>
<stop offset="1" stop-color="white" stop-opacity="0"/>
</linearGradient>
<linearGradient id="paint13_linear_563_296" x1="1084.16" y1="531.011" x2="1084.16" y2="590.03" gradientUnits="userSpaceOnUse">
<stop stop-color="#D3D86C"/>
<stop offset="1" stop-color="#82A637"/>
</linearGradient>
<linearGradient id="paint14_linear_563_296" x1="990.594" y1="403.877" x2="990.594" y2="511.918" gradientUnits="userSpaceOnUse">
<stop stop-color="#D3D86C"/>
<stop offset="1" stop-color="#82A637"/>
</linearGradient>
<linearGradient id="paint15_linear_563_296" x1="1251.88" y1="653.604" x2="1251.88" y2="671.714" gradientUnits="userSpaceOnUse">
<stop stop-color="#D3D86C"/>
<stop offset="1" stop-color="#82A637"/>
</linearGradient>
<linearGradient id="paint16_linear_563_296" x1="811.784" y1="568.394" x2="811.784" y2="716.547" gradientUnits="userSpaceOnUse">
<stop stop-color="#D3D86C"/>
<stop offset="1" stop-color="#82A637"/>
</linearGradient>
<linearGradient id="paint17_linear_563_296" x1="811.842" y1="604.771" x2="811.842" y2="716.547" gradientUnits="userSpaceOnUse">
<stop stop-color="#084F15" stop-opacity="0"/>
<stop offset="1" stop-color="#084F15"/>
</linearGradient>
<linearGradient id="paint18_linear_563_296" x1="786.702" y1="611.158" x2="786.702" y2="716.661" gradientUnits="userSpaceOnUse">
<stop stop-color="#084F15" stop-opacity="0"/>
<stop offset="1" stop-color="#084F15"/>
</linearGradient>
<linearGradient id="paint19_linear_563_296" x1="763.787" y1="630.434" x2="763.787" y2="716.547" gradientUnits="userSpaceOnUse">
<stop stop-color="#084F15" stop-opacity="0"/>
<stop offset="1" stop-color="#084F15"/>
</linearGradient>
<linearGradient id="paint20_linear_563_296" x1="743.494" y1="659.176" x2="743.494" y2="716.661" gradientUnits="userSpaceOnUse">
<stop stop-color="#084F15" stop-opacity="0"/>
<stop offset="1" stop-color="#084F15"/>
</linearGradient>
<linearGradient id="paint21_linear_563_296" x1="722.972" y1="692.481" x2="722.972" y2="716.547" gradientUnits="userSpaceOnUse">
<stop stop-color="#084F15" stop-opacity="0"/>
<stop offset="1" stop-color="#084F15"/>
</linearGradient>
<linearGradient id="paint22_linear_563_296" x1="836.866" y1="611.158" x2="836.866" y2="716.661" gradientUnits="userSpaceOnUse">
<stop stop-color="#084F15" stop-opacity="0"/>
<stop offset="1" stop-color="#084F15"/>
</linearGradient>
<linearGradient id="paint23_linear_563_296" x1="859.838" y1="630.548" x2="859.838" y2="716.661" gradientUnits="userSpaceOnUse">
<stop stop-color="#084F15" stop-opacity="0"/>
<stop offset="1" stop-color="#084F15"/>
</linearGradient>
<linearGradient id="paint24_linear_563_296" x1="880.075" y1="659.176" x2="880.075" y2="716.661" gradientUnits="userSpaceOnUse">
<stop stop-color="#084F15" stop-opacity="0"/>
<stop offset="1" stop-color="#084F15"/>
</linearGradient>
<linearGradient id="paint25_linear_563_296" x1="935.197" y1="622.382" x2="935.197" y2="716.661" gradientUnits="userSpaceOnUse">
<stop stop-color="#D3D86C"/>
<stop offset="1" stop-color="#82A637"/>
</linearGradient>
<linearGradient id="paint26_linear_563_296" x1="935.31" y1="645.604" x2="935.31" y2="716.661" gradientUnits="userSpaceOnUse">
<stop stop-color="#084F15" stop-opacity="0"/>
<stop offset="1" stop-color="#084F15"/>
</linearGradient>
<linearGradient id="paint27_linear_563_296" x1="919.464" y1="649.482" x2="919.464" y2="716.547" gradientUnits="userSpaceOnUse">
<stop stop-color="#084F15" stop-opacity="0"/>
<stop offset="1" stop-color="#084F15"/>
</linearGradient>
<linearGradient id="paint28_linear_563_296" x1="904.871" y1="661.914" x2="904.871" y2="716.661" gradientUnits="userSpaceOnUse">
<stop stop-color="#084F15" stop-opacity="0"/>
<stop offset="1" stop-color="#084F15"/>
</linearGradient>
<linearGradient id="paint29_linear_563_296" x1="891.931" y1="680.049" x2="891.931" y2="716.547" gradientUnits="userSpaceOnUse">
<stop stop-color="#084F15" stop-opacity="0"/>
<stop offset="1" stop-color="#084F15"/>
</linearGradient>
<linearGradient id="paint30_linear_563_296" x1="878.935" y1="701.378" x2="878.935" y2="716.661" gradientUnits="userSpaceOnUse">
<stop stop-color="#084F15" stop-opacity="0"/>
<stop offset="1" stop-color="#084F15"/>
</linearGradient>
<linearGradient id="paint31_linear_563_296" x1="951.271" y1="649.71" x2="951.271" y2="716.661" gradientUnits="userSpaceOnUse">
<stop stop-color="#084F15" stop-opacity="0"/>
<stop offset="1" stop-color="#084F15"/>
</linearGradient>
<linearGradient id="paint32_linear_563_296" x1="965.865" y1="661.914" x2="965.865" y2="716.661" gradientUnits="userSpaceOnUse">
<stop stop-color="#084F15" stop-opacity="0"/>
<stop offset="1" stop-color="#084F15"/>
</linearGradient>
<linearGradient id="paint33_linear_563_296" x1="978.804" y1="680.163" x2="978.804" y2="716.661" gradientUnits="userSpaceOnUse">
<stop stop-color="#084F15" stop-opacity="0"/>
<stop offset="1" stop-color="#084F15"/>
</linearGradient>
<linearGradient id="paint34_linear_563_296" x1="991.802" y1="701.378" x2="991.802" y2="716.661" gradientUnits="userSpaceOnUse">
<stop stop-color="#084F15" stop-opacity="0"/>
<stop offset="1" stop-color="#084F15"/>
</linearGradient>
<linearGradient id="paint35_linear_563_296" x1="319.869" y1="428.786" x2="319.869" y2="897.717" gradientUnits="userSpaceOnUse">
<stop offset="0.278352" stop-color="#EEEF99"/>
<stop offset="0.76976" stop-color="#B9D079"/>
</linearGradient>
<linearGradient id="paint36_linear_563_296" x1="319.869" y1="428.786" x2="319.869" y2="897.717" gradientUnits="userSpaceOnUse">
<stop offset="0.278352" stop-color="#EEEF99"/>
<stop offset="0.76976" stop-color="#B9D079"/>
</linearGradient>
<linearGradient id="paint37_linear_563_296" x1="716.755" y1="713.737" x2="716.755" y2="926.053" gradientUnits="userSpaceOnUse">
<stop stop-color="white"/>
<stop offset="1" stop-color="white" stop-opacity="0"/>
</linearGradient>
<linearGradient id="paint38_linear_563_296" x1="640.785" y1="650.774" x2="640.785" y2="860.992" gradientUnits="userSpaceOnUse">
<stop offset="0.164151" stop-color="#82A637"/>
<stop offset="0.890649" stop-color="#1B8877"/>
</linearGradient>
<linearGradient id="paint39_linear_563_296" x1="86.8476" y1="318.444" x2="86.8476" y2="482.638" gradientUnits="userSpaceOnUse">
<stop stop-color="#D3D86C"/>
<stop offset="1" stop-color="#82A637"/>
</linearGradient>
<linearGradient id="paint40_linear_563_296" x1="117" y1="646.593" x2="117" y2="801.66" gradientUnits="userSpaceOnUse">
<stop stop-color="#D3D86C"/>
<stop offset="1" stop-color="#82A637"/>
</linearGradient>
<linearGradient id="paint41_linear_563_296" x1="210.075" y1="684.397" x2="210.075" y2="955.894" gradientUnits="userSpaceOnUse">
<stop stop-color="#084F15" stop-opacity="0"/>
<stop offset="1" stop-color="#084F15"/>
</linearGradient>
<linearGradient id="paint42_linear_563_296" x1="32.0952" y1="638.912" x2="32.0952" y2="773.859" gradientUnits="userSpaceOnUse">
<stop offset="0.422311" stop-color="#2CA77F"/>
<stop offset="1" stop-color="#1B8877"/>
</linearGradient>
<linearGradient id="paint43_linear_563_296" x1="892.272" y1="464" x2="892.272" y2="-228" gradientUnits="userSpaceOnUse">
<stop stop-color="#FFEDBA" stop-opacity="0"/>
<stop offset="1" stop-color="#EB2A24"/>
</linearGradient>
<linearGradient id="paint44_linear_563_296" x1="736.452" y1="381.575" x2="736.565" y2="639.011" gradientUnits="userSpaceOnUse">
<stop stop-color="white"/>
<stop offset="1" stop-color="white" stop-opacity="0"/>
</linearGradient>
<linearGradient id="paint45_linear_563_296" x1="56.5841" y1="-96.4676" x2="56.6618" y2="259.265" gradientUnits="userSpaceOnUse">
<stop stop-color="white"/>
<stop offset="1" stop-color="white" stop-opacity="0"/>
</linearGradient>
<linearGradient id="paint46_linear_563_296" x1="974.554" y1="53.4384" x2="974.708" y2="405.438" gradientUnits="userSpaceOnUse">
<stop stop-color="white"/>
<stop offset="1" stop-color="white" stop-opacity="0"/>
</linearGradient>
<clipPath id="clip0_563_296">
<rect width="126.085" height="112.294" fill="white" transform="translate(1188.92 613.706)"/>
</clipPath>
</defs>
</svg>
