<svg width="600" height="395" viewBox="0 0 600 395" fill="none" xmlns="http://www.w3.org/2000/svg">
<path d="M20.5576 327.493C20.5576 364.314 41.7634 394.064 67.8441 394.064H115.131C141.211 394.064 162.173 364.07 162.173 327.493C162.173 290.671 140.968 260.921 114.887 260.921C114.399 260.921 114.156 260.921 113.668 260.921H67.8441C41.5197 260.921 20.5576 290.915 20.5576 327.493Z" fill="#442B2B"/>
<path d="M391.05 326.761C391.05 363.582 412.256 393.332 438.336 393.332H485.623C511.704 393.332 532.666 363.339 532.666 326.761C532.666 289.939 511.46 260.189 485.379 260.189C484.892 260.189 484.648 260.189 484.16 260.189H438.336C412.012 260.189 391.05 289.939 391.05 326.761Z" fill="#402B2B"/>
<path d="M17.3887 321.152L207.753 320.665L185.816 307.74L41.7631 307.984L17.3887 321.152Z" fill="#442B2B"/>
<path d="M-162.251 212.638L-162.007 334.808L-7.47298 334.564L41.7635 307.984L185.817 307.74L230.178 334.077L544.609 333.345C549.728 333.345 553.871 329.199 553.871 324.079L553.628 211.175L-162.251 212.638Z" fill="#822626"/>
<path d="M174.604 240.438L421.274 239.95L420.786 16.3381C420.786 7.31557 413.474 0 404.212 0L173.873 0.487733L174.604 240.438Z" fill="#EF5F53"/>
<path d="M-210.025 241.413L174.36 240.681L173.873 0.731659L-194.182 1.46318C-203.2 1.46318 -210.513 8.7787 -210.513 18.045L-210.025 241.413Z" fill="#F39476"/>
<path d="M359.851 326.761C359.851 363.582 338.889 393.332 312.808 393.332H265.765V370.898C248.459 370.898 234.322 351.146 234.322 326.761C234.322 302.376 248.216 282.624 265.522 282.624V260.189H312.564C338.645 260.433 359.607 290.183 359.851 326.761Z" fill="#402B2B"/>
<path d="M226.766 327.249C226.766 357.486 244.072 381.871 265.521 381.628C286.971 381.628 304.033 357.242 304.033 327.005C304.033 296.767 286.727 272.382 265.277 272.626C244.072 272.626 226.766 297.011 226.766 327.249Z" fill="#4B2A2A"/>
<path opacity="0.32" d="M265.521 363.095C279.658 363.095 290.87 347.001 290.87 327.005C290.87 307.009 279.414 291.159 265.277 291.159C251.14 291.159 239.928 307.253 239.928 327.249C239.928 347.244 251.384 363.095 265.521 363.095ZM265.521 305.79C273.808 305.79 280.633 315.3 280.633 327.005C280.633 338.71 273.808 348.464 265.521 348.464C257.234 348.464 250.409 338.953 250.409 327.249C250.409 315.3 256.99 305.79 265.521 305.79Z" fill="#E14841"/>
<path d="M265.521 393.576C291.602 393.576 312.564 363.582 312.564 327.005C312.564 290.427 291.358 260.433 265.277 260.433C239.196 260.433 218.234 290.427 218.234 327.005C218.234 363.582 239.684 393.82 265.521 393.576ZM265.277 272.626C286.727 272.626 304.033 297.011 304.033 327.005C304.033 357.242 286.97 381.628 265.521 381.628C244.071 381.628 226.765 357.242 226.765 327.249C226.765 297.011 244.071 272.626 265.277 272.626Z" fill="#402B2B"/>
<path opacity="0.32" d="M258.94 327.005C258.94 321.884 261.865 317.982 265.278 317.982C268.69 317.982 271.615 322.128 271.859 327.005C271.859 332.126 268.934 336.027 265.522 336.027C261.865 336.271 258.94 332.126 258.94 327.005Z" fill="#E14841"/>
<path d="M584.584 144.604C584.584 145.579 585.315 146.311 586.046 146.555C587.996 147.042 595.308 147.042 597.502 146.311C598.477 146.067 599.452 145.336 599.452 144.116C600.183 124.608 600.183 105.588 599.452 87.5428C599.452 86.3235 598.477 85.592 597.502 85.3481C595.065 84.6166 586.534 84.1289 583.852 85.1043C582.877 85.3481 582.146 86.3236 582.146 87.299C581.659 105.832 582.39 124.852 584.584 144.604Z" fill="#CD2827"/>
<path d="M572.64 161.917C572.883 161.917 573.127 161.917 573.615 161.674L590.189 153.383C594.089 151.432 596.527 147.53 596.527 143.141L596.283 81.9342C596.283 79.4956 594.333 77.5449 591.895 77.5449H546.315C545.096 77.5449 544.365 78.5202 544.365 79.4956C544.365 80.7149 545.34 81.4464 546.315 81.4464H591.895C592.139 81.4464 592.139 81.6903 592.139 81.6903L592.383 142.897C592.383 145.823 590.677 148.262 588.239 149.481L571.665 157.772C570.69 158.26 570.202 159.479 570.69 160.454C571.177 161.674 571.908 161.917 572.64 161.917Z" fill="#822626"/>
<path d="M207.753 239.95C207.753 239.95 214.091 239.95 223.841 239.95H262.596C291.602 239.95 298.427 254.337 316.22 289.695L372.525 289.452C372.525 289.452 372.525 285.306 372.525 278.234L587.508 277.747C588.483 259.946 590.433 223.856 590.433 189.716C590.433 188.497 590.433 187.522 590.433 186.302C590.433 176.548 588.727 165.819 585.802 155.09C574.346 113.147 545.34 68.5223 533.397 52.1842C529.497 46.8195 526.084 42.1864 523.159 38.0409C514.872 27.0676 509.266 21.459 498.785 21.459L238.222 22.1906C232.859 22.1906 227.984 25.8484 226.522 30.9692C204.097 113.391 207.51 176.061 207.753 239.95ZM427.368 51.2089C427.124 49.9896 428.099 49.0142 429.318 49.0142L508.535 48.7703C513.166 48.7703 517.797 51.2089 520.722 55.3544C551.677 97.5406 564.108 136.069 568.74 158.26L573.615 181.669C574.346 185.083 572.152 187.766 568.74 187.766H549.484C546.315 187.766 542.903 186.302 540.465 183.864L500.979 146.067C496.591 141.922 490.741 139.483 485.135 139.483H437.849L427.368 51.2089Z" fill="#CD2827"/>
<path d="M386.418 155.821C388.124 163.624 390.074 171.671 391.78 180.206C392.999 186.059 398.118 190.204 403.968 190.448C480.991 193.13 544.852 193.374 590.432 189.96C590.432 188.741 590.432 187.766 590.432 186.546C590.432 176.792 588.726 166.063 585.801 155.333L386.418 155.821Z" fill="#822626"/>
<path opacity="0.75" d="M244.072 49.2581L323.289 49.0142C327.92 49.0142 332.064 51.4527 334.257 55.5982C356.438 97.7845 361.069 136.313 361.069 158.503V181.913C361.069 185.327 358.388 188.01 354.976 188.01H335.72C332.551 188.01 329.382 186.546 327.432 184.108L295.746 146.311C292.089 142.165 286.971 139.483 281.365 139.727H234.078L241.634 51.4527C241.634 50.2334 242.609 49.2581 244.072 49.2581Z" fill="#402B2B"/>
<path d="M207.753 239.95C207.753 239.95 214.091 239.95 223.841 239.95H262.596C291.602 239.95 298.427 254.337 316.22 289.695L372.525 289.452C372.525 289.452 372.525 285.306 372.525 278.234L587.508 277.747C588.483 259.946 590.433 223.856 590.433 189.716C544.853 193.13 480.748 193.13 403.968 190.204C398.118 189.96 393 185.815 391.781 179.962C390.075 171.428 388.125 163.137 386.418 155.577C375.937 110.952 364.481 79.0079 349.369 44.3811C348.151 41.6987 350.1 38.5286 353.025 38.5286L523.159 38.0409C514.872 27.0676 509.266 21.459 498.785 21.459L238.222 22.1906C232.859 22.1906 227.984 25.8484 226.522 30.9692C204.097 113.391 207.51 176.061 207.753 239.95ZM233.834 139.727L241.39 51.4527C241.39 50.2335 242.609 49.2581 243.828 49.2581L323.045 49.0142C327.676 49.0142 331.82 51.4528 334.013 55.5982C356.194 97.7845 360.825 136.313 360.825 158.503V181.913C360.825 185.327 358.144 188.009 354.732 188.009H335.476C332.307 188.009 329.138 186.546 327.188 184.108L295.502 146.311C291.845 142.165 286.727 139.483 281.121 139.727H233.834Z" fill="url(#paint0_linear_480_424)"/>
<path d="M217.26 233.61C217.26 237.267 220.185 239.95 223.841 239.95H262.596C291.602 239.95 298.427 254.337 316.22 289.695L372.525 289.452C372.525 289.452 372.525 285.306 372.525 278.234L372.282 179.475C372.282 130.461 363.507 99.4915 340.351 50.4774C336.939 43.1619 329.383 38.5287 321.339 38.5287L237.491 38.7725C235.541 38.7725 234.078 39.9918 233.591 41.6988C217.016 104.612 217.016 207.03 217.26 233.61ZM233.835 139.727L241.391 51.4528C241.391 50.2335 242.609 49.2582 243.828 49.2582L323.045 49.0143C327.676 49.0143 331.82 51.4528 334.014 55.5983C356.194 97.7846 360.826 136.313 360.826 158.503V181.913C360.826 185.327 358.144 188.009 354.732 188.009H335.476C332.307 188.009 329.139 186.546 327.189 184.108L295.502 146.311C291.846 142.165 286.727 139.483 281.121 139.727H233.835Z" fill="url(#paint1_linear_480_424)"/>
<path d="M244.559 52.1842L323.289 51.9404C326.701 51.9404 329.87 53.8912 331.576 56.8175C354.488 100.467 358.144 139.239 358.144 158.26V181.669C358.144 183.376 356.682 184.839 354.976 184.839H335.72C333.282 184.839 331.089 183.864 329.626 182.157L297.939 144.36C293.796 139.483 287.702 136.557 281.121 136.557H237.247L244.559 52.1842ZM244.072 49.2581C242.853 49.2581 241.634 50.2334 241.634 51.4527L234.078 139.727H281.365C286.971 139.727 292.089 142.165 295.746 146.311L327.432 184.108C329.382 186.546 332.551 188.01 335.72 188.01H354.976C358.388 188.01 361.069 185.327 361.069 181.913V158.503C361.069 136.313 356.438 97.7845 334.257 55.5982C332.064 51.4527 327.92 49.0142 323.289 49.0142L244.072 49.2581Z" fill="#822626"/>
<path opacity="0.4" d="M372.281 231.659V278.235L457.348 277.991C456.373 265.798 454.18 254.093 450.523 243.12C449.061 238.731 445.405 235.56 440.774 234.829C422.005 232.634 398.118 231.659 372.281 231.659ZM544.365 277.991H586.533C587.264 267.749 587.995 251.167 588.727 232.39C578.489 232.878 568.983 233.853 560.452 235.073C555.821 235.804 552.165 238.974 550.703 243.364C547.29 254.093 545.34 265.798 544.365 277.991Z" fill="#CD2827"/>
<path d="M372.525 325.054L569.715 324.566C583.121 324.566 594.089 313.593 594.089 300.181V296.036C594.089 292.134 590.921 289.208 587.264 289.208L372.769 289.695L372.525 325.054Z" fill="#EE4D47"/>
<path d="M336.207 325.054H372.525V289.696H316.707L322.801 314.325C324.263 320.665 329.869 325.054 336.207 325.054Z" fill="#CD2827"/>
<path d="M249.434 196.057C257.721 196.301 273.808 198.008 273.808 203.86C273.808 209.712 259.671 211.663 248.215 211.663C236.759 211.663 235.54 205.323 234.565 202.641C233.834 199.958 233.103 195.813 249.434 196.057Z" fill="#CD2827"/>
<path d="M250.165 202.397C246.265 202.397 242.122 201.177 240.172 199.227C241.634 198.495 243.828 197.764 247.241 197.764C253.578 197.764 263.815 198.495 269.178 200.934C268.446 201.421 266.496 202.397 263.328 202.397C259.428 202.397 254.309 202.397 250.165 202.397Z" fill="#9B1616"/>
<path d="M266.496 207.03C267.959 207.03 268.69 207.274 268.934 207.518C264.546 209.468 256.503 210.2 252.603 210.2C246.997 210.2 243.097 210.2 241.878 208.981C242.853 208.249 245.047 207.03 247.24 207.03C250.165 207.274 264.546 207.03 266.496 207.03Z" fill="#9B1616"/>
<path d="M372.525 278.478C372.525 285.55 372.525 289.695 372.525 289.695L586.777 289.208C586.777 289.208 587.021 285.062 587.508 277.991L372.525 278.478Z" fill="#822626"/>
<g opacity="0.2">
<path d="M464.904 229.22V275.796L536.809 275.552V228.976C536.809 223.368 531.69 218.979 525.353 218.979H476.117C470.023 219.222 464.904 223.856 464.904 229.22Z" fill="#822626"/>
</g>
<path d="M560.939 274.089H576.051C579.951 274.089 583.364 270.919 583.364 266.773V259.214C583.364 255.312 580.195 251.899 576.051 251.899H560.939C557.039 251.899 553.627 255.069 553.627 259.214V266.773C553.627 270.919 557.039 274.089 560.939 274.089Z" fill="white"/>
<path d="M417.861 274.577H432.973C436.873 274.577 440.286 271.407 440.286 267.261V259.702C440.286 255.8 437.117 252.386 432.973 252.386H417.861C413.961 252.386 410.549 255.556 410.549 259.702V267.261C410.549 271.163 413.718 274.577 417.861 274.577Z" fill="white"/>
<path d="M320.363 145.092C320.363 146.067 321.094 146.799 321.825 147.042C331.332 148.018 341.325 148.018 351.562 146.799C352.781 146.555 353.512 145.823 353.512 144.604C354.244 125.096 354.244 106.075 353.512 88.0304C353.512 86.8112 352.537 86.0796 351.562 85.8358C341.081 84.6165 330.6 84.6165 319.632 85.8358C318.657 86.0796 317.926 87.055 317.926 88.0304C317.194 106.319 318.169 125.34 320.363 145.092Z" fill="#CD2827"/>
<path d="M358.143 162.405C358.874 162.405 359.605 161.917 359.849 161.186C360.337 160.21 359.849 158.991 358.874 158.504L342.3 150.456C339.862 149.237 338.156 146.555 338.156 143.872L337.912 82.6656C337.912 82.4218 338.156 82.4218 338.156 82.4218H348.393C349.612 82.4218 350.343 81.4464 350.343 80.471C350.343 79.2517 349.368 78.5202 348.393 78.5202H338.156C335.718 78.5202 333.769 80.471 333.769 82.9095L334.012 144.116C334.012 148.506 336.45 152.407 340.35 154.358L356.924 162.405C357.656 162.405 357.899 162.405 358.143 162.405Z" fill="#822626"/>
<path d="M469.93 327.942L538.909 327.792L538.864 307.065L469.885 307.215L469.93 327.942Z" fill="white"/>
<path opacity="0.8" d="M348.9 45.1184C364.012 79.7453 375.225 111.69 385.949 156.315L585.333 155.827C573.877 113.884 544.871 69.2596 532.928 52.9216C529.028 47.5569 525.615 42.9237 522.69 38.7783L352.556 39.266C349.631 39.5098 347.681 42.436 348.9 45.1184Z" fill="#8E6362"/>
<defs>
<linearGradient id="paint0_linear_480_424" x1="398.931" y1="-40.6307" x2="398.931" y2="297.04" gradientUnits="userSpaceOnUse">
<stop stop-color="#F4A984"/>
<stop offset="1" stop-color="#EE4D47"/>
</linearGradient>
<linearGradient id="paint1_linear_480_424" x1="294.868" y1="-288.354" x2="294.868" y2="296.573" gradientUnits="userSpaceOnUse">
<stop stop-color="#F4A984"/>
<stop offset="0.560769" stop-color="#EE4D47"/>
</linearGradient>
</defs>
</svg>
