<svg width="576" height="480" viewBox="0 0 576 480" fill="none" xmlns="http://www.w3.org/2000/svg">
<path d="M333.969 438.279C393.666 471.303 525.769 419.964 525.768 293.221C525.767 88.0854 338.805 53.0711 229.206 53.0711C32.6636 53.0711 -39.5115 275.139 193.748 293.221C401.663 309.338 206.52 367.772 333.969 438.279Z" fill="#FCDDD4"/>
<mask id="mask0_495_1" style="mask-type:alpha" maskUnits="userSpaceOnUse" x="47" y="53" width="479" height="396">
<path d="M333.916 438.279C393.612 471.303 525.715 419.964 525.714 293.221C525.713 88.0854 338.751 53.0711 229.153 53.0711C32.6099 53.0711 -39.5652 275.139 193.694 293.221C401.609 309.338 206.466 367.772 333.916 438.279Z" fill="#F6A182"/>
</mask>
<g mask="url(#mask0_495_1)">
<path opacity="0.7" d="M59 310.876C80.1564 283.391 136.192 229.795 191.085 235.292C259.7 242.164 129.331 371 191.085 371C252.838 371 282 212.961 326.6 212.961C371.2 212.961 276.854 329.772 326.6 336.644C376.346 343.515 417.515 171.733 472.408 170.015C527.3 168.298 415.8 310.876 505 310.876" stroke="url(#paint0_linear_495_1)" stroke-width="2"/>
<path d="M341.394 228.524C341.394 228.524 337.565 338.165 341.029 462.765C341.029 462.765 351.423 472.616 371.117 466.049C371.117 466.049 370.935 327.402 376.223 272.308C376.223 272.308 401.023 377.023 432.387 467.691C432.387 467.691 453.358 471.704 460.834 459.846C460.834 459.846 418.529 312.99 412.329 228.524H341.394Z" fill="url(#paint1_linear_495_1)"/>
<path d="M341.395 228.524H412.329C412.876 234.909 413.423 241.659 414.335 248.592C372.03 248.774 349.6 238.011 341.212 233.085C341.212 229.984 341.395 228.524 341.395 228.524Z" fill="#402B2B" fill-opacity="0.45" style="mix-blend-mode:multiply"/>
<path d="M170.246 274.685C170.246 295.138 182.025 311.664 196.512 311.664H222.778C237.265 311.664 248.909 295.003 248.909 274.685C248.909 254.232 237.13 237.707 222.643 237.707C222.372 237.707 222.237 237.707 221.966 237.707H196.512C181.89 237.707 170.246 254.232 170.246 274.685Z" fill="#F48767"/>
<path d="M-37.3076 271.57L68.4336 271.3L56.2483 264.12L-23.7684 264.256L-37.3076 271.57Z" fill="#402B2B"/>
<path d="M-137.092 211.295L-136.956 279.156L-51.1178 279.02L-23.7686 264.256L56.2482 264.121L80.8895 278.75L255.545 278.343C258.389 278.343 260.69 276.041 260.69 273.196L260.555 210.482L-137.092 211.295Z" fill="#F36F49"/>
<path d="M50.0214 226.736L187.038 226.465L186.767 102.256C186.767 97.2445 182.706 93.1809 177.561 93.1809L49.6152 93.4518L50.0214 226.736Z" fill="#F48767"/>
<path d="M-163.628 227.278L49.8857 226.872L49.6149 93.5875L-154.827 93.9939C-159.837 93.9939 -163.898 98.0574 -163.898 103.205L-163.628 227.278Z" fill="#F06A5B"/>
<path d="M152.917 274.685C152.917 295.138 141.274 311.664 126.787 311.664H100.656V299.202C91.0432 299.202 83.1904 288.23 83.1904 274.685C83.1904 261.14 90.9078 250.169 100.521 250.169V237.707H126.651C141.138 237.843 152.782 254.368 152.917 274.685Z" fill="#F48767"/>
<path d="M78.9951 274.957C78.9951 291.753 88.608 305.298 100.522 305.162C112.437 305.162 121.914 291.617 121.914 274.821C121.914 258.025 112.302 244.48 100.387 244.616C88.608 244.616 78.9951 258.161 78.9951 274.957Z" fill="#F48767"/>
<path d="M100.521 294.867C108.374 294.867 114.602 285.928 114.602 274.821C114.602 263.714 108.238 254.909 100.385 254.909C92.5327 254.909 86.3047 263.849 86.3047 274.956C86.3047 286.063 92.6681 294.867 100.521 294.867ZM100.521 263.036C105.124 263.036 108.915 268.319 108.915 274.821C108.915 281.322 105.124 286.74 100.521 286.74C95.9175 286.74 92.1265 281.458 92.1265 274.956C92.1265 268.319 95.7821 263.036 100.521 263.036Z" fill="#F7A58D"/>
<path d="M100.521 311.799C115.008 311.799 126.652 295.139 126.652 274.821C126.652 254.503 114.873 237.843 100.386 237.843C85.8986 237.843 74.2549 254.503 74.2549 274.821C74.2549 295.139 86.1694 311.934 100.521 311.799ZM100.386 244.615C112.3 244.615 121.913 258.16 121.913 274.821C121.913 291.617 112.436 305.162 100.521 305.162C88.6065 305.162 78.9936 291.617 78.9936 274.956C78.9936 258.16 88.6065 244.615 100.386 244.615Z" fill="#F7A58D"/>
<path d="M96.8662 274.821C96.8662 271.976 98.4909 269.809 100.386 269.809C102.282 269.809 103.907 272.112 104.042 274.821C104.042 277.665 102.417 279.833 100.522 279.833C98.4909 279.968 96.8662 277.665 96.8662 274.821Z" fill="#5B2929"/>
<path d="M277.749 173.504C277.749 174.046 278.155 174.452 278.561 174.588C279.644 174.858 283.706 174.858 284.924 174.452C285.466 174.317 286.007 173.91 286.007 173.233C286.414 162.397 286.414 151.832 286.007 141.808C286.007 141.131 285.466 140.725 284.924 140.589C283.57 140.183 278.832 139.912 277.342 140.454C276.801 140.589 276.395 141.131 276.395 141.673C276.124 151.967 276.53 162.532 277.749 173.504Z" fill="#F69276"/>
<path d="M271.116 183.121C271.251 183.121 271.386 183.121 271.657 182.985L280.864 178.38C283.03 177.296 284.384 175.129 284.384 172.691L284.249 138.693C284.249 137.338 283.166 136.254 281.812 136.254H256.493C255.816 136.254 255.41 136.796 255.41 137.338C255.41 138.015 255.952 138.422 256.493 138.422H281.812C281.947 138.422 281.947 138.557 281.947 138.557L282.082 172.555C282.082 174.181 281.135 175.535 279.781 176.213L270.574 180.818C270.032 181.089 269.762 181.766 270.032 182.308C270.303 182.985 270.709 183.121 271.116 183.121Z" fill="#F69276"/>
<path d="M68.4337 226.465C68.4337 226.465 71.9539 226.465 77.3696 226.465H98.897C115.009 226.465 118.8 234.456 128.683 254.097L159.959 253.961C159.959 253.961 159.959 251.659 159.959 247.731L279.375 247.46C279.916 237.572 280.999 217.525 280.999 198.562C280.999 197.884 280.999 197.343 280.999 196.665C280.999 191.247 280.052 185.288 278.427 179.328C272.063 156.03 255.952 131.242 249.318 122.167C247.151 119.187 245.256 116.614 243.631 114.311C239.028 108.216 235.914 105.1 230.092 105.1L85.3578 105.507C82.3791 105.507 79.6713 107.539 78.859 110.383C66.4029 156.166 68.2984 190.976 68.4337 226.465ZM190.422 121.625C190.287 120.948 190.828 120.406 191.505 120.406L235.508 120.271C238.08 120.271 240.653 121.625 242.277 123.928C259.472 147.361 266.377 168.762 268.949 181.089L271.657 194.092C272.063 195.988 270.845 197.478 268.949 197.478H258.254C256.493 197.478 254.598 196.665 253.244 195.311L231.31 174.316C228.873 172.013 225.624 170.659 222.51 170.659H196.244L190.422 121.625Z" fill="#F36F49"/>
<path d="M167.675 179.735C168.623 184.069 169.706 188.539 170.653 193.28C171.33 196.531 174.174 198.833 177.423 198.969C220.207 200.459 255.68 200.594 280.998 198.698C280.998 198.021 280.998 197.479 280.998 196.802C280.998 191.383 280.05 185.424 278.426 179.464L167.675 179.735Z" fill="#F6977C"/>
<path d="M88.6058 120.542L132.608 120.407C135.181 120.407 137.482 121.761 138.701 124.064C151.022 147.497 153.594 168.898 153.594 181.224V194.228C153.594 196.124 152.105 197.614 150.209 197.614H139.513C137.753 197.614 135.993 196.801 134.91 195.447L117.309 174.452C115.278 172.149 112.435 170.659 109.321 170.795H83.0547L87.2519 121.761C87.2519 121.084 87.7934 120.542 88.6058 120.542Z" fill="#F36F49"/>
<path d="M68.4337 226.465C68.4337 226.465 71.9539 226.465 77.3696 226.465H98.897C115.009 226.465 118.8 234.456 128.683 254.097L159.959 253.961C159.959 253.961 159.959 251.659 159.959 247.731L279.375 247.46C279.916 237.572 280.999 217.525 280.999 198.562C255.681 200.458 220.073 200.458 177.424 198.833C174.175 198.697 171.332 196.395 170.655 193.144C169.707 188.403 168.624 183.798 167.676 179.599C161.854 154.811 155.491 137.067 147.097 117.833C146.42 116.343 147.503 114.582 149.127 114.582L243.631 114.311C239.028 108.216 235.914 105.1 230.092 105.1L85.3578 105.507C82.3791 105.507 79.6713 107.539 78.859 110.383C66.4029 156.166 68.2984 190.976 68.4337 226.465ZM82.9207 170.794L87.1178 121.761C87.1178 121.084 87.7948 120.542 88.4718 120.542L132.474 120.406C135.047 120.406 137.348 121.761 138.567 124.064C150.888 147.497 153.46 168.898 153.46 181.224V194.227C153.46 196.124 151.971 197.614 150.075 197.614H139.379C137.619 197.614 135.859 196.801 134.776 195.446L117.175 174.451C115.144 172.149 112.301 170.659 109.187 170.794H82.9207Z" fill="#F7A58D"/>
<path d="M73.7132 222.943C73.7132 224.975 75.338 226.465 77.3689 226.465H98.8962C115.008 226.465 118.799 234.457 128.682 254.097L159.958 253.962C159.958 253.962 159.958 251.659 159.958 247.731L159.823 192.873C159.823 165.647 154.949 148.445 142.086 121.219C140.191 117.156 135.994 114.582 131.526 114.582L84.9508 114.718C83.8677 114.718 83.0553 115.395 82.7845 116.343C73.5779 151.29 73.5779 208.179 73.7132 222.943ZM82.9199 170.795L87.1171 121.761C87.1171 121.084 87.794 120.542 88.471 120.542L132.473 120.407C135.046 120.407 137.348 121.761 138.566 124.064C150.887 147.497 153.459 168.898 153.459 181.224V194.228C153.459 196.124 151.97 197.614 150.074 197.614H139.378C137.618 197.614 135.858 196.801 134.775 195.447L117.174 174.452C115.143 172.149 112.3 170.659 109.186 170.795H82.9199Z" fill="#F58A6B"/>
<path d="M88.8766 122.167L132.608 122.032C134.504 122.032 136.264 123.116 137.212 124.741C149.938 148.987 151.969 170.524 151.969 181.089V194.092C151.969 195.04 151.157 195.853 150.209 195.853H139.513C138.159 195.853 136.941 195.311 136.128 194.363L118.527 173.368C116.226 170.659 112.841 169.034 109.185 169.034H84.8148L88.8766 122.167ZM88.6058 120.542C87.9288 120.542 87.2519 121.084 87.2519 121.761L83.0547 170.795H109.321C112.435 170.795 115.278 172.149 117.309 174.452L134.91 195.447C135.993 196.801 137.753 197.614 139.513 197.614H150.209C152.105 197.614 153.594 196.124 153.594 194.228V181.224C153.594 168.898 151.022 147.497 138.701 124.064C137.482 121.761 135.181 120.407 132.608 120.407L88.6058 120.542Z" fill="#F7A58D"/>
<path d="M159.824 221.859V247.731L207.076 247.595C206.535 240.823 205.316 234.321 203.285 228.226C202.473 225.788 200.442 224.027 197.869 223.62C187.444 222.401 174.176 221.859 159.824 221.859ZM255.411 247.595H278.834C279.24 241.906 279.646 232.696 280.052 222.266C274.366 222.537 269.086 223.078 264.347 223.756C261.775 224.162 259.744 225.923 258.931 228.361C257.036 234.321 255.953 240.823 255.411 247.595Z" fill="#F6977C"/>
<path d="M159.959 273.738L269.491 273.467C276.938 273.467 283.03 267.371 283.03 259.921V257.619C283.03 255.452 281.27 253.826 279.239 253.826L160.094 254.097L159.959 273.738Z" fill="#F6977C"/>
<path d="M139.785 273.738H159.959V254.097H128.954L132.339 267.778C133.151 271.299 136.265 273.738 139.785 273.738Z" fill="#F7A58D"/>
<path d="M91.5853 202.084C96.1887 202.22 105.125 203.168 105.125 206.419C105.125 209.669 97.2718 210.753 90.9084 210.753C84.5449 210.753 83.8679 207.231 83.3264 205.741C82.9202 204.251 82.514 201.949 91.5853 202.084Z" fill="#F6977C"/>
<path d="M91.9915 205.606C89.8252 205.606 87.5236 204.928 86.4404 203.845C87.2528 203.438 88.4713 203.032 90.3668 203.032C93.887 203.032 99.5735 203.438 102.552 204.793C102.146 205.064 101.063 205.606 99.3027 205.606C97.1364 205.606 94.2932 205.606 91.9915 205.606Z" fill="#F47B58"/>
<path d="M101.063 208.179C101.876 208.179 102.282 208.315 102.417 208.45C99.9802 209.534 95.5122 209.94 93.3459 209.94C90.2319 209.94 88.0656 209.94 87.3887 209.263C87.9302 208.857 89.1488 208.179 90.3673 208.179C91.992 208.315 99.9802 208.179 101.063 208.179Z" fill="#F47B58"/>
<path d="M159.959 247.866C159.959 251.794 159.959 254.097 159.959 254.097L278.969 253.826C278.969 253.826 279.104 251.523 279.375 247.595L159.959 247.866Z" fill="#F58A6B"/>
<g opacity="0.2">
<path d="M211.273 220.505V246.376L251.214 246.24V220.369C251.214 217.254 248.371 214.816 244.851 214.816H217.501C214.117 214.951 211.273 217.525 211.273 220.505Z" fill="#F16036"/>
</g>
<path d="M264.617 245.428H273.012C275.178 245.428 277.073 243.667 277.073 241.364V237.166C277.073 234.998 275.313 233.102 273.012 233.102H264.617C262.451 233.102 260.556 234.863 260.556 237.166V241.364C260.556 243.667 262.451 245.428 264.617 245.428Z" fill="white"/>
<path d="M185.14 245.699H193.534C195.7 245.699 197.596 243.938 197.596 241.636V237.437C197.596 235.27 195.836 233.373 193.534 233.373H185.14C182.974 233.373 181.078 235.134 181.078 237.437V241.636C181.078 243.803 182.838 245.699 185.14 245.699Z" fill="white"/>
<path d="M130.984 173.775C130.984 174.317 131.39 174.723 131.797 174.859C137.077 175.4 142.628 175.4 148.315 174.723C148.992 174.588 149.398 174.181 149.398 173.504C149.804 162.668 149.804 152.103 149.398 142.079C149.398 141.402 148.856 140.996 148.315 140.86C142.493 140.183 136.671 140.183 130.578 140.86C130.037 140.996 129.63 141.538 129.63 142.079C129.224 152.238 129.766 162.803 130.984 173.775Z" fill="#F7A58D"/>
<path d="M151.969 183.392C152.375 183.392 152.781 183.121 152.917 182.715C153.187 182.173 152.917 181.496 152.375 181.225L143.168 176.755C141.814 176.078 140.867 174.588 140.867 173.098L140.731 139.099C140.731 138.964 140.867 138.964 140.867 138.964H146.553C147.23 138.964 147.636 138.422 147.636 137.88C147.636 137.203 147.095 136.797 146.553 136.797H140.867C139.513 136.797 138.43 137.88 138.43 139.235L138.565 173.233C138.565 175.671 139.919 177.838 142.085 178.922L151.292 183.392C151.698 183.392 151.834 183.392 151.969 183.392Z" fill="#F69276"/>
<path d="M214.065 275.341L252.381 275.258L252.356 263.745L214.04 263.828L214.065 275.341Z" fill="#F8B4A0"/>
<path opacity="0.6" d="M146.836 118.243C155.23 137.477 161.458 155.221 167.415 180.008L278.166 179.737C271.803 156.44 255.691 131.652 249.057 122.577C246.891 119.597 244.995 117.024 243.37 114.721L148.867 114.992C147.242 115.127 146.159 116.753 146.836 118.243Z" fill="url(#paint2_linear_495_1)"/>
<path d="M566.911 381.428H458.482V465.155H566.911V381.428Z" fill="#8C5E5E"/>
<path d="M495.327 381.428H485.151V393.013H495.327V381.428Z" fill="#A3774A"/>
<path d="M495.806 381.428H387.377V465.155H495.806V381.428Z" fill="#F7A58D"/>
<path d="M495.98 381.428H456.504V465.155H495.98V381.428Z" fill="#F58A6B"/>
<path d="M482.471 381.428H472.295V393.013H482.471V381.428Z" fill="white"/>
<path d="M424.22 381.428H414.044V393.013H424.22V381.428Z" fill="white"/>
<path d="M523.458 300.154H415.029V383.881H523.458V300.154Z" fill="#F7A58D"/>
<path d="M523.633 300.154H484.156V383.881H523.633V300.154Z" fill="#F58A6B"/>
<path d="M510.124 300.154H499.947V311.739H510.124V300.154Z" fill="white"/>
<path d="M451.872 300.154H441.696V311.739H451.872V300.154Z" fill="white"/>
</g>
<path d="M348.506 44.8168H366.011L368.382 34.2358C368.382 34.2358 361.453 38.2493 359.811 35.5129C358.17 32.7764 358.535 33.871 356.894 34.2358C355.253 34.6007 355.253 32.4115 353.247 33.6885C351.058 35.148 347.776 42.0803 348.506 44.8168Z" fill="#6B1912"/>
<path d="M310.012 182.23L327.338 156.039L352.32 163.292C351.353 171.028 335.262 194.184 327.338 204.794L310.012 182.23Z" fill="url(#paint3_linear_495_1)"/>
<path d="M312.43 172.754C320.936 134.06 337.658 107.543 337.658 107.543C347.071 109.609 350.523 142.522 350.523 142.522C348.527 154.016 342.47 183.891 337.658 194.915L312.43 172.754Z" fill="url(#paint4_linear_495_1)"/>
<path d="M337.564 107.114C337.564 107.114 338.476 128.093 341.211 228.977C341.211 228.977 366.011 241.565 415.428 232.808C415.428 232.808 415.61 202.525 422.357 175.708C422.357 175.708 434.939 125.174 428.557 110.397C428.557 110.397 388.258 85.4043 337.564 107.114Z" fill="url(#paint5_linear_495_1)"/>
<path d="M375.858 87.1188L375.493 100.181C375.493 100.181 378.593 104.742 386.069 105.289C393.545 105.654 397.192 101.458 397.192 101.458L397.922 82.0107C388.622 86.0242 379.505 87.6661 375.858 87.1188Z" fill="url(#paint6_linear_495_1)"/>
<path d="M376.587 81.7556L375.858 96.1676C379.505 96.7149 388.623 95.073 397.74 91.0595L398.287 81.7556H376.587Z" fill="url(#paint7_linear_495_1)" style="mix-blend-mode:multiply"/>
<path d="M426.004 138.856C426.004 138.856 415.246 163.12 411.416 174.066C407.587 184.829 407.587 227.7 387.528 235.909C387.528 235.909 408.863 234.632 415.61 232.808C415.61 232.808 415.975 200.518 422.54 175.707C422.54 175.707 427.098 149.62 428.922 137.762L426.004 138.856Z" fill="#EE4D47" fill-opacity="0.29" style="mix-blend-mode:multiply"/>
<path d="M411.78 50.0128C411.416 50.1952 411.051 56.033 411.051 56.033L409.592 68.2558L402.845 73.5463L399.016 75.1881C399.016 75.1881 393.363 72.8165 394.092 70.6274C394.822 68.6206 398.469 39.7967 399.198 39.7967C399.927 39.7967 405.763 43.9926 405.763 43.9926L411.78 50.0128Z" fill="#402B2B"/>
<path d="M358.351 39.0667C356.71 39.0667 359.263 59.1341 359.263 59.1341L362.181 51.1072L364.187 41.4383L358.351 39.0667Z" fill="#402B2B"/>
<path d="M361.088 43.0804L357.988 68.8031C357.988 68.8031 356.894 90.5123 374.764 91.7893C392.635 92.8839 404.852 75.1882 404.852 75.1882C404.852 75.1882 407.041 77.7422 409.411 73.3638C411.599 68.9855 410.14 63.1477 407.041 62.6005C403.758 62.2356 402.299 64.0599 401.935 66.7963C401.57 69.5328 401.205 71.5395 401.205 71.5395L398.47 71.1747L400.476 50.0128C400.476 50.0128 396.282 41.8034 391.541 40.1615C386.8 38.5196 382.606 45.0871 382.606 45.0871C382.606 45.0871 378.229 45.9993 374.035 45.0871C369.841 44.175 367.106 43.0804 367.106 43.0804C367.106 43.0804 364.553 43.8101 361.088 43.0804Z" fill="url(#paint8_linear_495_1)"/>
<path d="M374.035 81.9381C380.052 82.303 380.964 75.3706 380.964 75.3706C380.964 75.3706 367.105 73.7288 366.741 73.5463C366.741 73.5463 365.647 81.3908 374.035 81.9381Z" fill="#893D43"/>
<path d="M380.417 77.5598C380.964 76.2828 381.146 75.3706 381.146 75.3706C381.146 75.3706 367.288 73.7288 366.923 73.5463C366.923 73.5463 366.741 74.4584 366.923 75.9179L380.417 77.5598Z" fill="#FFFEFF"/>
<path d="M379.868 36.5127V17.9047C390.992 18.452 402.48 20.6412 408.133 27.5735C414.88 35.7829 411.05 54.7557 411.05 54.7557C411.05 54.7557 402.845 53.8436 401.386 51.1071C399.927 48.3707 386.068 44.5396 375.492 45.0869C364.916 45.6342 359.81 44.5396 354.522 39.9788C353.428 39.0667 352.516 37.7897 351.786 36.3302H379.868V36.5127Z" fill="#402B2B"/>
<path d="M412.328 47.8235C412.328 47.8235 404.487 45.2695 391.358 44.1749C369.294 34.8709 359.811 36.5128 359.811 36.5128C359.811 36.5128 359.994 29.398 361.999 24.4724C364.005 19.5467 377.499 12.6144 388.805 13.709C400.111 14.8036 411.781 23.1953 413.605 31.2223C415.064 37.4249 412.328 47.8235 412.328 47.8235Z" fill="url(#paint9_linear_495_1)"/>
<path d="M399.018 45.087C396.647 33.7763 379.688 28.121 367.653 28.3034C355.8 28.4858 347.412 38.3371 346.136 45.087C345.589 47.8235 347.777 48.1883 348.506 45.8167C349.053 44.1748 350.147 36.3304 361.089 37.2425C372.03 38.1547 371.483 48.0059 376.953 48.9181C382.059 49.8302 387.894 46.1816 399.018 45.087Z" fill="url(#paint10_linear_495_1)"/>
<path d="M362.364 47.6409V46.3639C362.911 46.3639 367.105 45.8166 372.211 46.9112L372.029 48.9179C367.835 47.6409 362.364 47.6409 362.364 47.6409Z" fill="#402B2B"/>
<path d="M393.181 52.2018C389.898 50.3775 383.699 49.4653 383.699 49.2829L384.428 47.4585C384.61 47.4585 390.263 48.5531 393.91 50.9248L393.181 52.2018Z" fill="#402B2B"/>
<path d="M374.947 58.4045C374.947 58.4045 374.4 62.2356 372.941 63.3301C371.483 64.4247 368.93 65.3369 368.565 66.2491C368.2 66.9788 368.93 68.4382 370.571 68.9855C372.212 69.5328 372.394 70.0801 372.394 70.0801C372.394 70.0801 369.112 70.445 367.471 68.4382C365.83 66.4315 367.653 64.7896 369.294 63.8775C370.935 62.9653 371.665 62.6005 372.394 62.0532C373.306 61.5059 374.947 58.4045 374.947 58.4045Z" fill="#D87C60"/>
<path d="M382.788 60.4111C382.788 62.2354 384.064 63.8773 385.705 63.8773C387.347 63.8773 388.623 62.4178 388.623 60.4111C388.623 58.5868 387.347 56.9449 385.705 56.9449C384.064 56.9449 382.788 58.4043 382.788 60.4111Z" fill="#402B2B"/>
<path d="M362.729 58.0397C362.729 59.864 364.006 61.5058 365.647 61.5058C367.288 61.5058 368.564 60.0464 368.564 58.0397C368.564 56.2154 367.288 54.5735 365.647 54.5735C364.006 54.7559 362.729 56.2154 362.729 58.0397Z" fill="#402B2B"/>
<path d="M274.316 138.174C273.557 136.758 274.09 134.995 275.506 134.237C276.922 133.478 278.685 134.011 279.444 135.427L289.061 153.372L283.933 156.12L274.316 138.174Z" fill="white"/>
<path d="M276.172 141.554L281.254 138.83L292.245 159.34L287.163 162.064L276.172 141.554Z" fill="#822626"/>
<path d="M350.709 193.706C348.453 189.193 348.963 185.648 349.5 184.439C351.784 185.782 356.512 189.193 357.156 192.095C357.801 194.996 356.35 198.676 355.544 200.153C354.873 199.885 352.966 198.219 350.709 193.706Z" fill="url(#paint11_linear_495_1)"/>
<path d="M253.909 162.229C252.965 159.026 255.366 155.816 258.705 155.816H320.003C322.22 155.816 324.172 157.276 324.799 159.403L347.626 236.884C348.57 240.087 346.169 243.297 342.83 243.297H281.532C279.315 243.297 277.363 241.837 276.736 239.71L253.909 162.229Z" fill="white"/>
<path d="M252.66 158.278C251.821 155.106 254.213 152 257.494 152H318.873C321.142 152 323.127 153.528 323.707 155.722L346.836 243.203C347.675 246.375 345.283 249.481 342.002 249.481H280.623C278.354 249.481 276.369 247.953 275.789 245.759L252.66 158.278Z" fill="url(#paint12_linear_495_1)"/>
<path fill-rule="evenodd" clip-rule="evenodd" d="M416.341 191.944C429.653 172.606 431.477 114.046 431.477 114.046C419.228 115.639 413.378 127.764 409.62 135.552C407.783 139.359 406.446 142.13 405.106 142.13L399.465 177.992L343.054 188.065C343.007 188.13 342.961 188.195 342.915 188.259C340.138 188.331 330.493 188.875 324.194 192.886C324.194 192.886 320.932 195.332 322.807 197.046C323.704 198.025 323.418 199.086 323.132 200.146C322.847 201.206 322.561 202.267 323.458 203.246C324.214 204.073 324.333 204.927 324.449 205.769C324.608 206.922 324.764 208.048 326.556 209.04C326.556 209.04 326.229 211.65 328.594 212.712C328.701 212.76 328.814 212.812 328.933 212.865C331.431 213.99 336.304 216.184 337.238 215.328C337.589 215.006 338.465 214.37 339.448 213.656C341.205 212.379 343.303 210.855 343.356 210.437C343.438 209.784 343.275 208.642 341.154 208.478C341.154 208.478 343.193 208.071 345.314 206.604C347.517 205.3 349.883 201.875 349.883 201.875L352.028 196.974C404.294 201.429 416.341 191.944 416.341 191.944Z" fill="url(#paint13_linear_495_1)"/>
<path d="M401.023 140.863L395.918 167.681L394.629 174.43L349.5 184.439C351.649 186.319 355.867 192.014 355.544 199.75C369.513 201.765 400.915 203.86 414.776 196.124C417.304 194.153 422.979 187.054 425.458 174.43C441.688 118.607 428.558 110.397 428.558 110.397C410.323 112.769 401.023 140.863 401.023 140.863Z" fill="url(#paint14_linear_495_1)"/>
<path d="M242.567 320.843C241.221 314.64 238.999 308.775 236.038 303.382C235.634 302.64 235.163 301.831 234.691 301.09C231.258 295.36 227.018 290.236 222.104 285.787C221.498 285.18 220.825 284.64 220.152 284.101C214.901 279.719 208.911 276.146 202.449 273.584C201.641 273.247 200.833 272.978 200.025 272.708C193.563 270.416 186.563 269.135 179.36 269C178.957 269 178.485 269 178.082 269C177.678 269 177.206 269 176.803 269C169.533 269.135 162.6 270.416 156.138 272.708C155.33 272.978 154.522 273.315 153.714 273.584C147.252 276.146 141.262 279.719 136.011 284.101C135.338 284.64 134.665 285.247 134.059 285.787C129.145 290.236 124.837 295.36 121.472 301.09C121 301.831 120.597 302.64 120.125 303.382C117.164 308.775 114.942 314.64 113.596 320.843C113.394 321.719 113.259 322.596 113.058 323.472C112.384 327.247 112.048 331.09 112.048 335H244.048C244.048 331.09 243.711 327.18 243.038 323.472C242.904 322.596 242.769 321.719 242.567 320.843Z" fill="#FCDDD4"/>
<path d="M324.154 354.411C322.471 346.705 319.694 339.418 315.992 332.717C315.487 331.796 314.898 330.791 314.309 329.869C310.018 322.75 304.717 316.384 298.575 310.856C297.818 310.102 296.976 309.432 296.135 308.762C289.572 303.318 282.083 298.878 274.006 295.696C272.996 295.277 271.987 294.942 270.977 294.607C262.899 291.759 254.149 290.168 245.146 290C244.641 290 244.052 290 243.547 290C243.042 290 242.453 290 241.948 290C232.861 290.168 224.195 291.759 216.117 294.607C215.107 294.942 214.098 295.361 213.088 295.696C205.011 298.878 197.522 303.318 190.959 308.762C190.118 309.432 189.276 310.186 188.519 310.856C182.377 316.384 176.992 322.75 172.785 329.869C172.196 330.791 171.691 331.796 171.102 332.717C167.4 339.418 164.623 346.705 162.94 354.411C162.688 355.499 162.519 356.588 162.267 357.677C161.426 362.368 161.005 367.142 161.005 372H326.005C326.005 367.142 325.584 362.284 324.743 357.677C324.574 356.588 324.406 355.499 324.154 354.411Z" fill="white"/>
<path d="M344.426 338.029C333.457 338.029 329.343 328.427 329.343 315.053C329.343 301.678 325.572 290.704 310.833 290.018C291.637 289.333 293.351 307.851 293.351 330.485C293.351 359.291 283.067 340.773 268.67 356.891C256.33 370.608 272.098 394.957 276.897 402.158H338.941C340.998 398.386 346.139 389.127 351.967 377.81C364.993 353.804 355.395 338.029 344.426 338.029Z" fill="#F37753"/>
<path opacity="0.2" fill-rule="evenodd" clip-rule="evenodd" d="M314.946 342.487H311.861V385.495L298.902 368.209L296.434 370.061L311.861 390.639V402.158H314.946V369.664L328.018 353.444L325.617 351.506L314.946 364.747V342.487Z" fill="white"/>
<rect x="264.053" y="402" width="90" height="50" fill="#FCDDD4"/>
<defs>
<linearGradient id="paint0_linear_495_1" x1="282" y1="217.584" x2="282" y2="415.302" gradientUnits="userSpaceOnUse">
<stop stop-color="#F37753"/>
<stop offset="1" stop-color="white" stop-opacity="0"/>
</linearGradient>
<linearGradient id="paint1_linear_495_1" x1="400.206" y1="160.694" x2="400.206" y2="468.345" gradientUnits="userSpaceOnUse">
<stop stop-color="#822626"/>
<stop offset="0.943497" stop-color="#402B2B"/>
</linearGradient>
<linearGradient id="paint2_linear_495_1" x1="198.5" y1="94" x2="251.5" y2="221" gradientUnits="userSpaceOnUse">
<stop stop-color="#F7A58D"/>
<stop offset="0.926161" stop-color="white"/>
</linearGradient>
<linearGradient id="paint3_linear_495_1" x1="329.852" y1="156.039" x2="329.852" y2="204.011" gradientUnits="userSpaceOnUse">
<stop stop-color="#FFB3B6"/>
<stop offset="1" stop-color="#FFC8C1"/>
</linearGradient>
<linearGradient id="paint4_linear_495_1" x1="319.28" y1="201.765" x2="346.679" y2="116.342" gradientUnits="userSpaceOnUse">
<stop stop-color="#F4A984"/>
<stop offset="1" stop-color="#EE4D47"/>
</linearGradient>
<linearGradient id="paint5_linear_495_1" x1="383.964" y1="45.8286" x2="383.964" y2="231.179" gradientUnits="userSpaceOnUse">
<stop stop-color="#F4A984"/>
<stop offset="1" stop-color="#EE4D47"/>
</linearGradient>
<linearGradient id="paint6_linear_495_1" x1="394.18" y1="99.2404" x2="375.727" y2="107.199" gradientUnits="userSpaceOnUse">
<stop stop-color="#FFB3B6"/>
<stop offset="1" stop-color="#FFC8C1"/>
</linearGradient>
<linearGradient id="paint7_linear_495_1" x1="394.545" y1="90.0869" x2="375.988" y2="97.9458" gradientUnits="userSpaceOnUse">
<stop stop-color="#FFB3B6" stop-opacity="0.31"/>
<stop offset="1" stop-color="#FFC8C1"/>
</linearGradient>
<linearGradient id="paint8_linear_495_1" x1="355.612" y1="85.5432" x2="359.559" y2="50.2727" gradientUnits="userSpaceOnUse">
<stop stop-color="#FFB3B6"/>
<stop offset="1" stop-color="#FFC8C1"/>
</linearGradient>
<linearGradient id="paint9_linear_495_1" x1="386.922" y1="-4.78764" x2="386.922" y2="48.2554" gradientUnits="userSpaceOnUse">
<stop stop-color="#F4A984"/>
<stop offset="1" stop-color="#EE4D47"/>
</linearGradient>
<linearGradient id="paint10_linear_495_1" x1="388.309" y1="23.0468" x2="388.309" y2="78.1906" gradientUnits="userSpaceOnUse">
<stop stop-color="#F4A984"/>
<stop offset="1" stop-color="#EE4D47"/>
</linearGradient>
<linearGradient id="paint11_linear_495_1" x1="356.753" y1="185.245" x2="337.977" y2="192.679" gradientUnits="userSpaceOnUse">
<stop stop-color="#F4A984"/>
<stop offset="1" stop-color="#EE4D47"/>
</linearGradient>
<linearGradient id="paint12_linear_495_1" x1="348" y1="201" x2="170" y2="235" gradientUnits="userSpaceOnUse">
<stop stop-color="#F58A6B"/>
<stop offset="1" stop-color="#F7A58D"/>
</linearGradient>
<linearGradient id="paint13_linear_495_1" x1="413.518" y1="164.845" x2="318.985" y2="196.356" gradientUnits="userSpaceOnUse">
<stop stop-color="#FFB3B6"/>
<stop offset="1" stop-color="#FFC8C1"/>
</linearGradient>
<linearGradient id="paint14_linear_495_1" x1="380.929" y1="151.398" x2="436.004" y2="188.557" gradientUnits="userSpaceOnUse">
<stop stop-color="#F4A984"/>
<stop offset="1" stop-color="#EE4D47"/>
</linearGradient>
</defs>
</svg>
