<svg width="518" height="407" viewBox="0 0 518 407" fill="none" xmlns="http://www.w3.org/2000/svg">
<path d="M240.465 20.8373C156.593 -36.4331 23.1387 28.4731 32.4648 165.02C48.3671 397.838 210.601 424.881 352.464 397.838C538.1 362.45 580.929 150.083 409.519 165.02C271.959 177.007 345.305 92.4253 240.465 20.8373Z" fill="#FCDDD4"/>
<path opacity="0.7" d="M84.9648 27.612C114.893 23.7438 182.355 25.3039 212.783 62.4906C250.817 108.974 91.3157 107.892 129.349 145.925C167.382 183.958 282.505 104.754 309.974 132.222C337.442 159.69 207.519 173.401 233.932 208.263C260.346 243.126 391.314 162.868 426.177 195.619C461.04 228.37 304.711 247.358 359.647 302.295" stroke="url(#paint0_linear_505_0)" stroke-width="2"/>
<path fill-rule="evenodd" clip-rule="evenodd" d="M36.368 185.676C38.0048 187.023 39.2845 188.466 40.2943 189.854L42.9258 186.343C41.6779 185.019 40.462 183.814 39.008 182.673L36.368 185.676Z" fill="#3E1A0B"/>
<path fill-rule="evenodd" clip-rule="evenodd" d="M44.901 191.808C43.4215 189.143 40.1181 188.243 37.4844 189.841L33.9941 192.052C31.3604 193.651 30.523 197.192 31.8835 199.889C33.3631 202.554 36.6665 203.454 39.3002 201.856L42.7905 199.645C45.4242 198.046 46.4125 194.592 44.901 191.808Z" fill="#F69E9F"/>
<path fill-rule="evenodd" clip-rule="evenodd" d="M186.099 80.2448L124.271 90.4336L120.978 70.5239C120.651 68.8258 119.046 67.5975 117.196 67.8379L68.1863 75.8677C66.4879 76.1953 65.2593 77.8001 65.4996 79.6491L68.793 99.5588L10.5129 109.18C9.05258 109.443 7.91113 110.897 8.17477 112.357L48.066 355.512C48.3296 356.972 49.7836 358.113 51.244 357.849L226.862 329.033C228.323 328.77 229.464 327.316 229.2 325.856L189.19 82.7332C189.133 81.0903 187.591 80.1001 186.099 80.2448Z" fill="url(#paint1_linear_505_0)"/>
<path fill-rule="evenodd" clip-rule="evenodd" d="M177.519 111.048L23.1873 136.456C21.846 136.688 20.9107 137.959 21.1425 139.3L55.7013 349.697C55.933 351.038 57.2042 351.973 58.5455 351.741L212.877 326.333C214.218 326.101 215.154 324.83 214.922 323.489L180.363 113.092C180.131 111.751 178.86 110.816 177.519 111.048Z" fill="#F36F49"/>
<path fill-rule="evenodd" clip-rule="evenodd" d="M177.045 103.591L26.4671 128.248C25.1258 128.48 24.3096 129.719 24.5413 131.06L58.2688 336.45C58.5005 337.791 59.7398 338.607 61.0811 338.376L211.746 313.567C213.087 313.335 213.903 312.096 213.672 310.755L179.944 105.365C179.625 104.175 178.386 103.359 177.045 103.591Z" fill="#FAFBFC"/>
<path opacity="0.8" d="M171.515 112.472L34.5329 135.017C33.7868 135.089 33.1364 135.518 32.7878 136.122C32.4392 136.726 32.2415 137.416 32.3138 138.162L63.4431 327.666C63.5154 328.412 63.9448 329.062 64.5485 329.411C65.1522 329.759 65.8431 329.957 66.5892 329.884L203.603 307.458C204.349 307.386 204.999 306.956 205.348 306.353C205.696 305.749 205.894 305.058 205.822 304.312L174.661 114.69C174.588 113.944 174.159 113.294 173.555 112.945C172.952 112.597 172.261 112.399 171.515 112.472ZM204.719 304.48C204.846 304.957 204.704 305.377 204.41 305.711C204.117 306.045 203.792 306.26 203.316 306.387L66.4531 328.9C65.9769 329.028 65.556 328.885 65.2223 328.592C64.8886 328.299 64.6738 327.974 64.5463 327.498L33.3852 137.875C33.2576 137.399 33.4 136.978 33.6933 136.645C33.9867 136.311 34.3119 136.096 34.7881 135.969L171.77 113.424C172.246 113.296 172.667 113.438 173 113.732C173.334 114.025 173.549 114.35 173.677 114.826L204.719 304.48Z" fill="#F58A6B"/>
<path fill-rule="evenodd" clip-rule="evenodd" d="M93.4714 77.3842C90.5507 77.9117 88.5931 80.6047 89.1203 83.5249C89.6476 86.445 92.341 88.4021 95.2617 87.8746C98.1824 87.3471 100.14 84.654 99.6128 81.7339C99.1174 78.9328 96.3921 76.8567 93.4714 77.3842Z" fill="#FAFBFC"/>
<path fill-rule="evenodd" clip-rule="evenodd" d="M134.594 85.627L57.5906 98.2237C55.8922 98.5512 54.6636 100.156 54.9039 102.005L58.4928 123.494C58.8203 125.192 60.4252 126.42 62.2746 126.18L139.278 113.583C140.976 113.256 142.205 111.651 141.964 109.802L138.463 88.162C138.016 86.4958 136.292 85.2995 134.594 85.627Z" fill="#F58A6B"/>
<path opacity="0.8" fill-rule="evenodd" clip-rule="evenodd" d="M93.1513 95.7113L63.8168 100.51C62.4755 100.742 61.5402 102.013 61.772 103.354L64.5615 119.955C64.7932 121.296 66.0644 122.231 67.4057 121.999L96.7403 117.2C98.0816 116.968 99.0168 115.697 98.7851 114.356L95.9956 97.7555C95.7638 96.4144 94.4926 95.4794 93.1513 95.7113Z" fill="#F36F49"/>
<path opacity="0.2" d="M89.0607 150.02L89.4004 152.087L170.024 138.834L169.684 136.767L89.0607 150.02Z" fill="#EE4D47"/>
<path opacity="0.2" d="M89.9103 155.251L90.25 157.318L170.873 144.065L170.533 141.998L89.9103 155.251Z" fill="#EE4D47"/>
<path opacity="0.2" d="M130.971 153.704L131.311 155.771L171.683 149.134L171.343 147.067L130.971 153.704Z" fill="#EE4D47"/>
<path opacity="0.2" d="M90.758 160.342L91.0977 162.409L128.916 156.192L128.577 154.125L90.758 160.342Z" fill="#EE4D47"/>
<path opacity="0.2" d="M94.6222 184.205L94.9619 186.272L175.585 173.019L175.245 170.952L94.6222 184.205Z" fill="#EE4D47"/>
<path opacity="0.2" d="M95.4718 189.437L95.8115 191.504L176.435 178.25L176.095 176.183L95.4718 189.437Z" fill="#EE4D47"/>
<path opacity="0.2" d="M136.655 187.87L136.995 189.937L177.367 183.3L177.028 181.233L136.655 187.87Z" fill="#EE4D47"/>
<path opacity="0.2" d="M96.3205 194.528L96.6602 196.594L134.479 190.378L134.139 188.311L96.3205 194.528Z" fill="#EE4D47"/>
<path opacity="0.2" d="M99.6789 214.865L100.019 216.932L180.642 203.678L180.302 201.612L99.6789 214.865Z" fill="#EE4D47"/>
<path opacity="0.2" d="M100.528 220.096L100.868 222.163L181.491 208.91L181.152 206.843L100.528 220.096Z" fill="#EE4D47"/>
<path opacity="0.2" d="M141.711 218.529L142.051 220.596L182.423 213.959L182.083 211.893L141.711 218.529Z" fill="#EE4D47"/>
<path opacity="0.2" d="M101.375 225.188L101.715 227.255L139.534 221.038L139.194 218.971L101.375 225.188Z" fill="#EE4D47"/>
<path opacity="0.2" d="M104.848 246.445L105.188 248.512L185.811 235.259L185.471 233.192L104.848 246.445Z" fill="#EE4D47"/>
<path opacity="0.2" d="M105.719 251.798L106.059 253.865L186.682 240.612L186.342 238.545L105.719 251.798Z" fill="#EE4D47"/>
<path opacity="0.2" d="M146.901 250.231L147.24 252.298L187.613 245.662L187.273 243.595L146.901 250.231Z" fill="#EE4D47"/>
<path opacity="0.2" d="M106.566 256.89L106.905 258.957L144.724 252.74L144.384 250.673L106.566 256.89Z" fill="#EE4D47"/>
<path opacity="0.2" d="M109.94 277.823L110.279 279.889L190.902 266.636L190.563 264.569L109.94 277.823Z" fill="#EE4D47"/>
<path opacity="0.2" d="M110.789 283.054L111.129 285.121L191.752 271.867L191.412 269.801L110.789 283.054Z" fill="#EE4D47"/>
<path opacity="0.2" d="M151.972 281.486L152.312 283.553L192.684 276.917L192.344 274.85L151.972 281.486Z" fill="#EE4D47"/>
<path opacity="0.2" d="M111.758 288.126L112.098 290.192L149.916 283.976L149.577 281.909L111.758 288.126Z" fill="#EE4D47"/>
<path opacity="0.2" d="M51.0215 150.37L50.0373 150.506L50.1734 151.49L53.2032 169.94L53.3393 170.924L54.3235 170.788L74.1179 167.525L75.1021 167.388L74.966 166.404L71.9362 147.955L71.8002 146.971L70.816 147.107L51.0215 150.37ZM72.8934 165.812L54.9165 168.715L52.1269 152.115L69.9849 149.243L72.8934 165.812Z" fill="#EE4D47"/>
<path opacity="0.2" d="M56.6583 185.214L55.6741 185.35L55.9293 186.302L58.959 204.752L59.0951 205.736L60.0793 205.6L79.8738 202.337L80.8579 202.201L80.7219 201.217L77.6921 182.767L77.556 181.783L76.5718 181.919L56.6583 185.214ZM78.5302 200.656L60.6723 203.527L57.8828 186.927L75.7407 184.055L78.5302 200.656Z" fill="#EE4D47"/>
<path opacity="0.2" d="M62.1494 218.566L61.1652 218.702L61.3013 219.686L64.3311 238.136L64.4672 239.12L65.4514 238.984L85.2458 235.721L86.23 235.585L86.0939 234.601L83.0641 216.151L82.9281 215.167L81.9439 215.303L62.1494 218.566ZM84.0214 234.008L66.1634 236.879L63.3739 220.279L81.2318 217.407L84.0214 234.008Z" fill="#EE4D47"/>
<path opacity="0.2" d="M67.7061 252.156L66.7219 252.292L66.858 253.276L69.9197 271.845L70.0557 272.829L71.0399 272.693L90.8344 269.43L91.8186 269.294L91.6825 268.31L88.6527 249.86L88.5166 248.876L87.5324 249.012L67.7061 252.156ZM89.578 267.598L71.7201 270.47L68.9306 253.869L86.7885 250.998L89.578 267.598Z" fill="#EE4D47"/>
<path opacity="0.2" d="M73.0616 284.524L72.0774 284.661L72.2134 285.645L75.2432 304.094L75.3793 305.078L76.3635 304.942L96.158 301.679L97.1422 301.543L97.0061 300.559L93.9763 282.109L93.8402 281.125L92.856 281.262L73.0616 284.524ZM94.9016 299.847L77.0437 302.719L74.2541 286.118L92.1121 283.247L94.9016 299.847Z" fill="#EE4D47"/>
<path d="M63.3355 159.188L53.0086 153.026L51.8438 154.869L63.1953 161.522L64.1008 162.045L64.6237 161.139L78.593 138.517L76.7819 137.472L63.3355 159.188Z" fill="#EE4D47"/>
<path d="M69.2277 194.984L58.9008 188.822L57.736 190.665L69.0875 197.318L69.9612 197.722L70.516 196.935L84.4534 174.194L82.6423 173.149L69.2277 194.984Z" fill="#F58A6B"/>
<path d="M80.507 263.268L70.0611 257.138L69.0153 258.949L80.2478 265.634L81.1534 266.156L81.6762 265.251L95.7646 242.597L93.9216 241.433L80.507 263.268Z" fill="#F58A6B"/>
<path fill-rule="evenodd" clip-rule="evenodd" d="M51.1058 369.239C50.0344 369.526 49.4244 370.582 49.7114 371.653C49.9984 372.725 51.0549 373.334 52.1263 373.047C53.1976 372.76 53.8076 371.704 53.5206 370.633C53.2336 369.562 52.1771 368.952 51.1058 369.239Z" fill="#FAFBFC"/>
<path d="M80.4957 360.838C81.2407 360.504 81.5734 359.629 81.2387 358.884C80.904 358.139 80.0286 357.806 79.2836 358.141C78.5385 358.476 78.2059 359.351 78.5406 360.096C78.8753 360.841 79.7506 361.173 80.4957 360.838Z" fill="#FAFBFC"/>
<path d="M121.281 348.777C121.873 348.618 122.224 348.01 122.065 347.419C121.907 346.827 121.299 346.476 120.707 346.635C120.115 346.793 119.764 347.401 119.923 347.993C120.081 348.585 120.689 348.936 121.281 348.777Z" fill="#FAFBFC"/>
<path fill-rule="evenodd" clip-rule="evenodd" d="M142.496 344.623C141.543 344.879 141.02 345.784 141.276 346.736C141.531 347.688 142.436 348.211 143.389 347.956C144.341 347.701 144.864 346.795 144.609 345.843C144.385 345.01 143.448 344.368 142.496 344.623Z" fill="#FAFBFC"/>
<path fill-rule="evenodd" clip-rule="evenodd" d="M174.749 337.384C174.391 337.48 174.217 337.782 174.313 338.139C174.408 338.496 174.71 338.67 175.067 338.575C175.425 338.479 175.599 338.177 175.503 337.82C175.527 337.431 175.106 337.289 174.749 337.384Z" fill="#FAFBFC"/>
<path fill-rule="evenodd" clip-rule="evenodd" d="M241.374 315.578C240.779 315.738 240.549 316.309 240.677 316.785C240.836 317.38 241.408 317.61 241.884 317.482C242.48 317.323 242.709 316.751 242.582 316.275C242.573 315.767 241.969 315.419 241.374 315.578Z" fill="#FAFBFC"/>
<path d="M352.479 124.052C352.479 113.006 343.525 104.052 332.479 104.052H257C245.954 104.052 237 113.006 237 124.052V134.454C237 145.5 245.954 154.454 257 154.454H352.479V124.052Z" fill="white"/>
<circle r="3.82804" transform="matrix(-1 0 0 1 326.321 129.572)" fill="#F4A984"/>
<circle r="3.82804" transform="matrix(-1 0 0 1 310.37 129.572)" fill="#F4A984"/>
<circle r="3.82804" transform="matrix(-1 0 0 1 294.42 129.572)" fill="#F4A984"/>
<circle r="3.82804" transform="matrix(-1 0 0 1 278.47 129.572)" fill="#F4A984"/>
<circle r="3.82804" transform="matrix(-1 0 0 1 262.52 129.572)" fill="#F4A984"/>
<path d="M203 291.552C159.4 291.552 181.5 228.552 198 197.051C206.833 190.385 228.5 176.952 244.5 176.552C260.5 176.152 270.5 196.052 273.5 206.052C271.667 206.218 269.8 213.852 277 243.052C284.2 272.252 280.667 287.552 278 291.552H203Z" fill="#402B2B"/>
<path d="M248.599 276.592C244.487 269.403 247.571 258.277 247.571 258.277L234.891 260.845L222.211 258.277C222.211 258.277 223.753 263.583 223.239 269.403C227.694 274.538 237.976 284.124 248.599 276.592Z" fill="url(#paint2_linear_505_0)"/>
<path d="M246.797 262.285C244.022 263.957 240.515 265.504 236.59 266.691C231.666 268.18 226.975 268.831 223.292 268.691C223.629 263.158 222.211 258.277 222.211 258.277L234.891 260.845L247.571 258.277C247.571 258.277 247.124 259.89 246.797 262.285Z" fill="url(#paint3_linear_505_0)" style="mix-blend-mode:multiply"/>
<path d="M203.876 286.691C211.244 293.196 225.809 307.403 235.062 307.403C244.316 307.403 260.766 293.88 268.134 287.376C264.535 286.007 253.569 281.727 250.998 279.502C250.142 278.646 249.285 277.619 248.771 276.592C238.147 284.124 227.866 274.538 223.41 269.232C223.068 272.998 222.04 276.763 219.126 279.331C216.213 281.727 207.303 285.322 203.876 286.691Z" fill="url(#paint4_linear_505_0)"/>
<path d="M269.776 219.422C268.576 217.197 266.692 216.854 265.492 217.197C265.492 217.197 262.065 206.242 259.666 198.197C251.612 194.431 244.073 191.179 234.991 190.494V190.323C233.62 190.323 231.221 190.323 229.85 190.323C224.196 190.494 218.541 190.665 213.058 191.692C211.687 192.035 210.316 192.377 208.945 192.377C207.232 201.449 204.319 217.368 203.119 217.197H202.948C202.776 217.197 202.776 217.197 202.605 217.025C201.406 216.683 200.035 217.025 198.835 219.079C196.779 222.845 198.835 230.377 201.577 232.602C202.948 233.629 204.147 234.485 205.004 234.998C206.375 241.845 208.774 248.349 212.372 252.286C221.797 262.385 230.536 264.611 232.935 264.953C233.106 264.953 233.449 264.953 233.62 264.953C233.62 264.953 233.792 264.953 233.963 264.953C235.676 264.782 245.101 263.07 255.211 252.115C258.809 248.349 261.38 245.611 262.922 235.512C263.95 234.998 264.978 234.142 266.692 232.773C269.776 230.719 271.832 223.188 269.776 219.422Z" fill="url(#paint5_linear_505_0)"/>
<path d="M234.736 229.052C234.736 229.052 234.868 232.908 233.825 234.177C232.782 235.446 230.803 236.674 230.64 237.623C230.449 238.391 231.277 239.739 232.722 240.07C234.167 240.4 234.402 240.918 234.402 240.918C234.402 240.918 231.735 241.699 230.067 239.926C228.399 238.154 229.661 236.297 230.883 235.185C232.105 234.073 232.654 233.619 233.176 232.985C233.849 232.327 234.736 229.052 234.736 229.052Z" fill="#D87C60"/>
<path d="M245.066 246.052H224.364C223.689 246.052 223.212 246.707 223.483 247.326C224.943 250.661 228.524 255.552 234.5 255.552C240.451 255.552 244.284 250.7 245.929 247.367C246.237 246.743 245.762 246.052 245.066 246.052Z" fill="#D87C60"/>
<path fill-rule="evenodd" clip-rule="evenodd" d="M244.976 249.052H224.367C224.015 248.454 223.721 247.869 223.484 247.326C223.213 246.707 223.689 246.052 224.365 246.052H245.066C245.762 246.052 246.238 246.743 245.93 247.367C245.667 247.898 245.349 248.469 244.976 249.052Z" fill="white"/>
<path d="M254.598 177.999C280.129 181.251 274.132 212.404 269.163 217.881L265.5 224.052C263.667 220.885 259.9 212.152 259.5 202.552C255.667 205.052 244.2 210.052 229 210.052C210 210.052 204.792 213.197 203 222.052C198.545 212.124 195.481 192.035 206.447 180.738C221.526 164.99 244.316 161.224 254.598 177.999Z" fill="#402B2B"/>
<path d="M203.019 221.989L203.876 229.35C203.876 229.35 201.305 227.98 200.791 224.557C200.62 222.503 201.477 221.134 203.019 221.989Z" fill="#ED8A40"/>
<path d="M265.219 221.989L264.362 229.35C264.362 229.35 266.933 227.98 267.447 224.557C267.618 222.503 266.933 221.134 265.219 221.989Z" fill="#ED8A40"/>
<path d="M251.685 230.312C251.685 231.853 250.486 233.222 248.772 233.222C247.23 233.222 245.859 232.024 245.859 230.312C245.859 228.772 247.059 227.402 248.772 227.402C250.486 227.402 251.685 228.772 251.685 230.312Z" fill="#402B2B"/>
<path d="M221.184 233.222C222.792 233.222 224.097 231.919 224.097 230.312C224.097 228.705 222.792 227.402 221.184 227.402C219.575 227.402 218.271 228.705 218.271 230.312C218.271 231.919 219.575 233.222 221.184 233.222Z" fill="#402B2B"/>
<path d="M213.541 224.912C214.79 223.55 218.446 220.825 223.078 220.825" stroke="#402B2B" stroke-width="2"/>
<path d="M246.58 220.942C248.427 220.862 252.939 221.52 256.215 224.796" stroke="#402B2B" stroke-width="2"/>
<path d="M296.065 325.547C296.75 307.061 291.096 296.106 282.528 291.484C273.96 286.863 253.741 281.043 253.055 280.872L234.72 295.421L217.242 280.872C216.557 281.043 195.823 286.863 187.427 291.484C178.859 296.106 173.204 307.061 173.89 325.547C174.404 340.439 173.375 363.889 173.547 381.006H296.579C296.579 363.889 295.551 340.439 296.065 325.547Z" fill="url(#paint6_linear_505_0)"/>
<path d="M244.83 287.205L240.032 284.98L234.548 295.079L229.065 284.98L224.096 287.205L231.293 298.845V381.006H237.975V298.331L244.83 287.205Z" fill="#EE4D47" fill-opacity="0.29" style="mix-blend-mode:multiply"/>
<path d="M223.239 269.232C223.068 274.196 230.094 287.034 230.094 287.034L217.927 298.844L213.986 281.728C213.986 281.728 217.927 271.286 223.239 269.232Z" fill="white"/>
<path d="M246.543 269.232C246.714 274.196 238.832 287.205 238.832 287.205L251.684 298.844L255.625 281.556C255.625 281.556 251.855 271.286 246.543 269.232Z" fill="white"/>
<path d="M236.607 301.754C236.607 302.781 235.75 303.637 234.722 303.637C233.694 303.637 232.837 302.781 232.837 301.754C232.837 300.727 233.694 299.872 234.722 299.872C235.75 299.872 236.607 300.727 236.607 301.754Z" fill="white"/>
<path d="M236.606 319.214C236.606 320.241 235.749 321.097 234.721 321.097C233.693 321.097 232.836 320.241 232.836 319.214C232.836 318.187 233.693 317.331 234.721 317.331C235.749 317.331 236.606 318.015 236.606 319.214Z" fill="white"/>
<path d="M236.606 336.331C236.606 337.358 235.749 338.213 234.721 338.213C233.693 338.213 232.836 337.358 232.836 336.331C232.836 335.304 233.693 334.448 234.721 334.448C235.749 334.448 236.606 335.304 236.606 336.331Z" fill="white"/>
<path d="M236.606 355.33C236.606 356.358 235.749 357.213 234.721 357.213C233.693 357.213 232.836 356.358 232.836 355.33C232.836 354.303 233.693 353.448 234.721 353.448C235.749 353.448 236.606 354.303 236.606 355.33Z" fill="white"/>
<path d="M176.631 296.619C176.631 296.619 158.467 345.403 157.097 353.448C155.897 361.493 166.178 380.15 170.976 380.835C178.002 381.862 183.656 379.808 190.682 367.826C197.536 355.844 196.337 304.664 196.337 304.664L176.631 296.619Z" fill="url(#paint7_linear_505_0)"/>
<path d="M196.508 299.872C196.508 299.872 195.308 358.754 192.738 366.114C188.625 377.925 178.173 381.177 178.173 381.177H189.825C189.825 381.177 198.907 375.186 199.763 357.213C200.278 346.43 198.393 312.025 197.365 300.556C197.022 297.475 196.508 299.872 196.508 299.872Z" fill="#EE4D47" fill-opacity="0.29" style="mix-blend-mode:multiply"/>
<path d="M200.535 294.315L180.834 286.364L176.726 296.521L196.427 304.472L200.535 294.315Z" fill="white"/>
<path d="M274.989 308.259C274.989 308.259 267.963 341.637 267.449 355.331C266.935 369.024 267.449 380.835 267.449 380.835L272.418 381.177C272.418 381.177 273.618 321.268 274.989 308.259Z" fill="#EE4D47" fill-opacity="0.29" style="mix-blend-mode:multiply"/>
<path d="M215.356 262.043C205.931 262.043 202.847 257.422 200.962 250.404C200.105 246.638 199.763 236.539 199.763 236.197H202.504C202.504 236.368 202.847 246.467 203.704 249.89C205.417 256.566 207.988 259.989 217.241 259.304L217.412 262.043C216.727 262.043 216.041 262.043 215.356 262.043Z" fill="white"/>
<path d="M234.72 168.927C227.18 168.242 209.873 168.756 201.991 183.819C201.991 183.819 204.047 187.413 206.446 185.017C215.014 177.314 227.009 177.143 234.377 177.143C241.917 177.143 254.426 177.143 262.822 185.017C265.392 187.242 267.277 183.819 267.277 183.819C259.566 168.756 242.259 168.242 234.72 168.927Z" fill="white"/>
<path d="M275.33 220.62C275.33 220.62 274.988 210.179 274.816 207.269C274.474 201.62 273.617 192.377 271.732 187.413C265.563 170.467 245.515 167.215 235.062 167.215C224.438 167.215 204.047 170.467 197.878 187.242C196.165 192.035 195.308 200.593 194.794 206.413C194.623 209.836 194.451 220.449 194.451 220.449H197.364C197.364 220.449 197.364 209.836 197.707 206.413C198.05 201.962 198.906 195.458 201.134 189.296C206.275 174.747 225.295 173.206 234.548 173.206C243.973 173.206 263.336 174.747 268.476 189.296C270.875 196.143 271.732 203.161 272.075 207.611C272.246 210.521 272.417 220.62 272.417 220.62H275.33V220.62Z" fill="url(#paint8_linear_505_0)"/>
<path d="M198.05 218.566H194.28V234.656H198.05V218.566Z" fill="white"/>
<path d="M204.733 237.737H200.449C198.393 237.737 196.68 236.025 196.68 233.971V219.251C196.68 217.197 198.393 215.485 200.449 215.485H204.733C205.247 215.485 205.59 215.827 205.59 216.341V236.71C205.59 237.223 205.247 237.737 204.733 237.737Z" fill="url(#paint9_linear_505_0)"/>
<path d="M192.738 236.025H192.567C191.71 236.025 191.024 235.341 191.024 234.485V218.395C191.024 217.539 191.71 216.854 192.567 216.854H192.738C193.595 216.854 194.28 217.539 194.28 218.395V234.485C194.28 235.341 193.595 236.025 192.738 236.025Z" fill="url(#paint10_linear_505_0)"/>
<path d="M271.177 234.934H274.947V218.844H271.177V234.934Z" fill="white"/>
<path d="M264.707 238.079H268.991C271.047 238.079 272.76 236.367 272.76 234.313V219.593C272.76 217.539 271.047 215.827 268.991 215.827H264.707C264.193 215.827 263.85 216.169 263.85 216.683V237.052C263.679 237.566 264.193 238.079 264.707 238.079Z" fill="url(#paint11_linear_505_0)"/>
<path d="M276.53 236.368H276.702C277.559 236.368 278.244 235.683 278.244 234.827V218.737C278.244 217.881 277.559 217.197 276.702 217.197H276.53C275.674 217.197 274.988 217.881 274.988 218.737V234.827C274.988 235.683 275.674 236.368 276.53 236.368Z" fill="url(#paint12_linear_505_0)"/>
<path d="M225.467 260.331C225.467 262.043 223.411 263.584 220.669 263.584C218.099 263.584 215.871 262.214 215.871 260.331C215.871 258.448 217.927 257.079 220.669 257.079C223.239 257.079 225.467 258.448 225.467 260.331Z" fill="url(#paint13_linear_505_0)"/>
<path fill-rule="evenodd" clip-rule="evenodd" d="M189.654 249.377L189.655 249.376C191.249 247.884 193.074 246.854 194.828 245.985C197.981 243.945 201.657 241.625 203.02 240.989C205.762 239.62 207.475 242.016 203.534 245.44C202.679 246.183 201.686 246.974 200.657 247.758C202.797 246.938 204.691 246.234 205.59 245.953C208.503 245.098 209.874 247.836 205.247 250.404C203.365 251.448 201.002 252.577 198.86 253.55L199.593 255.881C199.593 255.881 201.65 253.998 202.335 253.485C206.619 250.575 208.846 252.971 206.962 255.539C204.905 258.106 201.821 265.467 202.849 270.602C203.534 274.025 203.02 278.818 202.164 282.584C201.307 286.178 195.995 296.791 195.995 296.791L182.287 291.998C182.287 291.998 185.371 288.746 184.857 280.872C184.705 278.291 183.677 275.576 182.654 272.875C181.371 269.485 180.096 266.119 180.573 263.07C181.43 258.278 188.455 250.576 189.655 249.377L189.654 249.377Z" fill="url(#paint14_linear_505_0)"/>
<path opacity="0.3" d="M201.992 269.917C202.335 265.638 201.992 264.782 201.649 262.728C201.306 260.331 201.821 257.25 200.792 255.025C199.593 252.629 197.708 251.26 194.452 251.944C190.168 252.971 188.455 255.196 188.455 255.196C188.455 255.196 191.882 253.827 193.596 253.314C196.166 252.629 198.736 252.8 199.764 255.881C200.278 257.764 200.621 260.331 200.964 262.214C201.135 263.584 202.163 269.575 201.306 269.746C200.45 269.746 198.565 269.232 197.708 266.151C197.537 266.836 197.365 271.458 196.851 271.458C193.767 271.115 193.424 268.719 193.253 266.151C193.253 264.953 193.081 263.241 192.739 261.016C191.539 262.899 188.626 264.611 187.427 265.467C188.798 266.665 191.368 269.575 192.396 270.773C194.281 272.998 195.994 276.421 196.337 280.016C200.964 275.566 198.393 270.944 198.222 269.403C199.422 270.773 201.821 271.8 201.992 269.917Z" fill="#EB5046"/>
<path d="M396.309 269.917C396.309 267.349 394.252 265.467 391.511 265.467H264.88C262.31 265.467 260.082 267.521 260.082 269.917V348.655H396.137V269.917H396.309Z" fill="url(#paint15_linear_505_0)"/>
<path d="M265.051 363.547H391.682C394.252 363.547 396.48 361.493 396.48 359.096V348.826H260.424V359.096C260.253 361.493 262.481 363.547 265.051 363.547Z" fill="#CA3F3A"/>
<path d="M348.159 361.664H314.23V377.754H348.159V361.664Z" fill="#CA3F3A"/>
<path d="M352.27 361.664H318.342V377.754H352.27V361.664Z" fill="url(#paint16_linear_505_0)"/>
<path d="M346.616 376.213H304.634V380.835H346.616V376.213Z" fill="url(#paint17_linear_505_0)"/>
<path d="M360.324 376.213H318.342V380.835H360.324V376.213Z" fill="url(#paint18_linear_505_0)"/>
<path d="M403.334 269.917C403.334 267.349 401.278 265.467 398.537 265.467H272.077C269.507 265.467 267.279 267.521 267.279 269.917V348.655H403.334V269.917Z" fill="url(#paint19_linear_505_0)"/>
<path d="M272.077 363.547H398.708C401.278 363.547 403.506 361.493 403.506 359.096V348.826H267.45V359.096C267.279 361.493 269.335 363.547 272.077 363.547Z" fill="url(#paint20_linear_505_0)"/>
<path opacity="0.2" d="M347.644 299.872C347.644 306.718 342.16 312.196 335.306 312.196C328.452 312.196 322.969 306.718 322.969 299.872C322.969 293.025 328.452 287.547 335.306 287.547C342.16 287.547 347.644 293.025 347.644 299.872Z" fill="white"/>
<path d="M232.664 376.213H203.362V380.664H232.664V376.213Z" fill="url(#paint21_linear_505_0)"/>
<path d="M281.329 376.213H219.812V380.664H281.329V376.213Z" fill="url(#paint22_linear_505_0)"/>
<g clip-path="url(#clip0_505_0)">
<path d="M472 347.022H392V380.953H472V347.022Z" fill="#FCDDD4"/>
<path fill-rule="evenodd" clip-rule="evenodd" d="M432.445 338.177V338.254C433.079 336.485 434.35 333.669 436.488 329.469C440.73 321.427 445.465 315.249 445.465 315.249C445.465 315.249 443.393 322.114 439.152 330.155C435.401 337.352 433.347 340.256 432.445 340.696V341.106C433.532 339.677 435.924 337.226 440.138 333.391C447.142 327.115 454.047 322.604 454.047 322.604C454.047 322.604 449.608 328.39 442.604 334.764C438.497 338.451 435.775 340.661 434.076 341.794C435.806 340.725 438.496 339.258 442.407 337.314C451.088 332.999 458.979 330.351 458.979 330.351C458.979 330.351 452.864 334.764 444.183 339.079C437.572 342.44 433.993 343.867 432.445 344.14V344.435C433.837 343.664 437.398 342.428 444.183 340.55C453.751 337.902 462.136 336.726 462.136 336.726C462.136 336.726 454.836 339.962 445.268 342.61C442.148 343.473 439.658 344.107 437.708 344.549C439.683 344.22 442.235 343.866 445.465 343.492C455.625 342.217 464.108 342.315 464.108 342.315C464.108 342.315 456.118 344.473 445.958 345.65C437.778 346.676 433.754 346.812 432.445 346.52V346.728H431.458V346.588C431.276 346.641 431.022 346.684 430.668 346.728H427.808C425.638 346.63 422.382 346.434 417.845 345.846C407.684 344.571 399.694 342.511 399.694 342.511C399.694 342.511 408.178 342.413 418.338 343.688C421.391 344.042 423.838 344.369 425.765 344.669C423.867 344.232 421.481 343.621 418.535 342.806C408.868 340.158 401.667 336.922 401.667 336.922C401.667 336.922 410.052 338.098 419.62 340.746C426.574 342.67 430.141 343.921 431.458 344.687V344.341C429.966 344.091 426.377 342.634 419.621 339.275C410.94 334.96 404.824 330.547 404.824 330.547C404.824 330.547 412.716 333.195 421.396 337.51C425.063 339.333 427.656 340.735 429.391 341.785C427.663 340.599 425.017 338.435 421.199 334.96C414.195 328.586 409.756 322.8 409.756 322.8C409.756 322.8 416.661 327.213 423.665 333.587C426.675 336.327 428.756 338.361 430.096 339.82C428.945 338.331 427.158 335.389 424.552 330.449C420.311 322.408 418.239 315.543 418.239 315.543C418.239 315.543 423.073 321.721 427.216 329.763C429.606 334.402 430.913 337.377 431.458 339.101V338.179C430.928 336.962 430.57 333.445 430.57 326.429C430.57 317.406 431.951 310.052 431.951 310.052C431.951 310.052 433.332 317.406 433.332 326.429C433.332 333.441 432.974 336.958 432.445 338.177ZM431.458 341.049C431.312 341.038 431.121 340.928 430.879 340.706C431.106 340.976 431.298 341.218 431.458 341.435V341.049ZM431.458 342.91C431.217 342.847 430.905 342.711 430.515 342.493C430.893 342.744 431.206 342.967 431.458 343.164V342.91ZM432.445 342.892C432.716 342.685 433.049 342.452 433.45 342.191C433.037 342.437 432.704 342.598 432.445 342.683V342.892ZM431.458 345.57C431.14 345.591 430.692 345.569 430.096 345.497C430.727 345.658 431.173 345.808 431.458 345.947V345.57ZM432.445 345.79C432.815 345.62 433.403 345.431 434.246 345.227C433.443 345.347 432.851 345.394 432.445 345.379V345.79Z" fill="#F37753"/>
<path d="M426.624 346.728H408.178C411.039 346.532 414.491 346.434 418.141 346.434C421.692 346.434 424.553 346.532 426.624 346.728Z" fill="#F37753"/>
<path d="M437.179 346.728H455.625C452.765 346.532 449.312 346.336 445.662 346.434C442.012 346.532 439.25 346.63 437.179 346.728Z" fill="#F37753"/>
</g>
<path d="M305 185.052C305 174.006 313.954 165.052 325 165.052H437.619C448.664 165.052 457.619 174.006 457.619 185.052V211.664C457.619 222.71 448.664 231.664 437.619 231.664H305V185.052Z" fill="#F69477"/>
<circle opacity="0.5" cx="339.571" cy="198.78" r="5.05919" fill="white"/>
<circle opacity="0.5" cx="360.651" cy="198.78" r="5.05919" fill="white"/>
<circle opacity="0.5" cx="381.731" cy="198.78" r="5.05919" fill="white"/>
<circle opacity="0.5" cx="402.811" cy="198.78" r="5.05919" fill="white"/>
<circle opacity="0.5" cx="423.891" cy="198.78" r="5.05919" fill="white"/>
<defs>
<linearGradient id="paint0_linear_505_0" x1="279.664" y1="107.596" x2="158.105" y2="229.155" gradientUnits="userSpaceOnUse">
<stop stop-color="#F37753"/>
<stop offset="1" stop-color="white" stop-opacity="0"/>
</linearGradient>
<linearGradient id="paint1_linear_505_0" x1="101.523" y1="30.0345" x2="149.128" y2="356.013" gradientUnits="userSpaceOnUse">
<stop stop-color="#F7A58D"/>
<stop offset="1" stop-color="#F58A6B"/>
</linearGradient>
<linearGradient id="paint2_linear_505_0" x1="249.788" y1="268.548" x2="246.733" y2="234.762" gradientUnits="userSpaceOnUse">
<stop stop-color="#FFB3B6"/>
<stop offset="1" stop-color="#FFC8C1"/>
</linearGradient>
<linearGradient id="paint3_linear_505_0" x1="222.38" y1="264.589" x2="251.114" y2="274.937" gradientUnits="userSpaceOnUse">
<stop stop-color="#FFB3B6" stop-opacity="0.31"/>
<stop offset="1" stop-color="#FFC8C1"/>
</linearGradient>
<linearGradient id="paint4_linear_505_0" x1="275.363" y1="322.46" x2="269.234" y2="259.259" gradientUnits="userSpaceOnUse">
<stop stop-color="#FFB3B6"/>
<stop offset="1" stop-color="white"/>
</linearGradient>
<linearGradient id="paint5_linear_505_0" x1="273.873" y1="255.908" x2="267.989" y2="205.279" gradientUnits="userSpaceOnUse">
<stop stop-color="#FFB3B6"/>
<stop offset="1" stop-color="#FFC8C1"/>
</linearGradient>
<linearGradient id="paint6_linear_505_0" x1="235.053" y1="257.693" x2="235.053" y2="383.748" gradientUnits="userSpaceOnUse">
<stop stop-color="#F4A984"/>
<stop offset="1" stop-color="#EE4D47"/>
</linearGradient>
<linearGradient id="paint7_linear_505_0" x1="176.709" y1="277.072" x2="176.709" y2="383.379" gradientUnits="userSpaceOnUse">
<stop stop-color="#F4A984"/>
<stop offset="1" stop-color="#EE4D47"/>
</linearGradient>
<linearGradient id="paint8_linear_505_0" x1="234.891" y1="154.853" x2="234.891" y2="222.082" gradientUnits="userSpaceOnUse">
<stop stop-color="#F4A984"/>
<stop offset="1" stop-color="#EE4D47"/>
</linearGradient>
<linearGradient id="paint9_linear_505_0" x1="201.135" y1="210.334" x2="201.135" y2="238.346" gradientUnits="userSpaceOnUse">
<stop stop-color="#F4A984"/>
<stop offset="1" stop-color="#EE4D47"/>
</linearGradient>
<linearGradient id="paint10_linear_505_0" x1="192.652" y1="212.417" x2="192.652" y2="236.55" gradientUnits="userSpaceOnUse">
<stop stop-color="#F4A984"/>
<stop offset="1" stop-color="#EE4D47"/>
</linearGradient>
<linearGradient id="paint11_linear_505_0" x1="268.288" y1="210.676" x2="268.288" y2="238.688" gradientUnits="userSpaceOnUse">
<stop stop-color="#F4A984"/>
<stop offset="1" stop-color="#EE4D47"/>
</linearGradient>
<linearGradient id="paint12_linear_505_0" x1="276.616" y1="212.759" x2="276.616" y2="236.892" gradientUnits="userSpaceOnUse">
<stop stop-color="#F4A984"/>
<stop offset="1" stop-color="#EE4D47"/>
</linearGradient>
<linearGradient id="paint13_linear_505_0" x1="220.669" y1="255.573" x2="220.669" y2="263.762" gradientUnits="userSpaceOnUse">
<stop stop-color="#F4A984"/>
<stop offset="1" stop-color="#EE4D47"/>
</linearGradient>
<linearGradient id="paint14_linear_505_0" x1="194" y1="294.552" x2="216.5" y2="210.552" gradientUnits="userSpaceOnUse">
<stop stop-color="#FFB3B6"/>
<stop offset="0.239165" stop-color="#FFC5C7"/>
<stop offset="1" stop-color="white"/>
</linearGradient>
<linearGradient id="paint15_linear_505_0" x1="309.105" y1="516.315" x2="309.105" y2="31.2427" gradientUnits="userSpaceOnUse">
<stop stop-color="#FFEDBA"/>
<stop offset="0.423008" stop-color="#F16D5E"/>
<stop offset="0.651925" stop-color="#EE4D47"/>
</linearGradient>
<linearGradient id="paint16_linear_505_0" x1="330.551" y1="410.182" x2="330.551" y2="316.361" gradientUnits="userSpaceOnUse">
<stop stop-color="#FFEDBA"/>
<stop offset="1" stop-color="#EE4D47"/>
</linearGradient>
<linearGradient id="paint17_linear_505_0" x1="319.741" y1="398.324" x2="319.741" y2="371.824" gradientUnits="userSpaceOnUse">
<stop stop-color="#FFEDBA"/>
<stop offset="1" stop-color="#EE4D47"/>
</linearGradient>
<linearGradient id="paint18_linear_505_0" x1="333.449" y1="390.149" x2="333.449" y2="363.201" gradientUnits="userSpaceOnUse">
<stop stop-color="#FFEDBA"/>
<stop offset="1" stop-color="#EE4D47"/>
</linearGradient>
<linearGradient id="paint19_linear_505_0" x1="316.24" y1="403.093" x2="316.24" y2="186.459" gradientUnits="userSpaceOnUse">
<stop stop-color="#FFEDBA"/>
<stop offset="1" stop-color="#EE4D47"/>
</linearGradient>
<linearGradient id="paint20_linear_505_0" x1="316.405" y1="393.215" x2="316.405" y2="307.379" gradientUnits="userSpaceOnUse">
<stop stop-color="#FFEDBA"/>
<stop offset="1" stop-color="#EE4D47"/>
</linearGradient>
<linearGradient id="paint21_linear_505_0" x1="213.907" y1="397.505" x2="213.907" y2="371.986" gradientUnits="userSpaceOnUse">
<stop stop-color="#FFEDBA"/>
<stop offset="1" stop-color="#EE4D47"/>
</linearGradient>
<linearGradient id="paint22_linear_505_0" x1="241.95" y1="376.184" x2="241.95" y2="356.769" gradientUnits="userSpaceOnUse">
<stop stop-color="#FFEDBA"/>
<stop offset="1" stop-color="#EE4D47"/>
</linearGradient>
<clipPath id="clip0_505_0">
<rect width="80" height="71" fill="white" transform="translate(392 310.052)"/>
</clipPath>
</defs>
</svg>
