<svg width="708" height="498" viewBox="0 0 708 498" fill="none" xmlns="http://www.w3.org/2000/svg">
<path d="M649.639 381.85C715.099 310.439 738.903 166.131 649.639 146.294C517.275 116.879 582.691 220.68 257.872 166.13C56.6284 132.334 71.9071 332.258 183.486 443.838C295.066 555.417 567.814 471.113 649.639 381.85Z" fill="#FCDDD4"/>
<mask id="mask0_422_5" style="mask-type:alpha" maskUnits="userSpaceOnUse" x="102" y="140" width="606" height="358">
<path d="M649.639 381.849C715.099 310.438 738.903 166.131 649.639 146.294C517.275 116.879 582.691 220.679 257.872 166.13C56.6284 132.334 71.9071 332.258 183.486 443.837C295.066 555.417 567.814 471.112 649.639 381.849Z" fill="#FCDDD4"/>
</mask>
<g mask="url(#mask0_422_5)">
<path opacity="0.7" d="M59.5098 349.019C91.9727 306.807 177.955 224.492 262.184 232.935C367.469 243.488 167.427 441.359 262.184 441.359C356.94 441.359 401.686 198.637 470.122 198.637C538.557 198.637 393.79 378.04 470.122 388.593C546.453 399.146 609.624 135.318 693.852 132.68C778.08 130.042 606.992 349.019 743.863 349.019" stroke="url(#paint0_linear_422_5)" stroke-width="2"/>
<path d="M782.975 446.861C782.975 474.392 767.129 496.635 747.641 496.635H712.307C692.819 496.635 677.155 474.209 677.155 446.861C677.155 419.33 693.001 397.086 712.489 397.086C712.853 397.086 713.036 397.086 713.4 397.086H747.641C767.311 397.086 782.975 419.512 782.975 446.861Z" fill="#402B2B"/>
<path d="M506.135 446.314C506.135 473.845 490.289 496.088 470.801 496.088H435.467C415.979 496.088 400.316 473.662 400.316 446.314C400.316 418.783 416.161 396.539 435.649 396.539C436.014 396.539 436.196 396.539 436.56 396.539H470.801C490.471 396.539 506.135 418.783 506.135 446.314Z" fill="#F48767"/>
<path d="M785.341 442.121L643.095 441.756L659.487 432.093L767.128 432.275L785.341 442.121Z" fill="#402B2B"/>
<path d="M919.573 360.987L919.391 452.331L803.919 452.149L767.128 432.276L659.488 432.093L626.339 451.784L391.388 451.237C387.563 451.237 384.467 448.138 384.467 444.309L384.649 359.893L919.573 360.987Z" fill="#F36F49"/>
<path d="M667.864 381.771L483.545 381.407L483.91 214.216C483.91 207.47 489.374 202 496.295 202L668.41 202.365L667.864 381.771Z" fill="#F48767"/>
<path d="M955.271 382.501L668.047 381.954L668.411 202.547L943.432 203.094C950.171 203.094 955.635 208.564 955.635 215.492L955.271 382.501Z" fill="#F06A5B"/>
<path d="M529.446 446.314C529.446 473.845 545.109 496.088 564.597 496.088H599.749V479.314C612.68 479.314 623.244 464.546 623.244 446.314C623.244 428.081 612.863 413.313 599.931 413.313V396.539H564.779C545.291 396.722 529.628 418.965 529.446 446.314Z" fill="#F48767"/>
<path d="M628.888 446.679C628.888 469.287 615.956 487.52 599.929 487.337C583.901 487.337 571.152 469.105 571.152 446.497C571.152 423.889 584.083 405.656 600.111 405.839C615.956 405.839 628.888 424.071 628.888 446.679Z" fill="#F48767"/>
<path d="M599.932 473.48C589.368 473.48 580.99 461.446 580.99 446.496C580.99 431.545 589.55 419.694 600.114 419.694C610.678 419.694 619.056 431.727 619.056 446.678C619.056 461.629 610.495 473.48 599.932 473.48ZM599.932 430.634C593.739 430.634 588.639 437.744 588.639 446.496C588.639 455.247 593.739 462.54 599.932 462.54C606.124 462.54 611.224 455.43 611.224 446.678C611.224 437.744 606.306 430.634 599.932 430.634Z" fill="#F7A58D"/>
<path d="M599.931 496.271C580.443 496.271 564.779 473.845 564.779 446.496C564.779 419.148 580.625 396.722 600.113 396.722C619.601 396.722 635.265 419.148 635.265 446.496C635.265 473.845 619.237 496.453 599.931 496.271ZM600.113 405.838C584.085 405.838 571.154 424.07 571.154 446.496C571.154 469.104 583.903 487.337 599.931 487.337C615.959 487.337 628.89 469.104 628.89 446.678C628.89 424.07 615.959 405.838 600.113 405.838Z" fill="#F7A58D"/>
<path d="M604.848 446.496C604.848 442.667 602.662 439.75 600.112 439.75C597.562 439.75 595.377 442.85 595.195 446.496C595.195 450.325 597.38 453.242 599.93 453.242C602.662 453.425 604.848 450.325 604.848 446.496Z" fill="#5B2929"/>
<path d="M361.52 310.119C361.52 310.848 360.974 311.395 360.427 311.577C358.97 311.942 353.506 311.942 351.867 311.395C351.138 311.213 350.41 310.666 350.41 309.754C349.864 295.168 349.864 280.947 350.41 267.455C350.41 266.543 351.138 265.996 351.867 265.814C353.688 265.267 360.063 264.902 362.066 265.632C362.795 265.814 363.341 266.543 363.341 267.273C363.706 281.129 363.159 295.351 361.52 310.119Z" fill="#F69276"/>
<path d="M370.443 323.063C370.261 323.063 370.079 323.063 369.714 322.881L357.329 316.682C354.415 315.223 352.594 312.306 352.594 309.024L352.776 263.261C352.776 261.438 354.233 259.979 356.054 259.979H390.113C391.024 259.979 391.57 260.708 391.57 261.438C391.57 262.349 390.842 262.896 390.113 262.896H356.054C355.872 262.896 355.872 263.078 355.872 263.078L355.69 308.842C355.69 311.03 356.965 312.853 358.786 313.765L371.171 319.964C371.9 320.328 372.264 321.24 371.9 321.969C371.536 322.881 370.989 323.063 370.443 323.063Z" fill="#F69276"/>
<path d="M643.095 381.406C643.095 381.406 638.36 381.406 631.074 381.406H602.115C580.441 381.406 575.342 392.163 562.046 418.6L519.973 418.418C519.973 418.418 519.973 415.319 519.973 410.031L359.332 409.667C358.604 396.357 357.146 369.373 357.146 343.848C357.146 342.936 357.146 342.207 357.146 341.295C357.146 334.002 358.421 325.98 360.607 317.958C369.167 286.598 390.841 253.233 399.766 241.017C402.68 237.006 405.23 233.542 407.415 230.442C413.608 222.238 417.797 218.044 425.628 218.044L620.328 218.591C624.335 218.591 627.978 221.326 629.071 225.155C645.827 286.78 643.277 333.637 643.095 381.406ZM478.993 240.288C479.175 239.376 478.447 238.647 477.536 238.647L418.343 238.464C414.883 238.464 411.422 240.288 409.236 243.387C386.106 274.929 376.817 303.736 373.356 320.328L369.714 337.831C369.167 340.383 370.806 342.389 373.356 342.389H387.745C390.113 342.389 392.662 341.295 394.484 339.472L423.989 311.212C427.268 308.112 431.639 306.289 435.828 306.289H471.162L478.993 240.288Z" fill="#F36F49"/>
<path d="M509.594 318.505C508.319 324.34 506.862 330.357 505.587 336.738C504.676 341.114 500.851 344.213 496.48 344.396C438.926 346.401 391.207 346.583 357.149 344.031C357.149 343.119 357.149 342.39 357.149 341.478C357.149 334.185 358.424 326.163 360.609 318.141L509.594 318.505Z" fill="#F6977C"/>
<path d="M615.959 238.83L556.766 238.647C553.306 238.647 550.209 240.47 548.57 243.57C531.996 275.112 528.536 303.919 528.536 320.511V338.014C528.536 340.566 530.539 342.572 533.089 342.572H547.477C549.845 342.572 552.213 341.478 553.67 339.655L577.347 311.395C580.079 308.295 583.904 306.289 588.093 306.472H623.427L617.781 240.47C617.781 239.559 617.052 238.83 615.959 238.83Z" fill="#F36F49"/>
<path d="M643.095 381.406C643.095 381.406 638.36 381.406 631.074 381.406H602.115C580.441 381.406 575.342 392.163 562.046 418.6L519.973 418.418C519.973 418.418 519.973 415.319 519.973 410.031L359.332 409.667C358.604 396.357 357.146 369.373 357.146 343.848C391.205 346.4 439.106 346.4 496.478 344.212C500.849 344.03 504.674 340.93 505.585 336.555C506.86 330.173 508.317 323.974 509.592 318.322C517.423 284.957 525.984 261.073 537.276 235.183C538.186 233.177 536.729 230.807 534.544 230.807L407.415 230.442C413.608 222.238 417.797 218.044 425.628 218.044L620.328 218.591C624.335 218.591 627.978 221.326 629.071 225.155C645.827 286.78 643.277 333.637 643.095 381.406ZM623.607 306.471L617.961 240.47C617.961 239.558 617.05 238.829 616.139 238.829L556.946 238.647C553.486 238.647 550.389 240.47 548.75 243.57C532.176 275.112 528.716 303.919 528.716 320.51V338.013C528.716 340.566 530.719 342.571 533.269 342.571H547.657C550.025 342.571 552.393 341.477 553.85 339.654L577.527 311.394C580.259 308.294 584.084 306.289 588.273 306.471H623.607Z" fill="#F7A58D"/>
<path d="M635.994 376.666C635.994 379.401 633.808 381.407 631.076 381.407H602.117C580.443 381.407 575.344 392.164 562.048 418.601L519.975 418.419C519.975 418.419 519.975 415.319 519.975 410.032L520.157 336.191C520.157 299.543 526.714 276.388 544.017 239.741C546.567 234.272 552.213 230.807 558.223 230.807L620.877 230.99C622.334 230.99 623.427 231.901 623.791 233.178C636.176 280.217 636.176 356.793 635.994 376.666ZM623.609 306.472L617.963 240.471C617.963 239.559 617.052 238.83 616.142 238.83L556.948 238.647C553.488 238.647 550.392 240.471 548.752 243.57C532.178 275.112 528.718 303.919 528.718 320.511V338.014C528.718 340.566 530.721 342.572 533.271 342.572H547.66C550.027 342.572 552.395 341.478 553.852 339.655L577.529 311.394C580.261 308.295 584.086 306.289 588.275 306.472H623.609Z" fill="#F58A6B"/>
<path d="M615.595 241.017L556.766 240.835C554.216 240.835 551.849 242.294 550.574 244.482C533.453 277.118 530.721 306.107 530.721 320.328V337.831C530.721 339.108 531.814 340.202 533.089 340.202H547.477C549.299 340.202 550.938 339.472 552.031 338.196L575.708 309.936C578.804 306.289 583.358 304.102 588.275 304.102H621.059L615.595 241.017ZM615.959 238.83C616.87 238.83 617.781 239.559 617.781 240.47L623.427 306.472H588.093C583.904 306.472 580.079 308.295 577.347 311.395L553.67 339.655C552.213 341.478 549.845 342.572 547.477 342.572H533.089C530.539 342.572 528.536 340.566 528.536 338.014V320.511C528.536 303.919 531.996 275.112 548.57 243.57C550.209 240.47 553.306 238.647 556.766 238.647L615.959 238.83Z" fill="#F7A58D"/>
<path d="M520.155 375.208V410.031L456.591 409.849C457.319 400.733 458.959 391.981 461.691 383.777C462.783 380.495 465.515 378.125 468.976 377.578C483 375.937 500.849 375.208 520.155 375.208ZM391.569 409.849H360.061C359.514 402.192 358.968 389.793 358.421 375.755C366.071 376.119 373.174 376.848 379.549 377.76C383.009 378.307 385.741 380.677 386.834 383.959C389.384 391.981 390.841 400.733 391.569 409.849Z" fill="#F6977C"/>
<path d="M519.974 445.038L372.628 444.673C362.611 444.673 354.415 436.469 354.415 426.441V423.341C354.415 420.424 356.783 418.236 359.515 418.236L519.791 418.601L519.974 445.038Z" fill="#F6977C"/>
<path d="M547.112 445.038H519.974V418.601H561.683L557.129 437.016C556.036 441.756 551.847 445.038 547.112 445.038Z" fill="#F7A58D"/>
<path d="M611.952 348.589C605.759 348.771 593.738 350.048 593.738 354.423C593.738 358.799 604.302 360.258 612.862 360.258C621.423 360.258 622.333 355.517 623.062 353.512C623.608 351.506 624.155 348.407 611.952 348.589Z" fill="#F6977C"/>
<path d="M611.405 353.329C614.319 353.329 617.415 352.418 618.872 350.959C617.779 350.412 616.14 349.865 613.59 349.865C608.855 349.865 601.205 350.412 597.198 352.235C597.745 352.6 599.202 353.329 601.569 353.329C604.484 353.329 608.308 353.329 611.405 353.329Z" fill="#F47B58"/>
<path d="M599.201 356.794C598.108 356.794 597.562 356.976 597.38 357.158C600.658 358.617 606.669 359.164 609.583 359.164C613.772 359.164 616.686 359.164 617.597 358.252C616.868 357.705 615.229 356.794 613.59 356.794C611.404 356.976 600.658 356.794 599.201 356.794Z" fill="#F47B58"/>
<path d="M519.974 410.214C519.974 415.501 519.974 418.601 519.974 418.601L359.879 418.236C359.879 418.236 359.697 415.136 359.333 409.849L519.974 410.214Z" fill="#F58A6B"/>
<g opacity="0.2">
<path d="M450.944 373.384V408.208L397.215 408.026V373.202C397.215 369.008 401.04 365.727 405.775 365.727H442.566C447.12 365.909 450.944 369.373 450.944 373.384Z" fill="#F16036"/>
</g>
<path d="M379.184 406.932H367.892C364.978 406.932 362.428 404.562 362.428 401.462V395.81C362.428 392.893 364.796 390.341 367.892 390.341H379.184C382.099 390.341 384.648 392.711 384.648 395.81V401.462C384.648 404.562 382.099 406.932 379.184 406.932Z" fill="white"/>
<path d="M486.099 407.297H474.807C471.893 407.297 469.343 404.927 469.343 401.827V396.175C469.343 393.258 471.711 390.706 474.807 390.706H486.099C489.014 390.706 491.563 393.076 491.563 396.175V401.827C491.563 404.745 489.196 407.297 486.099 407.297Z" fill="white"/>
<path d="M558.951 310.483C558.951 311.213 558.405 311.76 557.859 311.942C550.755 312.671 543.288 312.671 535.638 311.76C534.728 311.577 534.181 311.03 534.181 310.119C533.635 295.533 533.635 281.312 534.181 267.82C534.181 266.908 534.91 266.361 535.638 266.179C543.47 265.267 551.302 265.267 559.498 266.179C560.226 266.361 560.773 267.09 560.773 267.82C561.319 281.494 560.591 295.715 558.951 310.483Z" fill="#F7A58D"/>
<path d="M530.722 323.428C530.176 323.428 529.63 323.064 529.447 322.517C529.083 321.788 529.447 320.876 530.176 320.511L542.561 314.495C544.382 313.583 545.657 311.577 545.657 309.572L545.839 263.808C545.839 263.626 545.657 263.626 545.657 263.626H538.008C537.097 263.626 536.551 262.897 536.551 262.168C536.551 261.256 537.279 260.709 538.008 260.709H545.657C547.479 260.709 548.936 262.168 548.936 263.991L548.753 309.754C548.753 313.036 546.932 315.953 544.018 317.412L531.633 323.428C531.087 323.428 530.904 323.428 530.722 323.428Z" fill="#F69276"/>
<path d="M447.189 447.197L395.646 447.085L395.679 431.587L447.223 431.699L447.189 447.197Z" fill="#F8B4A0"/>
<path opacity="0.6" d="M537.628 235.734C526.335 261.624 517.957 285.509 509.943 318.874L360.959 318.509C369.519 287.15 391.193 253.784 400.117 241.569C403.031 237.558 405.581 234.093 407.767 230.994L534.896 231.359C537.081 231.541 538.538 233.729 537.628 235.734Z" fill="url(#paint1_linear_422_5)"/>
<path d="M296.305 253.535C296.305 253.535 292.099 384.393 296.19 531.503C296.19 531.503 308.462 543.134 331.714 535.38C331.714 535.38 331.498 371.685 337.742 306.638C337.742 306.638 367.022 430.271 404.053 537.319C404.053 537.319 428.812 542.057 437.639 528.057C437.639 528.057 387.69 354.669 380.37 254.944L296.305 253.535Z" fill="url(#paint2_linear_422_5)"/>
<path d="M296.619 254.944H380.369C381.015 262.482 381.661 270.452 382.737 278.637C332.789 278.852 306.308 266.144 296.404 260.329C296.404 256.667 296.619 254.944 296.619 254.944Z" fill="#402B2B" fill-opacity="0.45" style="mix-blend-mode:multiply"/>
</g>
<path d="M305.021 38.045H325.689L328.488 25.5524C328.488 25.5524 320.307 30.291 318.369 27.0602C316.432 23.8294 316.862 25.1217 314.925 25.5524C312.987 25.9832 312.987 23.3986 310.619 24.9063C308.035 26.6294 304.16 34.8141 305.021 38.045Z" fill="#6B1912"/>
<path d="M264.632 194.023L276.41 165.508L309.528 177.922C308.386 187.056 288.187 204.561 276.41 216.959L264.632 194.023Z" fill="url(#paint3_linear_422_5)"/>
<path d="M292.216 110.923C292.216 110.923 274.081 143.814 263.452 192.165C260.182 207.043 260.973 214.729 265.932 218.201C272.131 222.54 283.287 218.82 288.866 207.043C294.547 194.026 305.048 165.792 307.404 152.222C307.404 152.222 303.328 113.362 292.216 110.923Z" fill="url(#paint4_linear_422_5)"/>
<path d="M292.104 110.415C292.104 110.415 293.181 135.184 296.41 254.295C296.41 254.295 325.69 269.156 384.035 258.818C384.035 258.818 384.251 223.063 392.216 191.401C392.216 191.401 407.072 131.738 399.536 114.292C399.536 114.292 351.956 84.7834 292.104 110.415Z" fill="url(#paint5_linear_422_5)"/>
<path d="M337.315 86.8077L336.884 102.23C336.884 102.23 340.544 107.615 349.371 108.261C358.198 108.692 362.504 103.738 362.504 103.738L363.365 80.7769C352.385 85.5154 341.621 87.4539 337.315 86.8077Z" fill="url(#paint6_linear_422_5)"/>
<path d="M338.177 80.4761L337.316 97.4918C341.622 98.138 352.386 96.1995 363.151 91.4609L363.797 80.4761H338.177Z" fill="url(#paint7_linear_422_5)" style="mix-blend-mode:multiply"/>
<path d="M396.522 147.892C396.522 147.892 383.82 176.539 379.298 189.462C374.777 202.17 374.777 252.786 351.095 262.479C351.095 262.479 376.284 260.971 384.25 258.817C384.25 258.817 384.681 220.693 392.431 191.4C392.431 191.4 397.814 160.6 399.967 146.6L396.522 147.892Z" fill="#EE4D47" fill-opacity="0.29" style="mix-blend-mode:multiply"/>
<path d="M379.729 42.9995C379.299 43.2149 378.868 50.1073 378.868 50.1073L377.146 64.5383L369.18 70.7846L364.659 72.7231C364.659 72.7231 357.985 69.923 358.846 67.3384C359.707 64.9691 364.013 30.9377 364.874 30.9377C365.735 30.9377 372.625 35.8916 372.625 35.8916L379.729 42.9995Z" fill="#402B2B"/>
<path d="M316.649 30.0754C314.711 30.0754 317.725 53.7682 317.725 53.7682L321.17 44.2911L323.538 32.8755L316.649 30.0754Z" fill="#402B2B"/>
<path d="M319.878 34.8125L316.218 65.1823C316.218 65.1823 314.926 90.8136 336.025 92.3213C357.124 93.6136 371.549 72.7209 371.549 72.7209C371.549 72.7209 374.132 75.7363 376.931 70.567C379.514 65.3977 377.792 58.5053 374.132 57.8591C370.257 57.4283 368.534 59.5822 368.104 62.813C367.673 66.0438 367.243 68.4131 367.243 68.4131L364.013 67.9824L366.381 42.9973C366.381 42.9973 361.43 33.3048 355.832 31.3663C350.234 29.4278 345.283 37.1818 345.283 37.1818C345.283 37.1818 340.116 38.2587 335.164 37.1818C330.212 36.1048 326.983 34.8125 326.983 34.8125C326.983 34.8125 323.968 35.674 319.878 34.8125Z" fill="url(#paint8_linear_422_5)"/>
<path d="M335.977 210.76C335.977 210.76 303.124 205.801 303.124 200.842C303.124 195.883 309.942 184.105 314.901 170.468C319.86 156.831 324.2 135.135 326.059 130.795C327.919 126.456 320.48 138.854 320.48 138.854C308.289 154.764 283.411 187.701 281.428 192.164C279.444 196.627 278.535 207.248 278.328 212L287.007 216.959L312.422 213.86L335.977 210.76Z" fill="#EE4D47" fill-opacity="0.29" style="mix-blend-mode:multiply"/>
<path d="M325.38 79.3455C325.38 76.8657 327.907 73.1598 332.199 74.3862C336.538 75.6264 337.571 79.3453 337.778 81.8248" stroke="#893D43"/>
<path d="M319.182 115.299C319.182 115.299 265.253 184.745 264.013 195.884C262.773 207.023 261.871 218.009 273.142 219.365C284.412 220.722 295.119 202.975 299.064 193.932L308.024 171.088L326.62 125.837L319.182 115.299Z" fill="url(#paint9_linear_422_5)"/>
<path d="M326.679 130.175C326.679 123.976 319.24 121.497 313.041 121.497L274.609 174.807C266.757 185.758 253.285 211.008 267.17 219.439C281.056 227.869 296.511 206.421 301.884 195.263C304.859 188.32 319.654 148.978 326.679 130.175Z" fill="url(#paint10_linear_422_5)"/>
<path d="M319.241 116.538C319.241 116.538 315.453 101.816 319.477 92.2366C319.477 92.2366 321.673 87.9526 324.041 89.7939C326.678 91.4915 328.75 87.6197 331.387 89.3173C334.023 91.0149 336.133 88.5043 338.746 91.7691C338.746 91.7691 341.719 90.8692 343.425 93.41C345.132 95.9508 349.039 101.632 348.19 102.949C347.341 104.267 344.459 110.818 343.715 111.043C342.972 111.268 341.611 111.306 340.997 108.871C340.997 108.871 340.93 111.325 339.645 114.085C338.565 116.907 335.051 120.342 335.051 120.342L326.059 126.455L319.241 116.538Z" fill="url(#paint11_linear_422_5)"/>
<path d="M342.051 27.0598V5.09009C355.184 5.73625 368.748 8.32089 375.422 16.5057C383.388 26.1982 378.867 48.5987 378.867 48.5987C378.867 48.5987 369.178 47.5217 367.456 44.2909C365.734 41.0601 349.371 36.5368 336.884 37.183C324.397 37.8292 318.369 36.5369 312.125 31.1522C310.833 30.0752 309.757 28.5675 308.896 26.8444H342.051V27.0598Z" fill="#402B2B"/>
<path d="M380.374 40.4139C380.374 40.4139 371.116 37.3984 355.615 36.1061C329.564 25.1213 318.369 27.0598 318.369 27.0598C318.369 27.0598 318.584 18.6596 320.952 12.8441C323.321 7.02862 339.253 -1.15615 352.601 0.136188C365.949 1.42852 379.728 11.3364 381.881 20.8135C383.603 28.1367 380.374 40.4139 380.374 40.4139Z" fill="url(#paint12_linear_422_5)"/>
<path d="M364.658 37.1858C361.859 23.8317 341.837 17.1547 327.627 17.37C313.633 17.5854 303.73 29.2164 302.223 37.1858C301.577 40.4166 304.16 40.8474 305.022 38.0473C305.667 36.1088 306.959 26.8471 319.877 27.9241C332.795 29.001 332.149 40.632 338.608 41.709C344.636 42.7859 351.525 38.4781 364.658 37.1858Z" fill="url(#paint13_linear_422_5)"/>
<path d="M320.543 45.1001L319.872 43.7499C320.451 43.4625 324.598 40.6804 330.571 39.1555L331.433 41.3731C326.327 42.2262 320.543 45.1001 320.543 45.1001Z" fill="#402B2B"/>
<path d="M357.193 50.7672C354.613 47.1616 348.459 43.0547 348.551 42.8601L350.252 41.2821C350.446 41.3743 355.925 45.3994 358.617 49.7733L357.193 50.7672Z" fill="#402B2B"/>
<path d="M336.241 52.907C336.241 52.907 335.595 57.4301 333.873 58.7225C332.151 60.0148 329.136 61.0917 328.706 62.1687C328.275 63.0303 329.136 64.7534 331.074 65.3995C333.012 66.0457 333.227 66.6919 333.227 66.6919C333.227 66.6919 329.352 67.1227 327.414 64.7534C325.476 62.3841 327.629 60.4456 329.567 59.3687C331.505 58.2917 332.366 57.8609 333.227 57.2148C334.304 56.5686 336.241 52.907 336.241 52.907Z" fill="#D87C60"/>
<path d="M345.496 55.2738C345.496 57.4277 347.003 59.3662 348.941 59.3662C350.879 59.3662 352.386 57.6431 352.386 55.2738C352.386 53.1199 350.879 51.1814 348.941 51.1814C347.003 51.1814 345.496 52.9045 345.496 55.2738Z" fill="#402B2B"/>
<path d="M321.815 52.4745C321.815 54.6283 323.322 56.5668 325.259 56.5668C327.197 56.5668 328.704 54.8437 328.704 52.4745C328.704 50.3206 327.197 48.3821 325.259 48.3821C323.322 48.5975 321.815 50.3206 321.815 52.4745Z" fill="#402B2B"/>
<path d="M310.136 220.68C308.483 217.993 305.425 210.513 306.416 202.083C308.483 204.976 312.119 212.745 310.136 220.68Z" fill="#644545"/>
<path fill-rule="evenodd" clip-rule="evenodd" d="M385.111 210.571C400.828 187.739 402.98 118.6 402.98 118.6C388.519 120.48 381.612 134.795 377.175 143.992C375.007 148.486 373.428 151.758 371.846 151.758L365.186 194.098L298.583 205.991C298.528 206.068 298.473 206.145 298.418 206.221C295.138 206.307 283.753 206.949 276.317 211.684C276.317 211.684 272.465 214.571 274.679 216.595C275.738 217.752 275.401 219.004 275.063 220.256C274.726 221.508 274.389 222.759 275.448 223.916C276.341 224.891 276.481 225.901 276.618 226.894C276.806 228.255 276.99 229.586 279.105 230.756C279.105 230.756 278.719 233.838 281.511 235.092C281.638 235.149 281.772 235.209 281.912 235.272C284.861 236.6 290.614 239.191 291.717 238.18C292.132 237.8 293.167 237.049 294.327 236.206C296.401 234.699 298.879 232.9 298.941 232.406C299.037 231.635 298.845 230.287 296.341 230.092C296.341 230.092 298.749 229.612 301.253 227.88C303.853 226.341 306.646 222.297 306.646 222.297L309.18 216.509C370.887 221.769 385.111 210.571 385.111 210.571Z" fill="url(#paint14_linear_422_5)"/>
<path d="M367.027 150.263L360.998 181.925L358.294 189.894L306.223 202.083C307.67 204.769 310.439 212.249 309.943 220.68C321.514 221.919 353.707 222.043 375.031 217.58C380.759 216.48 387.428 210.761 395.876 189.894C415.037 123.985 399.536 114.293 399.536 114.293C378.007 117.093 367.027 150.263 367.027 150.263Z" fill="url(#paint15_linear_422_5)"/>
<path d="M229.977 178.527C229.977 178.527 254.678 203.943 234.317 209.522C213.955 215.101 194.69 198.686 168.655 203.135C124.023 210.761 50.736 220.679 11.0634 146.293C-38.5274 53.3101 90.8899 16.1171 156.116 16.1174C234.363 16.1178 265.216 49.5912 272.655 95.4627C278.606 132.16 246.094 167.369 229.977 178.527Z" fill="url(#paint16_linear_422_5)"/>
<path d="M135.914 127.236L137.108 101.658C141.888 100.418 145.879 98.1422 149.081 94.8313C152.282 91.5203 154.135 87.3201 154.638 82.2307C155.231 76.243 154.616 71.4459 152.792 67.8392C150.979 64.1328 148.453 62.1193 145.214 61.7988C142.369 61.5171 140.062 62.2966 138.294 64.137C136.624 65.9872 135.18 68.5651 133.961 71.8707L131.336 78.8665C130.117 82.1721 128.354 84.4665 126.047 85.7497C123.848 86.9429 121.585 87.2732 119.26 86.7408C117.032 86.218 115.173 84.9759 113.683 83.0145C112.202 80.9534 111.619 78.3261 111.936 75.1327C112.331 71.1409 114.094 67.8388 117.227 65.2265C120.457 62.6238 124.409 60.7475 129.081 59.5975C133.753 58.4476 138.543 58.1154 143.45 58.601C153.362 59.5819 160.902 62.4948 166.072 67.3395C171.339 72.1939 173.548 78.9123 172.699 87.4946C172.116 93.3824 170.199 98.2313 166.948 102.041C163.697 105.851 159.686 108.83 154.915 110.978C150.252 113.036 145.447 114.525 140.5 115.446L138.564 127.499L135.914 127.236ZM132.506 163.177C128.973 162.827 126.054 161.279 123.75 158.531C121.543 155.794 120.618 152.628 120.973 149.036C121.319 145.543 122.842 142.671 125.542 140.419C128.351 138.076 131.521 137.08 135.054 137.43C138.685 137.789 141.55 139.383 143.649 142.21C145.855 144.948 146.786 148.063 146.44 151.556C146.084 155.149 144.556 158.071 141.856 160.323C139.254 162.585 136.137 163.536 132.506 163.177Z" fill="white"/>
<defs>
<linearGradient id="paint0_linear_422_5" x1="401.686" y1="205.737" x2="401.686" y2="509.4" gradientUnits="userSpaceOnUse">
<stop stop-color="#F37753"/>
<stop offset="1" stop-color="white" stop-opacity="0"/>
</linearGradient>
<linearGradient id="paint1_linear_422_5" x1="468.128" y1="203.103" x2="396.756" y2="374.02" gradientUnits="userSpaceOnUse">
<stop stop-color="#F7A58D"/>
<stop offset="0.926161" stop-color="white"/>
</linearGradient>
<linearGradient id="paint2_linear_422_5" x1="366.058" y1="174.86" x2="366.058" y2="538.091" gradientUnits="userSpaceOnUse">
<stop stop-color="#822626"/>
<stop offset="0.943497" stop-color="#402B2B"/>
</linearGradient>
<linearGradient id="paint3_linear_422_5" x1="283.001" y1="169.358" x2="283.001" y2="225.997" gradientUnits="userSpaceOnUse">
<stop stop-color="#FFB3B6"/>
<stop offset="1" stop-color="#FFC8C1"/>
</linearGradient>
<linearGradient id="paint4_linear_422_5" x1="307.463" y1="115.92" x2="307.463" y2="227.499" gradientUnits="userSpaceOnUse">
<stop stop-color="#F4A984"/>
<stop offset="1" stop-color="#EE4D47"/>
</linearGradient>
<linearGradient id="paint5_linear_422_5" x1="346.887" y1="38.0578" x2="346.887" y2="256.894" gradientUnits="userSpaceOnUse">
<stop stop-color="#F4A984"/>
<stop offset="1" stop-color="#EE4D47"/>
</linearGradient>
<linearGradient id="paint6_linear_422_5" x1="358.947" y1="101.119" x2="337.16" y2="110.516" gradientUnits="userSpaceOnUse">
<stop stop-color="#FFB3B6"/>
<stop offset="1" stop-color="#FFC8C1"/>
</linearGradient>
<linearGradient id="paint7_linear_422_5" x1="359.379" y1="90.3125" x2="337.469" y2="99.5913" gradientUnits="userSpaceOnUse">
<stop stop-color="#FFB3B6" stop-opacity="0.31"/>
<stop offset="1" stop-color="#FFC8C1"/>
</linearGradient>
<linearGradient id="paint8_linear_422_5" x1="313.412" y1="84.9467" x2="318.072" y2="43.3041" gradientUnits="userSpaceOnUse">
<stop stop-color="#FFB3B6"/>
<stop offset="1" stop-color="#FFC8C1"/>
</linearGradient>
<linearGradient id="paint9_linear_422_5" x1="302.657" y1="90.5034" x2="302.657" y2="217.367" gradientUnits="userSpaceOnUse">
<stop stop-color="#FFB3B6"/>
<stop offset="1" stop-color="#FFC8C1"/>
</linearGradient>
<linearGradient id="paint10_linear_422_5" x1="275.848" y1="147.532" x2="322.29" y2="215.753" gradientUnits="userSpaceOnUse">
<stop stop-color="#F4A984"/>
<stop offset="0.91698" stop-color="#EE4D47"/>
</linearGradient>
<linearGradient id="paint11_linear_422_5" x1="329.5" y1="114" x2="347" y2="84" gradientUnits="userSpaceOnUse">
<stop stop-color="#FFB3B6"/>
<stop offset="1" stop-color="#FFC8C1"/>
</linearGradient>
<linearGradient id="paint12_linear_422_5" x1="350.378" y1="-21.7021" x2="350.378" y2="40.9239" gradientUnits="userSpaceOnUse">
<stop stop-color="#F4A984"/>
<stop offset="1" stop-color="#EE4D47"/>
</linearGradient>
<linearGradient id="paint13_linear_422_5" x1="352.015" y1="11.1638" x2="352.015" y2="76.27" gradientUnits="userSpaceOnUse">
<stop stop-color="#F4A984"/>
<stop offset="1" stop-color="#EE4D47"/>
</linearGradient>
<linearGradient id="paint14_linear_422_5" x1="381.777" y1="178.577" x2="270.166" y2="215.78" gradientUnits="userSpaceOnUse">
<stop stop-color="#FFB3B6"/>
<stop offset="1" stop-color="#FFC8C1"/>
</linearGradient>
<linearGradient id="paint15_linear_422_5" x1="348.995" y1="153.112" x2="396.107" y2="224.399" gradientUnits="userSpaceOnUse">
<stop stop-color="#F4A984"/>
<stop offset="1" stop-color="#EE4D47"/>
</linearGradient>
<linearGradient id="paint16_linear_422_5" x1="39.6726" y1="-106.62" x2="268.334" y2="226.785" gradientUnits="userSpaceOnUse">
<stop stop-color="#F4A984"/>
<stop offset="1" stop-color="#EE4D47"/>
</linearGradient>
</defs>
</svg>
